<?xml version="1.0" encoding="utf-8"?>
<!-- Generator: Adobe Illustrator 16.0.0, SVG Export Plug-In . SVG Version: 6.00 Build 0)  -->
<!DOCTYPE svg PUBLIC "-//W3C//DTD SVG 1.1//EN" "http://www.w3.org/Graphics/SVG/1.1/DTD/svg11.dtd">
<svg version="1.1" id="Layer_1" xmlns="http://www.w3.org/2000/svg" xmlns:xlink="http://www.w3.org/1999/xlink" x="0px" y="0px"
	 width="30px" height="30px" viewBox="0 0 30 30" enable-background="new 0 0 30 30" xml:space="preserve">
<g id="Layer_2">
	<g>
		<g>
			<defs>
				<circle id="SVGID_1_" cx="15.052" cy="14.948" r="14.115"/>
			</defs>
			<clipPath id="SVGID_2_">
				<use xlink:href="#SVGID_1_"  overflow="visible"/>
			</clipPath>
			<g clip-path="url(#SVGID_2_)">
				<path fill="#FFFFFF" d="M9.029,28.899c-0.097-0.028-0.192-0.061-0.289-0.089c-0.517-0.421-1.114-0.688-1.742-0.895l-0.002-0.004
					c-0.402-0.386-0.843-0.711-1.369-0.91l-0.004-0.004c-0.084-0.283-0.319-0.378-0.571-0.451L5.05,26.543
					c-0.17-0.431-0.601-0.61-0.907-0.906c-0.389-0.375-0.652-0.879-1.146-1.148H2.996c-0.127-0.384-0.358-0.685-0.693-0.909h0.001
					c-0.084-0.273-0.164-0.552-0.456-0.688v0.002c0.002-0.231-0.094-0.4-0.311-0.493c-0.002-0.03-0.011-0.057-0.029-0.075
					c0.012-0.247-0.136-0.434-0.238-0.635c-0.545-1.054-0.934-2.166-1.235-3.311c-0.094-0.359-0.067-0.754-0.291-1.077
					c-0.01-0.067-0.019-0.141-0.029-0.211c0.013-0.131,0.05-0.265,0.033-0.392c-0.162-1.25-0.168-2.5,0.007-3.747
					C0.444,8.051,2.917,4.33,7.144,1.76c0.416-0.253,0.917-0.369,1.245-0.763c0.4-0.151,0.799-0.303,1.199-0.455
					c0.232,0.04,0.433-0.014,0.583-0.203c0.338-0.094,0.676-0.185,1.017-0.274c0.106,0.07,0.19,0.057,0.243-0.067
					c0.07-0.014,0.142-0.026,0.213-0.038c0.103,0.067,0.188,0.06,0.247-0.059c0.147-0.022,0.292-0.043,0.439-0.065
					c0.103,0.073,0.186,0.069,0.247-0.053c0.263,0.006,0.527,0.016,0.782-0.077c0.164,0.119,0.301,0.095,0.412-0.073
					c0.654,0.034,1.311,0.067,1.965,0c0.146,0.2,0.327,0.188,0.526,0.085c0.222,0.022,0.446,0.045,0.667,0.067
					c0.237,0.219,0.527,0.134,0.799,0.138C17.832,0.012,17.954,0.012,18.079,0c0.053,0.123,0.138,0.137,0.242,0.065
					c0.073,0.014,0.145,0.026,0.218,0.04c0.044,0.132,0.112,0.165,0.22,0.061c0.06,0.01,0.121,0.021,0.18,0.034
					c0.39,0.305,0.851,0.406,1.325,0.471c0.095,0.03,0.19,0.059,0.284,0.089c0.056,0.13,0.139,0.204,0.287,0.145
					c0.442,0.215,0.886,0.429,1.327,0.642c0.04,0.14,0.117,0.212,0.271,0.17c0.103,0.056,0.205,0.112,0.308,0.168
					c0.032,0.143,0.111,0.215,0.262,0.181c0.144,0.091,0.286,0.182,0.429,0.274c0.025,0.145,0.105,0.218,0.257,0.192
					c0.069,0.047,0.139,0.097,0.21,0.144c0.222,0.334,0.498,0.601,0.896,0.718c0.438,0.439,0.876,0.88,1.313,1.321
					c0.012,0.272,0.178,0.409,0.421,0.481c0.05,0.068,0.102,0.136,0.151,0.204c-0.018,0.217,0.104,0.327,0.299,0.377
					c0.008,0.031,0.025,0.06,0.05,0.08c-0.031,0.154,0.041,0.232,0.188,0.249c0.008,0.036,0.024,0.063,0.053,0.089
					c0.01,0.285,0.152,0.479,0.404,0.602c0.006,0.033,0.021,0.062,0.045,0.089c-0.015,0.23,0.064,0.4,0.295,0.485
					c0.006,0.034,0.019,0.062,0.039,0.091c-0.043,0.188,0.083,0.322,0.157,0.471c0.625,1.235,1.072,2.533,1.374,3.885
					c0.052,0.226-0.049,0.506,0.198,0.676c0.01,0.073,0.018,0.146,0.025,0.219c-0.061,0.265-0.138,0.534,0.115,0.75
					c0.005,0.099,0.01,0.2,0.014,0.3c-0.103,0.726-0.148,1.449,0.024,2.173c-0.008,0.105-0.016,0.215-0.024,0.322
					c-0.275,0.204-0.225,0.449-0.083,0.704c-0.011,0.07-0.02,0.142-0.026,0.212c-0.263,0.126-0.211,0.317-0.104,0.521
					c-0.019,0.058-0.036,0.114-0.053,0.172c-0.425,0.956-0.56,2.014-1.021,2.962c-0.052,0.103,0.013,0.224,0.176,0.196l-0.002-0.007
					c-0.191-0.009-0.172,0.181-0.255,0.271c-0.315,0.188-0.42,0.482-0.422,0.827c-0.022,0.069-0.047,0.14-0.069,0.208
					c-0.171-0.04-0.235,0.079-0.304,0.195c-0.55,0.962-1.236,1.821-1.963,2.648c-0.097,0.11-0.241,0.201-0.19,0.386l0.007-0.012
					c-0.085-0.009-0.124,0.029-0.116,0.116l0.002-0.002c-0.085-0.008-0.125,0.029-0.117,0.114l0.002-0.002
					c-0.085-0.008-0.124,0.032-0.114,0.117v-0.002c-0.085-0.008-0.125,0.028-0.117,0.116l0.002-0.003
					c-0.429,0.042-0.674,0.297-0.8,0.691l0.017-0.004c-0.223-0.069-0.352,0.087-0.5,0.196c-1.075,0.785-2.216,1.448-3.447,1.96
					c-0.674,0.278-1.411,0.394-2.053,0.762c-0.064,0.012-0.13,0.022-0.195,0.035c-0.099-0.102-0.174-0.077-0.222,0.052
					c-0.108,0.018-0.219,0.035-0.33,0.052c-0.168-0.1-0.303-0.067-0.405,0.101c-0.062,0.012-0.124,0.025-0.188,0.037
					c-0.194-0.162-0.358-0.112-0.504,0.069c-0.062,0.008-0.121,0.016-0.181,0.023c-0.145-0.141-0.324-0.083-0.486-0.072
					c-2.256,0.128-4.454-0.145-6.571-0.965C9.218,28.901,9.119,28.912,9.029,28.899z M11.87,17.862
					c-0.006,3.621-0.008,7.243-0.021,10.865c-0.002,0.321,0.147,0.392,0.409,0.382c0.477,0.166,0.969,0.219,1.471,0.19
					c0.723,0.081,1.445,0.069,2.167,0.004c0.755,0.017,1.49-0.095,2.208-0.321c0.231-0.043,0.156-0.23,0.156-0.362
					c0-3.581-0.006-7.157-0.012-10.735l0.049-0.012l0.011-0.05c3.412,0.004,6.82-0.007,10.23,0.022
					c0.511,0.004,0.747-0.126,0.707-0.647c0.179-0.782,0.239-1.582,0.227-2.378c-0.021-1.126-0.006-2.266-0.425-3.343
					c-0.073-0.016-0.147-0.042-0.22-0.042c-3.509,0.002-7.014,0.004-10.523,0.008c-0.021-0.032-0.039-0.062-0.06-0.093
					c0.006-3.461,0.012-6.923,0.014-10.387c0-0.156,0.067-0.364-0.197-0.394c-1.604-0.43-3.235-0.403-4.868-0.243
					c-0.439,0.043-0.902,0.034-1.3,0.282c-0.014,0.587-0.04,1.172-0.038,1.76c0.004,2.959,0.017,5.922,0.025,8.88
					c-0.069,0.071-0.141,0.141-0.209,0.209c-3.583-0.008-7.165-0.016-10.748-0.022c-0.116-0.002-0.232,0.004-0.254,0.155
					c-0.481,1.88-0.48,3.775-0.163,5.678c0.01,0.056,0.018,0.11,0.027,0.166c0.016,0.071,0.031,0.143,0.047,0.212
					c-0.004,0.075,0.021,0.122,0.106,0.11c0.21,0.01,0.419,0.025,0.627,0.025c3.314,0.002,6.629,0,9.942,0.004
					C11.464,17.787,11.68,17.728,11.87,17.862z M4.036,5.049c2.254,1.284,4.439,2.527,6.671,3.798c0-2.698,0-5.33,0-8.017
					C8.128,1.671,5.888,2.979,4.036,5.049z M10.729,20.779c-2.208,1.252-4.318,2.453-6.433,3.644
					c-0.265,0.148-0.173,0.259-0.023,0.417c1.71,1.807,3.776,3.041,6.12,3.835c0.227,0.075,0.343,0.096,0.341-0.213
					C10.725,25.936,10.729,23.409,10.729,20.779z M19.556,8.762c0.035,0.009,0.06,0.021,0.07,0.015
					c2.019-1.135,4.033-2.274,6.053-3.403c0.267-0.147,0.186-0.263,0.02-0.412c-0.571-0.532-1.113-1.097-1.714-1.591
					c-1.311-1.078-2.778-1.884-4.429-2.383C19.556,3.601,19.556,6.184,19.556,8.762z M19.56,20.796c0,2.636,0,5.199,0,7.81
					c2.353-0.884,4.367-2.222,6.058-4.054c0.301-0.319-0.056-0.33-0.188-0.406c-1.513-0.874-3.031-1.738-4.548-2.604
					C20.458,21.3,20.035,21.062,19.56,20.796z M10.79,19.045c-1.023,0-1.871,0.016-2.717-0.007C7.673,19.026,7.339,19.132,7,19.331
					c-1.279,0.747-2.568,1.473-3.855,2.209c-1.011,0.576-0.998,0.567-0.352,1.526c0.216,0.322,0.384,0.357,0.721,0.16
					c1.703-0.998,3.42-1.972,5.133-2.952C9.314,19.894,9.979,19.512,10.79,19.045z M19.736,10.129
					c0.014,0.031,0.027,0.062,0.039,0.093c0.609,0,1.222-0.048,1.825,0.011c0.936,0.091,1.736-0.166,2.512-0.674
					c0.795-0.519,1.644-0.951,2.469-1.421c1.096-0.629,1.087-0.623,0.353-1.666c-0.164-0.231-0.28-0.286-0.535-0.131
					c-0.602,0.368-1.22,0.697-1.832,1.046C22.957,8.3,21.346,9.217,19.736,10.129z M22.279,19.045
					c-0.004,0.199,0.146,0.19,0.232,0.24c1.288,0.732,2.578,1.46,3.871,2.188c1.108,0.622,1.101,0.616,1.611-0.561
					c0.107-0.246,0.062-0.358-0.165-0.484c-0.749-0.409-1.486-0.842-2.233-1.259c-0.113-0.062-0.247-0.119-0.374-0.121
					C24.241,19.04,23.263,19.045,22.279,19.045z M7.083,10.22c0.01-0.028,0.021-0.06,0.031-0.091
					C5.603,9.265,4.092,8.401,2.581,7.537C2.451,7.464,2.315,7.344,2.203,7.544C2,7.91,1.801,8.279,1.616,8.653
					C1.498,8.893,1.73,8.935,1.864,9.011c0.625,0.36,1.258,0.71,1.883,1.069c0.169,0.099,0.342,0.147,0.539,0.145
					C5.219,10.218,6.152,10.22,7.083,10.22z"/>
				<path fill="#07096D" d="M4.036,5.049c1.851-2.072,4.091-3.38,6.671-4.219c0,2.687,0,5.318,0,8.017
					C8.475,7.578,6.291,6.333,4.036,5.049z"/>
				<path fill="#07096D" d="M10.729,20.779c0,2.631-0.004,5.157,0.004,7.683c0.002,0.309-0.115,0.288-0.341,0.213
					c-2.343-0.794-4.409-2.028-6.12-3.835c-0.148-0.158-0.241-0.269,0.023-0.417C6.411,23.23,8.521,22.031,10.729,20.779z"/>
				<path fill="#07096D" d="M19.556,8.762c0-2.58,0-5.162,0-7.775c1.65,0.498,3.118,1.305,4.429,2.382
					c0.601,0.494,1.143,1.061,1.713,1.591c0.166,0.15,0.247,0.265-0.021,0.413c-2.018,1.129-4.032,2.268-6.052,3.403
					C19.614,8.783,19.591,8.771,19.556,8.762z"/>
				<path fill="#07096D" d="M19.56,20.796c0.476,0.267,0.898,0.504,1.323,0.744c1.517,0.866,3.035,1.729,4.548,2.604
					c0.132,0.077,0.487,0.087,0.188,0.407c-1.69,1.831-3.704,3.17-6.057,4.054C19.56,25.995,19.56,23.434,19.56,20.796z"/>
				<path fill="#EC1D25" d="M10.79,19.045c-0.812,0.467-1.476,0.849-2.141,1.229c-1.712,0.98-3.431,1.954-5.133,2.952
					c-0.337,0.196-0.505,0.162-0.721-0.16c-0.646-0.959-0.659-0.95,0.352-1.526c1.287-0.736,2.576-1.461,3.855-2.209
					c0.339-0.199,0.673-0.305,1.072-0.293C8.92,19.059,9.768,19.045,10.79,19.045z"/>
				<path fill="#EC1D25" d="M19.736,10.129c1.609-0.912,3.221-1.83,4.829-2.742c0.612-0.349,1.229-0.678,1.831-1.046
					c0.255-0.155,0.371-0.101,0.535,0.131c0.736,1.042,0.744,1.036-0.352,1.666c-0.824,0.47-1.673,0.903-2.468,1.421
					c-0.777,0.508-1.578,0.765-2.513,0.674c-0.603-0.059-1.216-0.011-1.824-0.011C19.766,10.192,19.75,10.16,19.736,10.129z"/>
				<path fill="#EC1D25" d="M22.279,19.045c0.983,0,1.962-0.005,2.941,0.006c0.127,0.002,0.261,0.058,0.373,0.121
					c0.747,0.416,1.485,0.85,2.233,1.258c0.229,0.125,0.274,0.237,0.165,0.485c-0.511,1.177-0.503,1.183-1.611,0.56
					c-1.293-0.728-2.582-1.457-3.871-2.188C22.425,19.235,22.275,19.244,22.279,19.045z"/>
				<path fill="#EC1D25" d="M7.083,10.22c-0.932,0-1.865-0.002-2.796,0.004c-0.197,0.003-0.37-0.046-0.539-0.145
					C3.124,9.721,2.491,9.372,1.865,9.011C1.731,8.935,1.499,8.893,1.617,8.653c0.186-0.374,0.385-0.741,0.587-1.108
					c0.112-0.201,0.248-0.08,0.377-0.008c1.511,0.865,3.021,1.728,4.534,2.593C7.105,10.16,7.093,10.192,7.083,10.22z"/>
				<g>
					<path fill="#E00208" d="M18.878,11.583c3.212,0.006,6.423,0.006,9.636,0.002c0.18,0,0.384,0.064,0.534-0.106
						c-0.073-0.016-0.147-0.042-0.22-0.042c-3.509,0.002-7.014,0.004-10.523,0.008C18.452,11.674,18.683,11.583,18.878,11.583z"/>
					<path fill="#E00208" d="M29.048,11.478c-0.15,0.172-0.355,0.105-0.534,0.105c-3.213,0.004-6.424,0.004-9.636-0.002
						c-0.194,0-0.426,0.093-0.572-0.138c-0.02-0.032-0.039-0.062-0.059-0.093c0.006-3.461,0.012-6.923,0.014-10.387
						c0-0.156,0.067-0.364-0.198-0.394c-1.604-0.43-3.235-0.403-4.868-0.243c-0.439,0.043-0.902,0.034-1.3,0.282
						c-0.014,0.587-0.04,1.172-0.038,1.76c0.004,2.959,0.017,5.922,0.025,8.88c-0.069,0.071-0.141,0.141-0.209,0.209
						c-3.583-0.008-7.165-0.016-10.747-0.022c-0.117-0.002-0.232,0.004-0.254,0.155c-0.481,1.88-0.48,3.775-0.163,5.678
						c0.087,0.042,0.152,0.087,0.027,0.166c0.016,0.071,0.031,0.143,0.047,0.212c0.036,0.037,0.071,0.073,0.106,0.11
						c0.21,0.01,0.419,0.025,0.627,0.025c3.314,0.002,6.629,0,9.942,0.004c0.205,0,0.421-0.062,0.611,0.072
						c-0.006,3.622-0.008,7.244-0.021,10.866c-0.002,0.321,0.146,0.392,0.409,0.382c0.477,0.166,0.969,0.219,1.471,0.19
						c0.723-0.17,1.445-0.176,2.167,0.004c0.755,0.017,1.49-0.095,2.208-0.321c0.231-0.043,0.156-0.23,0.156-0.363
						c0-3.58-0.006-7.156-0.012-10.734l0.049-0.013l0.011-0.049c3.412,0.004,6.82-0.007,10.23,0.022
						c0.511,0.004,0.747-0.126,0.707-0.647c0.179-0.782,0.239-1.582,0.227-2.378C29.452,13.695,29.467,12.556,29.048,11.478z"/>
				</g>
			</g>
		</g>
	</g>
</g>
</svg>
