<?xml version="1.0" encoding="utf-8"?>
<!-- Generator: Adobe Illustrator 16.0.0, SVG Export Plug-In . SVG Version: 6.00 Build 0)  -->
<!DOCTYPE svg PUBLIC "-//W3C//DTD SVG 1.1//EN" "http://www.w3.org/Graphics/SVG/1.1/DTD/svg11.dtd">
<svg version="1.1" id="Layer_1" xmlns="http://www.w3.org/2000/svg" xmlns:xlink="http://www.w3.org/1999/xlink" x="0px" y="0px"
	 width="30px" height="30px" viewBox="0 0 30 30" enable-background="new 0 0 30 30" xml:space="preserve">
<g id="Layer_2">
	<g>
		<g>
			<defs>
				<circle id="SVGID_1_" cx="15.052" cy="14.948" r="14.115"/>
			</defs>
			<clipPath id="SVGID_2_">
				<use xlink:href="#SVGID_1_"  overflow="visible"/>
			</clipPath>
			<g clip-path="url(#SVGID_2_)">
				<g>
					<path fill="#FCC506" d="M0.133,16.934c0-1.244,0-2.489,0-3.732c0.249-0.23,0.211-0.555,0.265-0.844
						c0.319-1.698,0.896-3.296,1.811-4.767C2.453,7.599,2.697,7.615,2.94,7.615c7.195,0.001,14.391,0.002,21.585-0.001
						c1.178-0.001,2.354-0.023,3.529-0.036c0.385,0.538,0.658,1.131,0.881,1.751c-0.123,0.357-0.533,0.475-0.688,0.775
						c-0.284,0.556-1.229,0.743-0.915,1.628c-0.251,0.127-0.661-0.01-0.741,0.384c-0.036,0.173,0.144,0.367,0.323,0.335
						c0.385-0.068,0.381-0.418,0.419-0.719c0.146,0.001,0.308,0.116,0.435-0.017c0.515-0.539,1.086-1.029,1.424-1.713
						c0.115,0.31,0.254,0.612,0.338,0.93c0.215,0.796,0.404,1.599,0.604,2.399c0,1.2,0,2.399,0,3.601
						c-0.187,0.077-0.13,0.256-0.157,0.396c-0.162,0.812-0.254,1.638-0.613,2.396c-0.16,0.104-0.168,0.262-0.143,0.428l0.006-0.012
						c-0.11,0.084-0.139,0.199-0.129,0.329c-0.214,0.787-0.574,1.507-1.016,2.187c-6.971-0.002-13.939-0.018-20.908,0
						C5.54,22.661,3.9,22.514,2.271,22.779c-0.625-0.875-0.951-1.887-1.352-2.868C0.528,18.949,0.519,17.893,0.133,16.934z
						 M15.568,15.752c-0.111-0.055-0.223-0.109-0.334-0.164c0.001-0.233,0.001-0.467,0.002-0.701
						c0.247-0.62-0.003-1.245,0.068-1.883c-0.967,0.324-1.226,0.656-1.145,1.557c0.054,0.603-0.04,1.025-0.816,0.978
						c0-0.296,0-0.604,0-0.912c0-0.934,0.001-0.953-0.916-1.022c-0.443-0.034-0.273-0.208-0.144-0.404
						c0.398-0.104,0.793,0.239,1.304,0.011c-0.599-0.196-0.693-0.395-0.225-0.776c0.489-0.397,0.479-1.022,0.12-1.463
						c-0.154-0.19-0.427-0.044-0.514-0.226c-0.327-0.69-0.406-0.164-0.519,0.102c-0.084,0.2-0.143,0.396-0.411,0.208
						c0.199-0.493-0.173-0.388-0.427-0.407c-0.164-0.248-0.439-0.3-0.693-0.353c-0.954-0.196-1.086-0.082-0.968,0.777
						c-0.371-0.089-0.528,0.691-0.988,0.243c-0.172-0.112-0.323-0.224-0.264-0.478c0.046-0.201-0.096-0.28-0.272-0.285
						C7.85,10.54,7.355,10.781,7.07,11.245c-0.237,0.386,0.003,0.786,0.29,1.111c0.133,0.151,0.259,0.305,0.467,0.355
						c0.12,0.092,0.245,0.178,0.357,0.278c0.139,0.125,0.373,0.222,0.285,0.458c-0.075,0.201-0.297,0.124-0.463,0.146
						c-0.27,0.036-0.571-0.107-0.803,0.143c-0.002,0.375-0.006,0.749-0.007,1.123c-0.003,0.793-0.128,0.875-0.927,0.605
						c-0.011-0.342-0.021-0.684-0.032-1.026c0.402-0.452,0.108-0.921-0.051-1.321c-0.126-0.319-0.69-0.294-0.751-0.059
						c-0.112,0.431-0.531,0.91-0.079,1.39c-0.029,0.072-0.059,0.145-0.087,0.217c-0.083,0.228-0.062,0.458-0.024,0.689
						c0.004,0.078,0.009,0.156,0.013,0.234c-0.041,0.043-0.081,0.086-0.122,0.129c-0.281-0.016-0.479,0.189-0.503,0.389
						c-0.027,0.229,0.25,0.131,0.401,0.154c0.059,0.178,0.117,0.354,0.176,0.532c0.042,0.183,0.085,0.366,0.128,0.549
						c-0.063,0.244-0.712,0.06-0.415,0.566c0.115,0.157,0.291,0.278,0.283,0.505c0.117,0.629-0.149,1.184-0.345,1.752
						c-0.037,0.154-0.075,0.322,0.144,0.363c0.558,0.103,1.108,0.088,1.623-0.182c0.079-0.041,0.048-0.156-0.017-0.23
						c-0.062-0.319-0.131-0.637-0.352-0.895c0-0.568,0.001-1.135,0.002-1.701c0.585-0.531,0.59-0.73,0.022-1.065
						c-0.005-0.106-0.01-0.213-0.015-0.318c0.964-0.022,0.979-0.01,0.944,0.876C7.208,17.393,7.191,17.77,7.2,18.146
						c0.014,0.608-0.133,1.256,0.374,1.762c0.059,0.072,0.117,0.145,0.176,0.217c0.063,0.195,0.212,0.261,0.403,0.264
						c0.12,0.006,0.24,0.01,0.36,0.016c0.402,0.051,0.709,0.398,1.14,0.359c0.465-0.062,0.972,0.213,1.398-0.173
						c0.13-0.017,0.26-0.043,0.391-0.049c1.228-0.058,1.842-0.687,1.854-1.901c0.005-0.508,0.018-1.014,0.027-1.521
						c0.057-1.02,0.17-1.12,0.922-0.812c0.004,0.034-0.003,0.067-0.021,0.1c-0.131,0.137-0.379,0.154-0.403,0.4
						c-0.094,0.127-0.098,0.256,0,0.383c0.03,0.012,0.046,0.031,0.048,0.062c0.374,0.661,0.229,1.391,0.273,2.094
						c-0.178,0.342-0.391,0.67-0.407,1.07c-0.004,0.104-0.006,0.243,0.117,0.271c0.174,0.039,0.144-0.185,0.254-0.24
						c0.038,0.111,0.101,0.197,0.229,0.214c0.267,0.099,0.534,0.177,0.802,0.002l-0.003-0.004c0.187,0.036,0.406,0.164,0.546-0.025
						c0.117-0.157,0.123-0.448-0.015-0.551c-0.32-0.235-0.268-0.632-0.482-0.897c0.019-0.099,0.037-0.195,0.056-0.293
						c0.059-0.072,0.037-0.138-0.021-0.197c0.026-0.229-0.136-0.459,0.014-0.685c0.253-0.222,0.055,0.446,0.312,0.164
						c0.127-0.141,0.421-0.286,0.167-0.534c-0.136-0.135-0.333-0.207-0.503-0.307c0.019-0.186-0.052-0.389,0.117-0.539
						C15.904,16.562,15.986,16.206,15.568,15.752z M27.467,20.4c0.057,0.308,0.262,0.492,0.495,0.25
						c0.392-0.401,0.97-0.633,1.162-1.227c0.032-0.098,0.153-0.175,0.099-0.294c-0.193-0.407-0.414-0.771-0.926-0.856
						c-0.707-0.121-1.089,0.346-1.384,0.822c-0.185,0.297-0.319,0.756,0.153,1.036C27.107,20.359,27.271,20.4,27.467,20.4z
						 M20.398,10.399L20.4,10.4c-0.152-0.562-0.656-0.83-1.133-0.604c-0.213,0.101-0.293,0.324-0.447,0.479
						c-0.756,0.767-0.73,1.107,0.062,1.863c0.33,0.316,0.683,0.238,0.853-0.025c0.246-0.38,0.568-0.656,0.863-0.978
						C20.844,10.864,20.917,10.523,20.398,10.399z M3.333,10.132l0.001,0.002C3.066,9.658,2.6,9.817,2.278,9.928
						c-0.43,0.147-0.793,0.5-0.923,0.974c-0.131,0.481,0.237,1.134,0.712,1.297c0.486,0.167,0.72-0.216,0.964-0.518
						c0.092-0.114,0.1-0.313,0.286-0.327c0.333-0.025,0.56-0.178,0.588-0.514C3.938,10.444,3.616,10.294,3.333,10.132z
						 M20.646,18.598c0.014-0.178-0.065-0.299-0.223-0.373c-0.169-0.08-0.285,0.01-0.421,0.103c-0.403,0.274-0.56,0.784-0.995,1.032
						c-0.259,0.146-0.402,0.41-0.184,0.651c0.199,0.22,0.486,0.16,0.707-0.057c0.283-0.278,0.564-0.558,0.848-0.835
						C20.525,18.975,20.613,18.799,20.646,18.598z M3.724,18.557c-0.011-0.158-0.034-0.326-0.17-0.412
						c-0.21-0.136-0.324,0.082-0.437,0.187c-0.369,0.34-0.706,0.714-1.075,1.056c-0.196,0.182-0.375,0.358-0.146,0.603
						c0.226,0.239,0.468,0.176,0.677-0.063c0.29-0.33,0.585-0.656,0.955-0.904C3.69,18.91,3.735,18.742,3.724,18.557z
						 M13.692,13.884c0.114,0.017,0.147-0.047,0.147-0.112c0-0.06-0.021-0.156-0.06-0.173c-0.116-0.051-0.151,0.046-0.149,0.135
						C13.632,13.79,13.675,13.844,13.692,13.884z M10.097,10.049c-0.013-0.007-0.026-0.015-0.039-0.022
						c-0.001,0.027-0.002,0.055-0.003,0.083c0.013-0.007,0.031-0.01,0.039-0.021C10.101,10.081,10.096,10.063,10.097,10.049z"/>
					<path fill="#C20B1A" d="M28.055,7.578c-1.176,0.012-2.352,0.035-3.527,0.036C17.331,7.617,10.136,7.616,2.94,7.615
						c-0.244,0-0.487-0.016-0.731-0.025c0.668-1.226,1.502-2.316,2.528-3.275c2.016-1.886,4.344-3.164,7.033-3.803
						c0.521-0.124,1.087-0.072,1.563-0.379c0.044,0,0.089,0,0.133,0c0.178,0.215,0.355,0.143,0.533,0c0.978,0,1.956,0,2.935,0
						c0.043,0.042,0.082,0.114,0.129,0.12c1.36,0.167,2.666,0.543,3.92,1.08C24.025,2.634,26.411,4.688,28.055,7.578z"/>
					<path fill="#C20B1A" d="M2.271,22.779c1.628-0.266,3.269-0.118,4.903-0.122c6.969-0.019,13.938-0.003,20.908,0
						c-1.961,3.395-4.84,5.644-8.562,6.812c-0.89,0.279-1.812,0.446-2.72,0.665c-1.2,0-2.4,0-3.6,0
						c-0.158-0.239-0.433-0.188-0.65-0.227c-0.941-0.159-1.858-0.402-2.742-0.751C6.581,27.88,4.012,25.816,2.271,22.779z"/>
					<path fill="#FDFCFB" d="M16.8,30.134c0.907-0.219,1.83-0.386,2.72-0.665c3.724-1.168,6.603-3.417,8.562-6.812
						c0.441-0.681,0.802-1.399,1.016-2.187c0.116-0.082,0.127-0.203,0.129-0.33l-0.006,0.012c0.143-0.109,0.141-0.27,0.143-0.428
						c0.359-0.759,0.451-1.586,0.613-2.396c0.027-0.14-0.028-0.317,0.157-0.396c0,4.243-0.008,8.487,0.011,12.732
						c0.002,0.396-0.08,0.479-0.478,0.479C25.378,30.127,21.089,30.134,16.8,30.134z"/>
					<path fill="#FDFCFB" d="M2.271,22.779c1.741,3.037,4.31,5.101,7.537,6.377c0.884,0.349,1.801,0.592,2.742,0.751
						c0.217,0.036,0.492-0.013,0.65,0.227c-4.189,0-8.379-0.008-12.568,0.011c-0.416,0.002-0.511-0.095-0.509-0.51
						c0.017-4.234,0.01-8.468,0.01-12.701c0.385,0.959,0.395,2.017,0.787,2.979C1.32,20.893,1.646,21.904,2.271,22.779z"/>
					<path fill="#FDFCFB" d="M28.055,7.578c-1.644-2.89-4.027-4.944-7.07-6.245c-1.254-0.537-2.561-0.912-3.92-1.08
						c-0.049-0.006-0.088-0.079-0.131-0.12c4.244,0,8.488,0.007,12.733-0.011c0.397-0.002,0.479,0.08,0.478,0.478
						c-0.019,4.244-0.011,8.489-0.011,12.733c-0.2-0.8-0.39-1.603-0.604-2.399c-0.084-0.317-0.223-0.62-0.338-0.93
						c0-0.257-0.105-0.475-0.256-0.675C28.714,8.709,28.439,8.116,28.055,7.578z"/>
					<path fill="#FDFCFB" d="M13.333,0.133c-0.476,0.307-1.042,0.255-1.563,0.379C9.082,1.151,6.754,2.429,4.738,4.315
						C3.712,5.274,2.877,6.364,2.209,7.59c-0.915,1.471-1.492,3.069-1.811,4.767C0.344,12.645,0.382,12.97,0.133,13.2
						c0-4.189,0.007-8.379-0.011-12.568C0.12,0.216,0.216,0.121,0.632,0.123C4.866,0.14,9.1,0.133,13.333,0.133z"/>
					<path fill="#CAC6C7" d="M14,0.133c-0.178,0.143-0.355,0.215-0.533,0C13.645,0.133,13.822,0.133,14,0.133z"/>
					<path fill="#C20B1A" d="M8.513,20.402c-0.12-0.004-0.24-0.01-0.36-0.014c0.232-1.005,0.064-2.021,0.103-3.033
						c0.004-0.107-0.021-0.237-0.159-0.25c-0.183-0.017-0.205,0.135-0.211,0.267c-0.011,0.198,0.006,0.399-0.011,0.599
						c-0.063,0.717,0.146,1.449-0.125,2.154c-0.059-0.072-0.117-0.145-0.176-0.217c0.007-0.784,0.009-1.568,0.024-2.354
						c0.005-0.287-0.019-0.529-0.385-0.541c0.035-0.886,0.021-0.898-0.944-0.875c-0.188-0.009-0.377-0.016-0.566-0.021
						c0.039-0.458-0.353-0.303-0.568-0.396c0.041-0.044,0.082-0.087,0.122-0.13c0.337-0.042,0.675-0.083,1.013-0.125
						c0.799,0.271,0.924,0.188,0.927-0.605c0.001-0.375,0.005-0.749,0.007-1.123c1.023-0.06,2.046-0.066,3.07-0.013
						c-0.006,0.572-0.011,1.144-0.016,1.716c-0.002,0.198-0.025,0.379,0.238,0.469c0.504,0.172,0.66,0.605,0.725,1.086
						c0.692,0.176,1.407-0.036,2.101,0.124c-0.009,0.507-0.022,1.013-0.027,1.521c-0.012,1.215-0.626,1.846-1.854,1.901
						c-0.13,0.006-0.26,0.032-0.389,0.049c-0.467-0.157-0.519-0.667-0.817-0.968c0.008-0.354,0.025-0.707,0.021-1.061
						c-0.001-0.143,0.055-0.365-0.152-0.386c-0.272-0.024-0.206,0.228-0.22,0.388c-0.016,0.177,0.005,0.355-0.013,0.531
						c-0.015,0.15,0.051,0.368-0.215,0.377c-0.232-0.629,0.212-1.369-0.369-2.099c-0.178,0.819,0.044,1.522-0.257,2.163
						c-0.096-0.682-0.085-1.357-0.103-2.033c-0.005-0.191,0.134-0.523-0.201-0.531c-0.386-0.011-0.18,0.318-0.183,0.504
						C8.526,18.452,8.522,19.428,8.513,20.402z M12.397,17.598l0.007,0.008c0.014-0.082,0.084-0.224-0.009-0.232
						c-0.413-0.045-0.838-0.141-1.273,0.085c0.155,0.207,0.668-0.071,0.484,0.433c-0.16,0.436-0.353-0.298-0.515,0.053
						c-0.037,0.18,0.208,0.242,0.242,0.416c-0.47,0.017-0.47,0.017-0.524-0.377c-0.496,0.871-0.312,1.639,0.514,1.873
						c-0.34-0.447-0.004-0.605,0.257-0.851c0.074,0.3-0.053,0.576,0.154,0.838c0.26-0.229,0.036-0.565,0.211-0.813
						c0.157,0.14,0.28,0.262,0.416,0.367c0.105,0.082-0.225,0.348,0.129,0.306c0.212-0.025,0.355-0.204,0.276-0.372
						c-0.189-0.403,0.077-0.756,0.077-1.139C12.842,17.811,12.701,17.68,12.397,17.598z M8.981,16.489
						c0.242,0.061,0.603-0.009,0.496-0.274c-0.194-0.479-0.008-0.911-0.041-1.36c-0.022-0.313-0.675-0.893-0.795-0.742
						c-0.26,0.324-0.811,0.517-0.56,1.124c0.078,0.189,0.11,0.48,0.02,0.644c-0.441,0.793,0.058,0.682,0.539,0.592
						C8.751,16.45,8.852,16.42,8.981,16.489z M10.678,16.818c-0.011-0.334-0.073-0.594-0.439-0.559
						c-0.433,0.043-0.604,0.35-0.602,0.742c0.001,0.361,0.147,0.708,0.553,0.698C10.832,17.686,10.442,17.055,10.678,16.818z"/>
					<path fill="#B4981E" d="M10.275,13.724c-1.023-0.053-2.047-0.046-3.07,0.013c0.231-0.25,0.533-0.107,0.803-0.143
						c0.166-0.022,0.388,0.055,0.463-0.146c0.088-0.236-0.146-0.333-0.285-0.458c-0.112-0.101-0.238-0.186-0.357-0.279l0.037-0.045
						c0.208,0.028,0.417,0.056,0.269-0.271l-0.003,0.006c0.369-0.132,0.531-0.443,0.704-0.802c0.006,0.301,0.492,0.263,0.386,0.621
						c-0.024,0.084-0.317,0.07-0.126,0.25c0.135,0.128,0.308,0.086,0.362-0.101c0.072-0.246,0.131-0.114,0.233-0.025
						c0.167,0.146,0.321,0.103,0.44-0.078l0.005-0.004c0.089,0.002,0.178,0.005,0.267,0.007l-0.008-0.006
						c0.04,0.133,0.113,0.235,0.267,0.184c0.15-0.05,0.136-0.193,0.141-0.319l-0.006,0.008c0.089-0.001,0.179-0.002,0.269-0.003
						c-0.125,0.294,0.02,0.342,0.287,0.418c0.439,0.125,0.891-0.06,1.315,0.113c-0.111,0.19-0.403,0.251-0.383,0.535
						c-0.13,0.197-0.3,0.371,0.144,0.404c0.917,0.07,0.916,0.089,0.916,1.022c0,0.308,0,0.616,0,0.912
						c0.776,0.047,0.87-0.375,0.816-0.978c-0.081-0.901,0.178-1.233,1.145-1.557c-0.072,0.639,0.179,1.264-0.068,1.884
						c-0.022-0.375-0.269-0.375-0.556-0.356c-0.338,0.022-0.28,0.256-0.302,0.47c-0.029,0.28,0.084,0.508,0.224,0.732
						c0.004,0.127,0.008,0.254,0.012,0.381c-0.123,0.062-0.246,0.127-0.369,0.188C13.493,16,13.38,16.1,13.323,17.12
						c-0.693-0.16-1.408,0.052-2.101-0.124c0.508,0.001,1.017-0.004,1.525,0.004c0.311,0.005,0.506-0.079,0.501-0.443
						c-0.011-0.795-0.01-1.592,0.002-2.387c0.005-0.373-0.166-0.51-0.523-0.499C11.909,13.696,11.092,13.707,10.275,13.724z
						 M11.022,13.152c-0.568,0.205-1.213-0.27-1.89,0.324C9.899,13.676,10.503,13.787,11.022,13.152z"/>
					<path fill="#B4981E" d="M8.513,20.402c0.009-0.976,0.013-1.95,0.031-2.926c0.003-0.186-0.203-0.515,0.183-0.504
						c0.335,0.008,0.196,0.34,0.201,0.531c0.018,0.676,0.007,1.354,0.103,2.033c0.301-0.641,0.079-1.344,0.257-2.163
						c0.581,0.729,0.137,1.47,0.369,2.099c0.266-0.009,0.2-0.227,0.215-0.377c0.018-0.176-0.002-0.354,0.013-0.531
						c0.014-0.16-0.053-0.412,0.22-0.388c0.207,0.021,0.15,0.243,0.152,0.386c0.004,0.354-0.013,0.707-0.021,1.061
						c-0.284,0.09-0.39,0.395-0.615,0.533c-0.413,0.253-0.217,0.419,0.032,0.605C9.223,20.803,8.915,20.454,8.513,20.402z"/>
					<path fill="#F7C61E" d="M3.333,10.132c0.284,0.162,0.605,0.312,0.573,0.708c-0.028,0.336-0.254,0.489-0.588,0.514
						c-0.187,0.014-0.194,0.213-0.286,0.327c-0.244,0.302-0.478,0.684-0.964,0.518c-0.475-0.163-0.843-0.816-0.712-1.297
						c0.13-0.474,0.493-0.827,0.923-0.974c0.322-0.111,0.788-0.27,1.056,0.207C3.046,10.14,2.756,10.13,2.471,10.16
						c-0.146,0.015-0.377,0.193-0.185,0.275c0.3,0.127,0.578,0.447,0.874,0.391C3.479,10.766,3.281,10.374,3.333,10.132z
						 M1.856,10.783c-0.189,0.129-0.125,0.318-0.1,0.479c0.035,0.226,0.17,0.408,0.357,0.537c0.08,0.055,0.189,0.021,0.223-0.067
						c0.089-0.236-0.112-0.365-0.232-0.51C1.996,11.088,2.066,10.859,1.856,10.783z"/>
					<path fill="#F7C61E" d="M20.398,10.399c0.519,0.124,0.444,0.465,0.197,0.736c-0.294,0.321-0.617,0.598-0.863,0.978
						c-0.17,0.263-0.521,0.341-0.852,0.025c-0.792-0.756-0.816-1.096-0.061-1.863c0.152-0.155,0.234-0.377,0.447-0.479
						C19.743,9.571,20.246,9.839,20.398,10.399c-0.229-0.079-0.465-0.143-0.687-0.242c-0.173-0.078-0.334-0.175-0.446,0.054
						c-0.097,0.197,0.058,0.272,0.203,0.344c0.211,0.103,0.295,0.264,0.2,0.49c-0.052,0.126-0.127,0.253-0.278,0.25
						c-0.218-0.003-0.283-0.173-0.334-0.354c-0.074-0.268-0.277-0.354-0.41-0.11c-0.17,0.315,0.144,0.57,0.271,0.839
						c0.096,0.2,0.318,0.229,0.45,0.091C19.764,11.35,20.377,11.094,20.398,10.399z"/>
					<path fill="#F7C61E" d="M27.066,20.133c-0.474-0.279-0.338-0.738-0.153-1.035c0.295-0.479,0.677-0.943,1.384-0.822
						c0.512,0.086,0.732,0.449,0.926,0.855c0.055,0.119-0.065,0.196-0.099,0.294c-0.192,0.595-0.771,0.824-1.162,1.228
						c-0.233,0.24-0.438,0.057-0.495-0.252l0,0c0.44-0.004,0.654-0.234,0.666-0.666c0.438,0.01,0.713-0.305,0.693-0.635
						c-0.02-0.316-0.46-0.408-0.753-0.535c-0.121-0.054-0.279-0.015-0.351,0.111c-0.115,0.202,0.06,0.282,0.197,0.33
						c0.426,0.146,0.381,0.416,0.213,0.729c-0.23,0.129-0.412,0.117-0.527-0.158c-0.069-0.169-0.078-0.465-0.336-0.402
						c-0.267,0.064-0.188,0.355-0.201,0.566C27.062,19.87,27.066,20.003,27.066,20.133L27.066,20.133z"/>
					<path fill="#F7C61E" d="M12.285,13.201c-0.02-0.284,0.272-0.345,0.383-0.535l-0.003,0.002c0.357-0.043,0.362-0.327,0.401-0.587
						c-0.028-0.137,0.181-0.336-0.116-0.402c-0.35-0.078-0.674-0.276-1.053-0.218c0.048-0.134,0.096-0.269,0.144-0.403
						c0.268,0.188,0.327-0.008,0.411-0.208c0.113-0.266,0.192-0.792,0.519-0.102c0.086,0.182,0.359,0.036,0.514,0.226
						c0.358,0.441,0.369,1.066-0.12,1.463c-0.469,0.381-0.374,0.581,0.225,0.776C13.079,13.439,12.684,13.097,12.285,13.201z"/>
					<path fill="#C20B1A" d="M10.132,12.267c-0.12,0.18-0.274,0.223-0.44,0.078c-0.102-0.089-0.161-0.221-0.233,0.025
						c-0.055,0.188-0.227,0.229-0.362,0.101c-0.191-0.181,0.102-0.166,0.126-0.25c0.106-0.357-0.38-0.319-0.386-0.621
						c-0.172,0.358-0.335,0.669-0.704,0.802c-0.271-0.221-0.924-0.126-0.653-0.793c0.301-0.085,0.603-0.171,0.904-0.256
						c0.194-0.012,0.388-0.024,0.582-0.036c0.459,0.449,0.616-0.332,0.987-0.243c-0.029,0.252,0.135,0.531-0.054,0.754
						C9.578,12.204,9.933,12.187,10.132,12.267z"/>
					<path fill="#F7C61E" d="M28.936,9.329c0.15,0.201,0.258,0.418,0.258,0.675c-0.338,0.684-0.91,1.174-1.424,1.713
						c-0.127,0.133-0.289,0.018-0.436,0.017l-0.001-0.001c-0.315-0.885,0.631-1.073,0.915-1.628
						C28.402,9.804,28.812,9.687,28.936,9.329z"/>
					<path fill="#F7C61E" d="M20.646,18.598c-0.033,0.201-0.121,0.377-0.268,0.521c-0.283,0.277-0.564,0.557-0.848,0.835
						c-0.221,0.217-0.508,0.274-0.707,0.057c-0.221-0.241-0.075-0.506,0.184-0.651c0.438-0.248,0.592-0.758,0.995-1.032
						c0.136-0.093,0.252-0.183,0.421-0.103C20.581,18.299,20.66,18.42,20.646,18.598z"/>
					<path fill="#F7C61E" d="M3.724,18.557c0.011,0.187-0.033,0.354-0.195,0.463c-0.37,0.248-0.665,0.573-0.955,0.904
						c-0.209,0.239-0.451,0.305-0.677,0.062c-0.229-0.242-0.05-0.42,0.146-0.602c0.369-0.342,0.706-0.716,1.075-1.056
						c0.113-0.104,0.227-0.321,0.437-0.187C3.69,18.23,3.713,18.398,3.724,18.557z"/>
					<path fill="#B4981E" d="M5.357,14.45c-0.452-0.479-0.033-0.958,0.079-1.39c0.062-0.236,0.625-0.261,0.751,0.059
						c0.159,0.4,0.453,0.87,0.05,1.321C5.944,14.443,5.651,14.446,5.357,14.45z"/>
					<path fill="#CAC6C7" d="M6.263,17.521c0,0.567-0.001,1.135-0.002,1.701c-0.627,0.09-1.035-0.105-1.054-0.809
						c0.008-0.227-0.168-0.348-0.283-0.505C5.402,17.893,5.826,17.686,6.263,17.521z"/>
					<path fill="#B4981E" d="M15.184,19.186c0.214,0.267,0.162,0.662,0.482,0.897c0.137,0.103,0.131,0.394,0.016,0.551
						c-0.141,0.189-0.36,0.062-0.547,0.025c0.119-0.14,0.418-0.095,0.395-0.377c-0.014-0.146-0.106-0.269-0.243-0.271
						c-0.373-0.011-0.751-0.024-1.117,0.033c-0.26,0.042-0.18,0.245-0.062,0.403c-0.11,0.057-0.081,0.279-0.254,0.24
						c-0.123-0.028-0.121-0.168-0.117-0.271c0.016-0.4,0.229-0.729,0.407-1.07c0.083-0.057,0.167-0.113,0.25-0.17
						C14.656,19.18,14.919,19.182,15.184,19.186z"/>
					<path fill="#B4981E" d="M10.132,12.267c-0.199-0.081-0.554-0.063-0.234-0.439c0.189-0.223,0.025-0.502,0.054-0.754
						c-0.118-0.859,0.015-0.973,0.968-0.777c0.254,0.052,0.529,0.104,0.693,0.353l-0.023,0.026
						c-0.197-0.018-0.395-0.039-0.592-0.053c-0.336-0.024-0.511,0.104-0.428,0.466c-0.049,0.131,0.01,0.309-0.167,0.384
						c-0.041-0.094-0.047-0.217-0.18-0.237c-0.016-0.002-0.059,0.055-0.058,0.083c0.007,0.157,0.152,0.111,0.238,0.153
						c-0.039,0.321,0.318,0.411,0.392,0.666l0.006-0.008c-0.136,0.045-0.272,0.09-0.408,0.135l0.008,0.006
						c-0.035-0.088-0.013-0.236-0.16-0.212c-0.045,0.007-0.072,0.133-0.107,0.205L10.132,12.267z"/>
					<path fill="#C20B1A" d="M15.21,17.334c0.17,0.1,0.367,0.172,0.503,0.307c0.254,0.248-0.04,0.395-0.167,0.534
						c-0.258,0.282-0.059-0.386-0.312-0.164c-0.266-0.122-0.493-0.36-0.827-0.286c-0.095-0.254-0.344-0.33-0.538-0.473
						c-0.002-0.031-0.019-0.052-0.048-0.062c0-0.127,0-0.256,0-0.383c0.024-0.246,0.272-0.265,0.403-0.4
						C14.363,16.917,14.59,17.334,15.21,17.334z"/>
					<path fill="#B4981E" d="M7.75,20.125c0.271-0.705,0.062-1.438,0.125-2.154c0.018-0.199,0-0.398,0.011-0.599
						c0.007-0.132,0.029-0.282,0.211-0.267c0.138,0.013,0.163,0.143,0.159,0.25c-0.039,1.012,0.129,2.028-0.103,3.033
						C7.962,20.386,7.813,20.32,7.75,20.125z"/>
					<path fill="#B4981E" d="M5.207,18.415c0.019,0.702,0.426,0.897,1.054,0.808c0.221,0.26,0.29,0.576,0.351,0.896
						c-0.587-0.129-1.172-0.172-1.749,0.049C5.058,19.6,5.324,19.044,5.207,18.415z"/>
					<path fill="#B4981E" d="M7.479,11.609c-0.271,0.667,0.382,0.572,0.653,0.793l0.003-0.006c-0.09,0.09-0.179,0.181-0.269,0.271
						L7.83,12.711c-0.208-0.05-0.334-0.204-0.467-0.354c-0.287-0.326-0.527-0.725-0.29-1.111c0.285-0.465,0.781-0.706,1.356-0.691
						c0.176,0.005,0.318,0.083,0.272,0.285c-0.059,0.253,0.092,0.365,0.265,0.478c-0.194,0.012-0.388,0.024-0.582,0.036
						c0.063-0.34-0.057-0.525-0.421-0.462C7.562,10.96,7.312,11.15,7.479,11.609z"/>
					<path fill="#CAC6C7" d="M9.653,20.764c-0.249-0.188-0.445-0.354-0.032-0.606c0.226-0.14,0.331-0.443,0.615-0.533
						c0.298,0.301,0.35,0.812,0.817,0.968C10.625,20.977,10.118,20.702,9.653,20.764z M10.174,20.105
						c0.04,0.052,0.057,0.1,0.087,0.107c0.084,0.027,0.112-0.038,0.111-0.104c0-0.03-0.049-0.09-0.058-0.086
						C10.266,20.042,10.223,20.075,10.174,20.105z"/>
					<path fill="#CAC6C7" d="M14.407,17.725c0.334-0.074,0.561,0.164,0.827,0.286c-0.15,0.226,0.012,0.456-0.014,0.685
						c0.006,0.064,0.013,0.131,0.02,0.197c-0.019,0.098-0.037,0.194-0.056,0.293c-0.264-0.004-0.528-0.006-0.792-0.009
						C14.397,18.691,14.402,18.208,14.407,17.725z"/>
					<path fill="#CAC6C7" d="M5.357,14.45c0.294-0.003,0.587-0.007,0.881-0.01c0.011,0.342,0.022,0.684,0.033,1.026
						c-0.337,0.041-0.675,0.083-1.013,0.125c-0.004-0.077-0.008-0.156-0.013-0.234c0.108-0.226,0.039-0.458,0.024-0.689
						C5.298,14.595,5.328,14.522,5.357,14.45z"/>
					<path fill="#B4981E" d="M7.213,17.016c0.366,0.012,0.39,0.254,0.385,0.541c-0.016,0.783-0.017,1.567-0.024,2.353
						c-0.506-0.507-0.359-1.152-0.374-1.763C7.191,17.77,7.208,17.393,7.213,17.016z"/>
					<path fill="#CAC6C7" d="M15.21,17.334c-0.62,0-0.847-0.417-0.985-0.93c0.018-0.03,0.024-0.063,0.021-0.1
						c0.123-0.062,0.246-0.125,0.369-0.188c0.077,0.006,0.154,0.011,0.23,0.017c0.058,0.006,0.116,0.012,0.173,0.018
						c0.097-0.015,0.194-0.027,0.291-0.043c0.298,0.223-0.094,0.461,0.018,0.688C15.158,16.945,15.229,17.148,15.21,17.334z"/>
					<path fill="#CAC6C7" d="M5.704,16.117c0.188,0.007,0.377,0.014,0.566,0.021c0.005,0.104,0.01,0.211,0.015,0.317
						c0.022,0.655-0.466,0.769-0.946,0.887c-0.042-0.183-0.085-0.366-0.128-0.549c0.136-0.224-0.021-0.632,0.418-0.664l0.04,0.007
						L5.704,16.117z"/>
					<path fill="#C20B1A" d="M5.338,17.344c0.48-0.119,0.968-0.23,0.946-0.887c0.568,0.335,0.563,0.534-0.022,1.064
						c-0.437,0.162-0.86,0.369-1.339,0.389C4.626,17.402,5.275,17.588,5.338,17.344z"/>
					<path fill="#CAC6C7" d="M4.862,20.167c0.577-0.222,1.162-0.178,1.749-0.049c0.066,0.073,0.096,0.188,0.018,0.229
						c-0.514,0.271-1.065,0.284-1.623,0.182C4.788,20.489,4.825,20.322,4.862,20.167z M5.801,20.334
						c-0.007-0.007-0.013-0.018-0.02-0.018c-0.04-0.002-0.081-0.01-0.118,0c-0.056,0.014-0.047,0.031,0.023,0.029
						C5.724,20.346,5.763,20.339,5.801,20.334z"/>
					<path fill="#CAC6C7" d="M14.602,15.734c-0.139-0.224-0.252-0.451-0.223-0.731c0.022-0.214-0.036-0.448,0.302-0.47
						c0.287-0.019,0.534-0.019,0.556,0.356c-0.001,0.233-0.001,0.466-0.002,0.7C15.026,15.65,14.767,15.49,14.602,15.734z"/>
					<path fill="#CAC6C7" d="M14.106,20.447c-0.118-0.158-0.198-0.361,0.062-0.403c0.365-0.058,0.744-0.044,1.117-0.033
						c0.137,0.003,0.23,0.125,0.242,0.271c0.024,0.282-0.274,0.237-0.394,0.377l0.002,0.004c-0.267-0.147-0.534-0.104-0.802-0.002
						C14.207,20.645,14.144,20.561,14.106,20.447z"/>
					<path fill="#F7C61E" d="M14.407,17.725c-0.005,0.483-0.01,0.969-0.015,1.452c-0.083,0.056-0.167,0.112-0.25,0.169
						c-0.044-0.703,0.101-1.433-0.272-2.094C14.063,17.395,14.312,17.471,14.407,17.725z"/>
					<path fill="#B4981E" d="M12.041,11.056c-0.048,0.135-0.096,0.269-0.144,0.404c-0.309,0.314,0.114,0.533,0.158,0.832
						c-0.311,0.046-0.375-0.28-0.594-0.288c0.095-0.209,0.119-0.429,0.091-0.655c0.183-0.154,0.206-0.321,0.043-0.505
						c-0.001-0.056-0.002-0.112-0.003-0.168l0.023-0.026C11.868,10.668,12.24,10.563,12.041,11.056z"/>
					<path fill="#F7C61E" d="M27.334,11.734c-0.038,0.301-0.034,0.651-0.419,0.719c-0.181,0.032-0.358-0.163-0.323-0.335
						C26.672,11.723,27.082,11.86,27.334,11.734L27.334,11.734z"/>
					<path fill="#B4981E" d="M5.704,16.117l-0.035,0.021l-0.04-0.008c-0.33-0.549-0.386,0.139-0.595,0.133
						c-0.152-0.023-0.428,0.073-0.401-0.156c0.023-0.198,0.222-0.403,0.503-0.387C5.351,15.814,5.742,15.66,5.704,16.117z"/>
					<path fill="#B4981E" d="M15.327,16.795c-0.112-0.227,0.28-0.466-0.018-0.688c0.086-0.118,0.173-0.237,0.259-0.355
						C15.986,16.206,15.904,16.562,15.327,16.795z"/>
					<path fill="#C20B1A" d="M15.568,15.752c-0.086,0.119-0.173,0.237-0.259,0.355c-0.097,0.015-0.194,0.027-0.291,0.041
						c0.02-0.114,0.176-0.291,0.034-0.33c-0.196-0.055-0.209,0.156-0.208,0.313c-0.077-0.006-0.153-0.011-0.229-0.017
						c-0.004-0.127-0.008-0.254-0.012-0.381c0.165-0.245,0.424-0.084,0.632-0.146C15.346,15.643,15.457,15.697,15.568,15.752z"/>
					<path fill="#C20B1A" d="M5.034,16.264c0.209,0.006,0.265-0.682,0.595-0.133c-0.439,0.032-0.282,0.439-0.418,0.664
						C5.151,16.617,5.093,16.439,5.034,16.264z"/>
					<path fill="#F7C61E" d="M13.692,13.884c-0.018-0.04-0.061-0.094-0.062-0.15c-0.002-0.089,0.033-0.186,0.149-0.135
						c0.039,0.017,0.06,0.113,0.06,0.173C13.839,13.836,13.806,13.901,13.692,13.884z"/>
					<path fill="#B4981E" d="M14.335,20.661c0.268-0.104,0.535-0.146,0.802,0.002C14.869,20.838,14.602,20.76,14.335,20.661z"/>
					<path fill="#F7C61E" d="M27.467,20.4c-0.193,0-0.359-0.041-0.398-0.269l-0.002,0.001C27.259,20.134,27.427,20.171,27.467,20.4
						L27.467,20.4z"/>
					<path fill="#B4981E" d="M5.27,14.667c0.015,0.231,0.084,0.463-0.024,0.689C5.208,15.125,5.187,14.895,5.27,14.667z"/>
					<path fill="#F7C61E" d="M29.363,19.727c-0.002,0.157,0,0.316-0.145,0.428C29.195,19.986,29.202,19.83,29.363,19.727z"/>
					<path fill="#F7C61E" d="M13.821,16.807c0,0.127,0,0.256,0,0.383C13.723,17.062,13.727,16.934,13.821,16.807z"/>
					<path fill="#F7C61E" d="M29.227,20.143c-0.002,0.125-0.013,0.248-0.129,0.328C29.088,20.341,29.115,20.227,29.227,20.143z"/>
					<path fill="#B4981E" d="M15.239,18.893c-0.007-0.066-0.013-0.133-0.021-0.197C15.276,18.755,15.298,18.818,15.239,18.893z"/>
					<path fill="#B4981E" d="M10.097,10.049c0,0.014,0.004,0.031-0.002,0.04c-0.008,0.011-0.026,0.014-0.039,0.021
						c0.001-0.027,0.002-0.055,0.003-0.083C10.071,10.035,10.084,10.042,10.097,10.049z"/>
					<path fill="#CAC6C7" d="M10.275,13.724c0.817-0.017,1.634-0.028,2.452-0.054c0.358-0.011,0.529,0.126,0.523,0.499
						c-0.012,0.795-0.013,1.592-0.002,2.388c0.005,0.363-0.19,0.447-0.501,0.442c-0.508-0.008-1.017-0.003-1.525-0.004
						c-0.065-0.479-0.221-0.914-0.725-1.086c-0.263-0.091-0.24-0.272-0.238-0.469C10.264,14.868,10.269,14.296,10.275,13.724z"/>
					<path fill="#B4981E" d="M12.397,17.598c0.304,0.082,0.445,0.213,0.445,0.594c0,0.382-0.266,0.733-0.077,1.138
						c0.079,0.168-0.064,0.347-0.276,0.372c-0.354,0.042-0.023-0.223-0.129-0.305c-0.136-0.106-0.259-0.229-0.416-0.369
						c-0.175,0.248,0.049,0.587-0.211,0.814c-0.207-0.262-0.08-0.537-0.154-0.838c-0.261,0.244-0.597,0.402-0.257,0.852
						c-0.827-0.235-1.01-1.004-0.514-1.875c0.054,0.395,0.054,0.395,0.524,0.379c-0.035-0.174-0.279-0.237-0.242-0.418
						c0.162-0.35,0.355,0.384,0.515-0.053c0.184-0.503-0.329-0.225-0.484-0.432c0.435-0.225,0.861-0.13,1.273-0.085
						c0.094,0.01,0.023,0.149,0.009,0.231c-0.164,0.084-0.427-0.233-0.513,0.123c-0.014,0.059,0.069,0.199,0.105,0.198
						C12.205,17.921,12.366,17.83,12.397,17.598z M10.99,19.115c0.078-0.094,0.148-0.146,0.173-0.215
						c0.045-0.121-0.025-0.207-0.143-0.229c-0.081-0.014-0.188,0.01-0.167,0.123C10.87,18.895,10.931,18.982,10.99,19.115z"/>
					<path fill="#B4981E" d="M8.981,16.489c-0.129-0.069-0.23-0.039-0.342-0.019c-0.481,0.09-0.98,0.201-0.539-0.592
						c0.091-0.164,0.059-0.454-0.02-0.644c-0.251-0.607,0.3-0.799,0.56-1.124c0.121-0.15,0.773,0.429,0.795,0.742
						c0.033,0.449-0.154,0.881,0.041,1.36C9.584,16.48,9.223,16.55,8.981,16.489z"/>
					<path fill="#CAC6C7" d="M10.678,16.818c-0.235,0.234,0.154,0.867-0.488,0.883c-0.405,0.01-0.552-0.337-0.553-0.698
						c-0.001-0.394,0.169-0.698,0.602-0.742C10.604,16.225,10.667,16.484,10.678,16.818z"/>
					<path fill="#C20B1A" d="M11.461,12.004c0.22,0.008,0.284,0.334,0.594,0.288c-0.044-0.299-0.467-0.518-0.158-0.832
						c0.379-0.059,0.704,0.14,1.053,0.218c0.296,0.066,0.088,0.266,0.116,0.403c-0.065,0.243-0.984-0.098-0.401,0.587l0.003-0.002
						c-0.424-0.173-0.876,0.012-1.315-0.113c-0.267-0.076-0.412-0.124-0.287-0.418l0,0c0.158,0.022,0.404,0.305,0.403-0.137
						L11.461,12.004z"/>
					<path fill="#C20B1A" d="M11.551,11.349c0.029,0.227,0.004,0.446-0.09,0.655l0.009-0.008c-0.152-0.008-0.303-0.009-0.403,0.137
						l0,0c-0.09,0.001-0.18,0.002-0.269,0.003c-0.074-0.255-0.43-0.344-0.392-0.666l-0.001,0.001
						c0.177-0.075,0.118-0.253,0.167-0.384c0.244,0.047,0.488,0.094,0.732,0.141C11.387,11.269,11.469,11.309,11.551,11.349z"/>
					<path fill="#C20B1A" d="M11.022,13.152c-0.519,0.635-1.123,0.524-1.89,0.324C9.809,12.882,10.455,13.356,11.022,13.152z"/>
					<path fill="#C20B1A" d="M10.396,12.264c0.136-0.045,0.271-0.09,0.408-0.135c-0.004,0.125,0.01,0.269-0.141,0.319
						C10.509,12.5,10.436,12.397,10.396,12.264z"/>
					<path fill="#C20B1A" d="M7.867,12.667c0.089-0.09,0.179-0.181,0.269-0.271C8.284,12.723,8.075,12.694,7.867,12.667z"/>
					<path fill="#C20B1A" d="M10.138,12.263c0.035-0.072,0.062-0.198,0.107-0.205c0.147-0.023,0.125,0.124,0.16,0.212
						C10.315,12.268,10.227,12.266,10.138,12.263z"/>
					<path fill="#FCC506" d="M3.333,10.132c-0.052,0.242,0.146,0.633-0.173,0.694c-0.296,0.056-0.574-0.264-0.874-0.391
						c-0.192-0.082,0.039-0.26,0.185-0.275c0.286-0.03,0.575-0.02,0.863-0.025L3.333,10.132z"/>
					<path fill="#FCC506" d="M1.856,10.783c0.21,0.076,0.14,0.305,0.249,0.438c0.12,0.146,0.321,0.274,0.232,0.51
						c-0.033,0.089-0.143,0.122-0.223,0.067c-0.188-0.129-0.322-0.311-0.357-0.537C1.731,11.101,1.667,10.912,1.856,10.783z"/>
					<path fill="#FCC506" d="M20.398,10.399c-0.021,0.694-0.637,0.951-1.029,1.364c-0.131,0.137-0.355,0.108-0.45-0.091
						c-0.128-0.269-0.44-0.524-0.271-0.839c0.131-0.244,0.336-0.158,0.41,0.11c0.049,0.181,0.115,0.351,0.334,0.354
						c0.15,0.002,0.227-0.124,0.277-0.25c0.094-0.227,0.012-0.388-0.199-0.49c-0.146-0.071-0.301-0.147-0.203-0.344
						c0.111-0.229,0.272-0.132,0.445-0.054c0.221,0.1,0.457,0.164,0.688,0.243L20.398,10.399z"/>
					<path fill="#FCC506" d="M27.467,20.398c-0.04-0.229-0.208-0.266-0.4-0.266c0-0.131-0.004-0.264,0.004-0.395
						c0.014-0.211-0.065-0.502,0.199-0.566c0.258-0.062,0.268,0.232,0.338,0.402c0.115,0.275,0.297,0.287,0.526,0.158h-0.001
						C28.121,20.165,27.907,20.396,27.467,20.398z"/>
					<path fill="#FCC506" d="M28.134,19.732c0.168-0.312,0.212-0.58-0.213-0.728c-0.139-0.048-0.313-0.128-0.198-0.33
						c0.071-0.126,0.229-0.165,0.352-0.112c0.293,0.127,0.734,0.22,0.753,0.535C28.846,19.43,28.568,19.743,28.134,19.732
						L28.134,19.732z"/>
					<path fill="#B4981E" d="M12.665,12.667c-0.583-0.685,0.336-0.344,0.401-0.587C13.027,12.341,13.022,12.625,12.665,12.667z"/>
					<path fill="#F7C61E" d="M7.479,11.609c-0.167-0.459,0.082-0.648,0.482-0.718c0.365-0.063,0.484,0.122,0.421,0.462
						C8.082,11.438,7.781,11.523,7.479,11.609z"/>
					<path fill="#F7C61E" d="M11.304,11.229c-0.244-0.047-0.489-0.094-0.732-0.141c-0.083-0.362,0.092-0.49,0.428-0.466
						c0.197,0.014,0.395,0.035,0.592,0.053c0.001,0.056,0.002,0.112,0.003,0.168C11.498,10.972,11.401,11.101,11.304,11.229z"/>
					<path fill="#CAC6C7" d="M10.406,11.471c-0.086-0.042-0.231,0.003-0.238-0.153c-0.001-0.028,0.042-0.084,0.058-0.083
						C10.357,11.255,10.364,11.378,10.406,11.471L10.406,11.471z"/>
					<path fill="#B4981E" d="M10.174,20.105c0.049-0.03,0.091-0.063,0.14-0.082c0.009-0.004,0.058,0.057,0.058,0.086
						c0,0.065-0.027,0.132-0.111,0.104C10.231,20.205,10.214,20.157,10.174,20.105z"/>
					<path fill="#B4981E" d="M14.845,16.133c-0.002-0.158,0.011-0.367,0.208-0.314c0.142,0.039-0.015,0.217-0.034,0.332
						C14.96,16.145,14.903,16.139,14.845,16.133z"/>
					<path fill="#B4981E" d="M5.801,20.334c-0.039,0.005-0.077,0.012-0.115,0.014c-0.07,0-0.079-0.018-0.023-0.031
						c0.038-0.008,0.079-0.002,0.118,0C5.788,20.316,5.794,20.327,5.801,20.334z"/>
					<path fill="#FCC506" d="M11.304,11.229c0.097-0.128,0.194-0.257,0.291-0.385c0.163,0.184,0.14,0.351-0.043,0.505
						C11.469,11.309,11.387,11.269,11.304,11.229z"/>
					<path fill="#C20B1A" d="M12.397,17.598c-0.032,0.232-0.193,0.323-0.401,0.328c-0.036,0.001-0.119-0.141-0.105-0.197
						c0.085-0.357,0.349-0.041,0.513-0.123L12.397,17.598z"/>
					<path fill="#C20B1A" d="M10.99,19.115c-0.059-0.133-0.12-0.223-0.137-0.319c-0.02-0.114,0.087-0.137,0.167-0.123
						c0.118,0.021,0.188,0.106,0.143,0.229C11.138,18.971,11.068,19.021,10.99,19.115z"/>
					<path fill="#B4981E" d="M11.067,12.133c0.1-0.146,0.251-0.145,0.403-0.137C11.471,12.438,11.225,12.156,11.067,12.133z"/>
				</g>
			</g>
		</g>
	</g>
</g>
</svg>
