<?xml version="1.0" encoding="utf-8"?>
<!-- Generator: Adobe Illustrator 16.0.0, SVG Export Plug-In . SVG Version: 6.00 Build 0)  -->
<!DOCTYPE svg PUBLIC "-//W3C//DTD SVG 1.1//EN" "http://www.w3.org/Graphics/SVG/1.1/DTD/svg11.dtd">
<svg version="1.1" id="Layer_1" xmlns="http://www.w3.org/2000/svg" xmlns:xlink="http://www.w3.org/1999/xlink" x="0px" y="0px"
	 width="30px" height="30px" viewBox="0 0 30 30" enable-background="new 0 0 30 30" xml:space="preserve">
<g id="Layer_2">
	<g>
		<g>
			<defs>
				<circle id="SVGID_1_" cx="15.052" cy="14.948" r="14.115"/>
			</defs>
			<clipPath id="SVGID_2_">
				<use xlink:href="#SVGID_1_"  overflow="visible"/>
			</clipPath>
			<g clip-path="url(#SVGID_2_)">
				<path fill="#F68A8E" d="M5.209,3.183C6.011,2.467,6.924,1.91,7.827,1.336c0.126,0.279,0.261,0.071,0.396,0.008
					C9.09,0.947,9.96,0.565,10.877,0.29c1.81-0.541,3.663-0.682,5.537-0.67c0.369,0.088,0.791-0.269,1.124,0.13
					c0.082,0.037,0.16,0.09,0.245,0.107c1.359,0.27,2.665,0.705,3.939,1.249c0.491,0.209,0.866,0.677,1.459,0.656L23.18,1.76
					c-0.012,0.283,0.221,0.282,0.398,0.345c0.078-0.019,0.137,0,0.164,0.082c0.186,0.291,0.412,0.516,0.795,0.479l-0.002-0.002
					c0.038,0.375,0.26,0.502,0.611,0.455c0.041-0.002,0.062,0.016,0.065,0.056c0.252,0.664,0.761,1.083,1.358,1.412l-0.004-0.003
					c-0.017,0.17,0.062,0.245,0.229,0.229l-0.002-0.002c-0.01,0.122-0.021,0.244-0.028,0.365c-0.229-0.04-0.33-0.237-0.473-0.381
					c-0.71-0.725-1.418-1.453-2.251-2.045c-3.426-2.437-7.219-3.386-11.368-2.672c-3.74,0.644-6.839,2.458-9.186,5.456
					c-2.444,3.121-3.521,6.671-3.154,10.64c0.309,3.334,1.585,6.256,3.863,8.695c3.092,3.312,6.935,4.925,11.48,4.826
					c0.316-0.006,0.638-0.07,0.953,0.027c-0.096,0.248-0.313,0.16-0.483,0.164c-0.562,0.012-1.125,0-1.687,0.01
					c-0.151,0.002-0.355-0.088-0.415,0.164c-0.387,0.164-0.758-0.086-1.104-0.143c-1.966-0.312-3.861-0.938-5.553-2
					c-1.333-0.836-2.602-1.76-3.653-2.998c-1.18-1.389-2.126-2.887-2.793-4.561c-0.414-1.037-0.708-2.123-0.861-3.239
					c-0.02-0.142-0.009-0.339-0.174-0.442c0-0.076,0-0.15,0-0.227c0.111-0.865,0.166-1.731,0-2.597c0-0.301,0-0.603,0-0.904
					c0.375-0.575,0.296-1.268,0.462-1.897C0.78,9.491,1.372,8.036,2.238,6.676C2.68,5.983,3.16,5.326,3.688,4.7
					C4.31,4.31,4.817,3.803,5.209,3.183z"/>
				<path fill="#0E5EAE" d="M-0.093,13.854c0.166,0.866,0.111,1.732,0,2.597C-0.093,15.586-0.093,14.72-0.093,13.854z"/>
				<path fill="#F7565D" d="M14.046,30.061c0.059-0.252,0.264-0.162,0.415-0.164c0.562-0.01,1.123,0.002,1.686-0.01
					c0.17-0.004,0.39,0.084,0.484-0.164c0.076-0.004,0.152-0.009,0.229-0.014c0.188,0.141,0.404,0.084,0.601,0.051
					c2.11-0.354,4.087-1.076,5.894-2.24c0.188-0.121,0.367-0.268,0.615-0.223l0.02,0.021c-2.297,1.662-4.867,2.57-7.688,2.774
					C15.551,30.146,14.796,30.162,14.046,30.061z"/>
				<path fill="#F68A8E" d="M30.283,17.463c-0.006,0.042-0.01,0.084-0.014,0.127c-0.297,0.03-0.258,0.301-0.295,0.473
					c-0.322,1.47-0.834,2.861-1.601,4.16c-0.119,0.203-0.284,0.406-0.226,0.674l0.002-0.002c-0.346,0.099-0.457,0.351-0.452,0.681
					l0.002-0.001c-0.171-0.018-0.234,0.07-0.229,0.229l0.004-0.005c-0.145,0.077-0.287,0.155-0.432,0.231
					c-0.033-0.127,0.047-0.209,0.114-0.299c1.108-1.508,1.924-3.154,2.442-4.955c0.2-0.693,0.215-1.43,0.506-2.1
					C30.307,16.907,30.02,17.246,30.283,17.463z"/>
				<path fill="#F7565D" d="M16.414-0.38c-1.874-0.011-3.727,0.129-5.537,0.67C9.96,0.565,9.09,0.947,8.224,1.344
					C8.088,1.406,7.953,1.615,7.827,1.335c2.517-1.296,5.164-2.033,8.021-1.849C16.039-0.501,16.268-0.601,16.414-0.38z"/>
				<path fill="#F7565D" d="M30.283,17.463c-0.264-0.217,0.023-0.556-0.176-0.786c0.008-0.069,0.016-0.138,0.021-0.206
					c0.284-0.437,0.184-0.9,0.098-1.363c0-0.233,0-0.467,0-0.7c0.142-0.442,0.076-0.889,0.01-1.331
					c-0.125-0.833-0.27-1.662-0.403-2.493c0.024-0.02,0.049-0.04,0.071-0.06C30.596,12.805,30.693,15.12,30.283,17.463z"/>
				<path fill="#F7565D" d="M23.182,1.762c-0.592,0.021-0.967-0.447-1.457-0.656c-1.275-0.544-2.58-0.979-3.94-1.249
					c-0.086-0.017-0.164-0.07-0.246-0.107c0.696-0.141,1.329,0.137,1.964,0.328C20.803,0.469,22.081,0.927,23.182,1.762z"/>
				<path fill="#F7565D" d="M28.15,22.896c-0.061-0.269,0.104-0.472,0.225-0.674c0.766-1.3,1.277-2.691,1.6-4.16
					c0.039-0.174,0-0.442,0.297-0.474c-0.328,1.783-0.951,3.456-1.883,5.013C28.324,22.711,28.294,22.852,28.15,22.896z"/>
				<path fill="#F68A8E" d="M26.23,25.428c-0.176,0.174-0.353,0.346-0.527,0.518c-0.154,0.003-0.309,0.006-0.463,0.008
					c0.298-0.439,0.666-0.812,1.109-1.105c-0.002,0.104-0.004,0.209-0.007,0.312l0.005-0.007
					C26.216,25.205,26.218,25.314,26.23,25.428z"/>
				<path fill="#F7565D" d="M26.572,4.586c-0.6-0.33-1.107-0.749-1.359-1.412C25.703,3.609,26.238,4,26.572,4.586z"/>
				<path fill="#F7565D" d="M5.209,3.183C4.817,3.803,4.31,4.31,3.688,4.7C4.131,4.13,4.646,3.631,5.209,3.183z"/>
				<path fill="#F7565D" d="M29.445,9.175c0.212,0.429,0.356,0.882,0.459,1.348c-0.023,0.021-0.049,0.041-0.072,0.06
					c-0.273-0.41-0.416-0.865-0.452-1.355C29.402,9.21,29.424,9.193,29.445,9.175z"/>
				<path fill="#F7565D" d="M24.893,26.643c-0.266,0.275-0.563,0.504-0.906,0.676l-0.019-0.021c0.159-0.414,0.474-0.623,0.902-0.678
					L24.893,26.643z"/>
				<path fill="#F7565D" d="M26.344,25.158c0.002-0.104,0.004-0.209,0.006-0.312c0.043-0.046,0.086-0.092,0.129-0.136
					c0.22,0.009,0.305-0.284,0.539-0.235l0.02,0.017C26.844,24.754,26.708,25.074,26.344,25.158z"/>
				<path fill="#F7565D" d="M25.24,25.952c0.154-0.002,0.309-0.005,0.463-0.007c-0.258,0.248-0.492,0.521-0.811,0.697l-0.022-0.023
					c-0.037-0.303,0.345-0.373,0.356-0.646L25.24,25.952z"/>
				<path fill="#F7565D" d="M27.045,24.029c0.145-0.076,0.287-0.154,0.432-0.231c0.016,0.333-0.254,0.487-0.439,0.692l-0.02-0.018
					c-0.006-0.121-0.014-0.244-0.021-0.365C27.002,24.076,27.02,24.05,27.045,24.029z"/>
				<path fill="#F7565D" d="M24.537,2.666c-0.383,0.037-0.609-0.189-0.795-0.479C24.094,2.203,24.322,2.424,24.537,2.666z"/>
				<path fill="#F7565D" d="M27.699,23.574c-0.004-0.33,0.107-0.582,0.453-0.68C28.07,23.168,27.938,23.406,27.699,23.574z"/>
				<path fill="#F7565D" d="M25.146,3.118c-0.353,0.048-0.573-0.08-0.611-0.455C24.795,2.74,24.953,2.954,25.146,3.118z"/>
				<path fill="#F7565D" d="M27.143,5.253c0.189,0.083,0.285,0.246,0.367,0.421c-0.02,0.021-0.039,0.043-0.061,0.063
					c-0.233-0.07-0.311-0.247-0.318-0.47L27.143,5.253z"/>
				<path fill="#F7565D" d="M29.211,8.618c0.078,0.186,0.156,0.371,0.234,0.557c-0.021,0.018-0.043,0.036-0.065,0.053
					c-0.239-0.124-0.231-0.345-0.224-0.566C29.174,8.647,29.191,8.632,29.211,8.618z"/>
				<path fill="#F7565D" d="M26.766,5.176c0.01-0.122,0.021-0.244,0.029-0.365c0.211,0.072,0.221,0.304,0.348,0.443l-0.012,0.014
					c-0.121-0.031-0.242-0.063-0.363-0.094L26.766,5.176z"/>
				<path fill="#F7565D" d="M28.777,7.692C28.854,7.845,28.93,8,29.006,8.154c-0.029,0.019-0.059,0.041-0.086,0.064
					c-0.176-0.1-0.223-0.265-0.229-0.451C28.721,7.741,28.75,7.716,28.777,7.692z"/>
				<path fill="#F7565D" d="M28.207,6.683c0.066,0.12,0.133,0.24,0.199,0.36L28.368,7.08c-0.226-0.005-0.226-0.173-0.238-0.33
					C28.156,6.728,28.182,6.706,28.207,6.683z"/>
				<path fill="#F7565D" d="M23.578,2.105C23.4,2.042,23.168,2.042,23.18,1.76C23.396,1.78,23.538,1.883,23.578,2.105z"/>
				<path fill="#F7565D" d="M27.51,5.674c0.082,0.109,0.164,0.218,0.246,0.327c-0.027,0.023-0.055,0.047-0.08,0.072
					c-0.133-0.072-0.214-0.181-0.227-0.335C27.471,5.717,27.49,5.696,27.51,5.674z"/>
				<path fill="#F7565D" d="M27.756,6.001c0.076,0.113,0.15,0.226,0.227,0.339c-0.026,0.023-0.055,0.047-0.078,0.071
					c-0.137-0.071-0.213-0.184-0.229-0.337C27.701,6.048,27.729,6.024,27.756,6.001z"/>
				<path fill="#F7565D" d="M27.98,6.34c0.076,0.114,0.151,0.229,0.227,0.343c-0.025,0.023-0.051,0.045-0.076,0.066
					c-0.141-0.07-0.215-0.184-0.229-0.338C27.928,6.387,27.955,6.363,27.98,6.34z"/>
				<path fill="#F7565D" d="M27.473,23.803c-0.006-0.158,0.06-0.246,0.229-0.229C27.68,23.703,27.656,23.833,27.473,23.803z"/>
				<path fill="#F7565D" d="M26.797,4.812c-0.167,0.016-0.245-0.059-0.229-0.229C26.699,4.605,26.781,4.676,26.797,4.812z"/>
				<path fill="#F7565D" d="M26.23,25.428c-0.014-0.113-0.016-0.223,0.117-0.275C26.441,25.301,26.289,25.346,26.23,25.428z"/>
				<path fill="#F7565D" d="M28.662,7.469c0.039,0.074,0.076,0.149,0.115,0.223c-0.027,0.024-0.057,0.049-0.086,0.075
					c-0.037-0.076-0.072-0.152-0.109-0.228C28.609,7.517,28.637,7.494,28.662,7.469z"/>
				<path fill="#F7565D" d="M28.406,7.042c0.043,0.071,0.086,0.142,0.128,0.214c-0.021,0.018-0.041,0.036-0.062,0.054
					c-0.095-0.05-0.113-0.134-0.104-0.23L28.406,7.042z"/>
				<path fill="#F7565D" d="M28.534,7.256c0.043,0.071,0.085,0.142,0.128,0.212c-0.025,0.025-0.053,0.048-0.08,0.07
					c-0.084-0.053-0.109-0.135-0.109-0.229C28.493,7.292,28.514,7.274,28.534,7.256z"/>
				<path fill="#F7565D" d="M29.006,8.154c0.036,0.075,0.072,0.15,0.107,0.226c-0.026,0.018-0.051,0.038-0.075,0.06
					c-0.088-0.048-0.112-0.13-0.118-0.222C28.947,8.194,28.977,8.173,29.006,8.154z"/>
				<path fill="#F7565D" d="M29.113,8.38c0.033,0.079,0.063,0.158,0.098,0.238c-0.02,0.014-0.037,0.029-0.055,0.044
					c-0.1-0.042-0.115-0.128-0.118-0.222C29.062,8.418,29.087,8.398,29.113,8.38z"/>
				<path fill="#FDFBFC" d="M27.045,24.029c-0.025,0.021-0.043,0.047-0.049,0.078c-0.27,0.117-0.475,0.289-0.518,0.603
					c-0.043,0.044-0.086,0.09-0.129,0.136c-0.443,0.295-0.812,0.666-1.109,1.106l-0.014,0.021c-0.154-0.035-0.242,0.074-0.34,0.158
					c-2.055,1.76-4.412,2.869-7.074,3.355c-0.314,0.059-0.682-0.034-0.953,0.223c-0.076,0.005-0.152,0.01-0.229,0.014
					c-0.313-0.099-0.636-0.033-0.953-0.027c-4.545,0.099-8.388-1.514-11.48-4.826c-2.277-2.439-3.554-5.361-3.863-8.695
					c-0.368-3.969,0.709-7.519,3.154-10.64c2.347-2.999,5.446-4.812,9.186-5.456c4.149-0.714,7.942,0.235,11.368,2.672
					c0.833,0.592,1.541,1.32,2.251,2.045c0.143,0.144,0.243,0.342,0.473,0.381c-0.002,0,0.002-0.002,0.002-0.002
					c-0.006,0.186,0.113,0.307,0.217,0.441c1.641,2.12,2.643,4.502,3.021,7.161c0.078,0.542-0.061,1.118,0.221,1.631
					c0,0.233,0,0.467,0,0.7c-0.229,0.44-0.148,0.902-0.098,1.364c-0.006,0.067-0.014,0.137-0.021,0.205
					c-0.291,0.67-0.306,1.405-0.506,2.1c-0.52,1.801-1.334,3.447-2.442,4.955C27.092,23.82,27.012,23.902,27.045,24.029z
					 M8.825,1.881c-3.972,1.78-8.357,6.775-8.014,13.643c0.301,6.023,4.396,10.515,8.014,12.084
					C8.825,19.042,8.825,10.484,8.825,1.881z M21.577,27.617c4.345-1.991,8.315-7.115,8.024-13.696
					c-0.222-4.96-4.041-10.712-8.024-12.023C21.577,10.461,21.577,19.018,21.577,27.617z"/>
				<path fill="#F68A8E" d="M16.859,29.709c0.271-0.257,0.639-0.164,0.953-0.223c2.662-0.486,5.021-1.596,7.074-3.355
					c0.098-0.084,0.186-0.193,0.34-0.158c-0.013,0.273-0.395,0.346-0.356,0.646c-0.429,0.055-0.743,0.264-0.902,0.678
					c-0.249-0.045-0.429,0.102-0.616,0.223c-1.806,1.164-3.781,1.888-5.893,2.24C17.264,29.793,17.048,29.85,16.859,29.709z"/>
				<path fill="#F68A8E" d="M30.227,14.407c-0.281-0.514-0.143-1.089-0.221-1.631c-0.379-2.659-1.381-5.041-3.021-7.161
					c-0.104-0.134-0.223-0.255-0.217-0.441c0.121,0.031,0.241,0.062,0.362,0.094c0.009,0.223,0.085,0.4,0.318,0.47
					c0.013,0.154,0.094,0.263,0.227,0.335c0.017,0.153,0.093,0.266,0.228,0.337c0.014,0.155,0.088,0.269,0.229,0.338
					c0.012,0.158,0.012,0.325,0.237,0.331c-0.009,0.097,0.011,0.181,0.104,0.23c0,0.094,0.024,0.176,0.108,0.229
					c0.037,0.076,0.073,0.152,0.108,0.228c0.006,0.186,0.054,0.351,0.229,0.451c0.006,0.091,0.03,0.174,0.118,0.222
					c0.003,0.094,0.02,0.18,0.117,0.222c-0.008,0.221-0.016,0.443,0.225,0.566c0.036,0.49,0.178,0.945,0.452,1.355
					c0.135,0.831,0.278,1.661,0.403,2.493C30.303,13.518,30.367,13.965,30.227,14.407z"/>
				<path fill="#F68A8E" d="M30.129,16.471c-0.052-0.461-0.131-0.923,0.098-1.363C30.312,15.57,30.413,16.034,30.129,16.471z"/>
				<path fill="#F68A8E" d="M26.479,24.71c0.043-0.312,0.248-0.485,0.519-0.603c0.008,0.121,0.015,0.244,0.021,0.365
					C26.782,24.426,26.697,24.719,26.479,24.71z"/>
				<path fill="#030358" d="M8.825,1.881c0,8.603,0,17.161,0,25.727c-3.619-1.569-7.713-6.061-8.014-12.084
					C0.468,8.656,4.853,3.661,8.825,1.881z"/>
				<path fill="#E00208" d="M21.577,27.617c0-8.602,0-17.156,0-25.719c3.983,1.311,7.804,7.063,8.024,12.023
					C29.893,20.502,25.922,25.626,21.577,27.617z"/>
			</g>
		</g>
	</g>
</g>
</svg>
