<?xml version="1.0" encoding="utf-8"?>
<!-- Generator: Adobe Illustrator 16.0.0, SVG Export Plug-In . SVG Version: 6.00 Build 0)  -->
<!DOCTYPE svg PUBLIC "-//W3C//DTD SVG 1.1//EN" "http://www.w3.org/Graphics/SVG/1.1/DTD/svg11.dtd">
<svg version="1.1" id="Layer_1" xmlns="http://www.w3.org/2000/svg" xmlns:xlink="http://www.w3.org/1999/xlink" x="0px" y="0px"
	 width="30px" height="30px" viewBox="0 0 30 30" enable-background="new 0 0 30 30" xml:space="preserve">
<g id="Layer_2">
	<g>
		<g>
			<defs>
				<circle id="SVGID_1_" cx="15.052" cy="14.948" r="14.115"/>
			</defs>
			<clipPath id="SVGID_2_">
				<use xlink:href="#SVGID_1_"  overflow="visible"/>
			</clipPath>
			<g clip-path="url(#SVGID_2_)">
				<path fill="#F68A8E" d="M30.457,16.279c-0.035,0.003-0.072,0.005-0.109,0.007c0.002-0.873,0.006-1.744,0.006-2.617
					c0.033,0.018,0.068,0.023,0.104,0.014C30.457,14.548,30.457,15.415,30.457,16.279z"/>
				<path fill="#F68A8E" d="M1.538,8.003c0.033-0.094,0.064-0.189,0.096-0.285c0.352-0.34,0.635-0.715,0.688-1.221
					c0.156-0.205,0.312-0.408,0.471-0.611C2.94,5.892,3.026,5.806,3.11,5.694c1.613-2.127,3.674-3.66,6.125-4.703
					c0.25-0.109,0.631-0.092,0.75-0.453c1.291-0.553,2.66-0.771,4.045-0.865c2.517-0.168,4.935,0.254,7.242,1.289
					c0.084,0.039,0.178,0.055,0.27,0.082c0.934,0.768,1.979,1.355,3.049,1.9h0.002c0.062,0.422,0.359,0.543,0.73,0.566
					c0.037-0.002,0.057,0.018,0.055,0.055c0.004,0.082,0.025,0.152,0.119,0.174l-0.004-0.004c0,0.076,0.039,0.115,0.115,0.115V3.849
					c0.01,0.293,0.16,0.441,0.453,0.453L26.055,4.3c0.023,0.094,0.094,0.113,0.176,0.117l0.041,0.01l0.011,0.043
					c0.006,0.08,0.024,0.152,0.116,0.176L26.396,4.64c-0.027,0.184,0.055,0.295,0.229,0.342l-0.002-0.006
					c-0.013,0.162,0.058,0.246,0.228,0.23l-0.004-0.004c0.002,0.076,0.039,0.117,0.114,0.117V5.317
					c-0.058,0.213,0.082,0.344,0.192,0.498c1.271,1.742,2.216,3.633,2.671,5.756c0.036,0.182-0.035,0.49,0.299,0.529
					c0.041,0.484,0.08,0.971,0.119,1.455c-0.037,0.061-0.115,0.129-0.104,0.18c0.149,0.875,0.075,1.744-0.005,2.623
					c-0.25,2.711-1.18,5.156-2.754,7.371c-0.144,0.201-0.381,0.383-0.307,0.691l0.004-0.002c-0.31-0.059-0.373,0.346-0.65,0.344
					c-0.036-0.156,0.078-0.238,0.158-0.34c2.569-3.191,3.738-6.818,3.336-10.914c-0.392-3.98-2.069-7.332-5.149-9.887
					C20.273-0.108,15.2-0.987,9.72,1.03C3.392,3.358-0.546,9.938,0.263,16.604c0.488,4.018,2.289,7.313,5.404,9.883
					c4.92,4.055,11.935,4.479,17.335,1.09c0.664-0.416,1.213-0.99,1.934-1.318c0,0.277-0.403,0.34-0.346,0.648l0.002-0.002
					c-0.418,0.008-0.691,0.242-0.906,0.57l0.006-0.002c-0.088,0.024-0.188,0.03-0.262,0.075c-3.021,1.892-6.279,2.791-9.86,2.406
					c-2.613-0.281-5.01-1.121-7.182-2.611c-0.531-0.364-0.928-0.922-1.576-1.116l0.002,0.002c-0.039-0.039-0.076-0.076-0.115-0.115
					L4.7,26.116c-0.021-0.132-0.1-0.207-0.229-0.23l0.004,0.005c-0.023-0.13-0.1-0.207-0.23-0.229l0.004,0.004
					c-0.039-0.039-0.078-0.078-0.117-0.117l0.004,0.004c-0.023-0.131-0.096-0.209-0.229-0.229l0.004,0.004
					c-0.039-0.039-0.078-0.078-0.117-0.117l0.002,0.004c-0.158-0.564-0.611-0.885-1.02-1.246l0.002,0.002
					C2.59,23.346,2.202,22.85,1.76,22.387l0.002,0.002c-0.027-0.106-0.037-0.223-0.086-0.318c-0.521-1.014-0.945-2.073-1.232-3.168
					c-0.395-1.51-0.604-3.055-0.494-4.63c0.025-0.381,0.162-0.773,0.01-1.16c0.002-0.031-0.002-0.064-0.01-0.094
					c0.287-0.363,0.209-0.814,0.291-1.227C0.505,10.47,1.054,9.247,1.538,8.003z"/>
				<path fill="#F7565D" d="M4.812,26.227c0.648,0.194,1.045,0.752,1.576,1.116c2.172,1.49,4.568,2.33,7.182,2.611
					c3.581,0.385,6.839-0.517,9.86-2.406c0.074-0.045,0.174-0.051,0.262-0.075c0.035,0.229-0.176,0.252-0.299,0.327
					c-3.076,1.938-6.428,2.775-10.042,2.359c-3.111-0.357-5.902-1.523-8.283-3.597C4.962,26.473,4.794,26.415,4.812,26.227z"/>
				<path fill="#F7565D" d="M27.074,24.421c-0.074-0.31,0.164-0.489,0.307-0.69c1.574-2.215,2.504-4.66,2.754-7.371
					c0.08-0.879,0.154-1.749,0.004-2.624c-0.01-0.051,0.068-0.119,0.105-0.18c0.037,0.039,0.074,0.076,0.109,0.113
					c0,0.873-0.004,1.744-0.006,2.617c-0.248,2.989-1.314,5.662-3.142,8.037C27.176,24.364,27.119,24.389,27.074,24.421z"/>
				<path fill="#F7565D" d="M-0.04,13.11c0.152,0.387,0.016,0.779-0.01,1.16c-0.109,1.576,0.1,3.121,0.494,4.63
					c0.287,1.095,0.711,2.154,1.232,3.168c0.049,0.097,0.059,0.211,0.086,0.318c-0.217-0.022-0.23-0.229-0.299-0.361
					c-1.385-2.684-1.945-5.528-1.666-8.536C-0.19,13.351-0.231,13.177-0.04,13.11z"/>
				<path fill="#F7565D" d="M9.985,0.538c-0.119,0.361-0.5,0.344-0.75,0.453C6.784,2.034,4.724,3.567,3.11,5.694
					C3.026,5.806,2.94,5.892,2.792,5.886c0.26-0.592,0.729-1.023,1.16-1.477C5.647,2.632,7.628,1.288,9.985,0.538z"/>
				<path fill="#F7565D" d="M30.125,12.101c-0.334-0.039-0.262-0.348-0.299-0.529c-0.455-2.123-1.4-4.014-2.67-5.756
					c-0.111-0.154-0.25-0.285-0.193-0.498c0.859,0.861,1.43,1.916,1.951,2.996C29.494,9.515,29.945,10.767,30.125,12.101z"/>
				<path fill="#F7565D" d="M1.538,8.003C1.054,9.247,0.505,10.47,0.241,11.79c-0.082,0.412-0.004,0.863-0.291,1.227
					c-0.271-0.246-0.014-0.496,0.021-0.723C0.185,10.94,0.608,9.647,1.2,8.413C1.276,8.251,1.312,8.044,1.538,8.003z"/>
				<path fill="#F7565D" d="M24.59,2.944c-1.07-0.545-2.115-1.133-3.049-1.9C22.654,1.521,23.703,2.104,24.59,2.944z"/>
				<path fill="#F7565D" d="M1.761,22.386c0.441,0.464,0.83,0.96,1.018,1.582C2.28,23.542,1.94,23.018,1.761,22.386z"/>
				<path fill="#F7565D" d="M2.776,23.966c0.408,0.361,0.861,0.683,1.02,1.246C3.315,24.911,2.987,24.486,2.776,23.966z"/>
				<path fill="#F7565D" d="M26.416,25.229c-0.285,0.393-0.623,0.733-1.018,1.018l-0.021-0.023c0.193-0.483,0.531-0.822,1.016-1.018
					L26.416,25.229z"/>
				<path fill="#F7565D" d="M2.321,6.497C2.269,7.003,1.985,7.378,1.634,7.718C1.712,7.226,2.042,6.874,2.321,6.497z"/>
				<path fill="#F7565D" d="M24.59,26.904c-0.059-0.309,0.346-0.37,0.344-0.647c0.021-0.026,0.047-0.045,0.08-0.053
					c0.121,0.006,0.242,0.012,0.363,0.019l0.021,0.022C25.154,26.497,24.93,26.771,24.59,26.904z"/>
				<path fill="#F7565D" d="M26.428,24.764c0.277,0.002,0.342-0.402,0.65-0.345c-0.139,0.336-0.404,0.567-0.662,0.81l-0.023-0.023
					c-0.006-0.121-0.012-0.242-0.018-0.361C26.383,24.811,26.398,24.782,26.428,24.764z"/>
				<path fill="#F7565D" d="M23.686,27.475c0.215-0.328,0.488-0.562,0.906-0.57C24.344,27.182,24.1,27.46,23.686,27.475z"/>
				<path fill="#F7565D" d="M25.322,3.511c-0.371-0.023-0.668-0.145-0.73-0.566C24.904,3.044,25.086,3.312,25.322,3.511z"/>
				<path fill="#F7565D" d="M26.061,4.302c-0.293-0.012-0.442-0.16-0.453-0.453C25.828,3.929,25.982,4.077,26.061,4.302z"/>
				<path fill="#F7565D" d="M26.852,5.206c-0.17,0.016-0.238-0.068-0.227-0.23C26.82,4.935,26.822,5.083,26.852,5.206z"/>
				<path fill="#F7565D" d="M26.627,4.981c-0.176-0.047-0.258-0.158-0.23-0.342C26.529,4.716,26.672,4.786,26.627,4.981z"/>
				<path fill="#F7565D" d="M4.245,25.661c0.131,0.021,0.207,0.1,0.23,0.229C4.296,25.915,4.216,25.843,4.245,25.661z"/>
				<path fill="#F7565D" d="M3.907,25.32c0.133,0.021,0.205,0.101,0.229,0.23C3.952,25.583,3.89,25.491,3.907,25.32z"/>
				<path fill="#F7565D" d="M4.472,25.886c0.129,0.023,0.207,0.101,0.229,0.23C4.536,26.128,4.444,26.064,4.472,25.886z"/>
				<path fill="#F7565D" d="M25.496,3.739c-0.094-0.021-0.115-0.092-0.119-0.174C25.416,3.624,25.457,3.681,25.496,3.739z"/>
				<path fill="#F7565D" d="M4.698,26.111c0.039,0.039,0.076,0.076,0.115,0.115C4.722,26.245,4.669,26.218,4.698,26.111z"/>
				<path fill="#F7565D" d="M26.23,4.417c-0.082-0.004-0.152-0.023-0.176-0.117C26.113,4.339,26.172,4.378,26.23,4.417z"/>
				<path fill="#F7565D" d="M26.398,4.646c-0.092-0.023-0.111-0.096-0.117-0.176C26.32,4.528,26.359,4.587,26.398,4.646z"/>
				<path fill="#F7565D" d="M26.963,5.319c-0.076,0-0.113-0.041-0.115-0.117C26.918,5.21,26.969,5.237,26.963,5.319z"/>
				<path fill="#F7565D" d="M25.607,3.851c-0.076,0-0.115-0.039-0.115-0.115C25.572,3.733,25.611,3.772,25.607,3.851z"/>
				<path fill="#F7565D" d="M3.794,25.208c0.039,0.039,0.078,0.078,0.117,0.117C3.804,25.354,3.772,25.309,3.794,25.208z"/>
				<path fill="#F7565D" d="M4.132,25.548c0.039,0.039,0.078,0.078,0.117,0.117C4.138,25.695,4.101,25.657,4.132,25.548z"/>
				<path fill="#FDFBFC" d="M26.428,24.764c-0.029,0.02-0.045,0.047-0.053,0.079c-0.543,0.365-0.996,0.818-1.361,1.361
					c-0.033,0.008-0.059,0.024-0.08,0.053c-0.719,0.328-1.268,0.902-1.932,1.318c-5.4,3.389-12.415,2.965-17.335-1.091
					c-3.115-2.567-4.916-5.864-5.404-9.883C-0.546,9.938,3.392,3.358,9.72,1.03c5.48-2.018,10.553-1.139,15.051,2.592
					c3.08,2.555,4.761,5.906,5.15,9.887c0.402,4.097-0.766,7.724-3.336,10.914C26.506,24.523,26.391,24.605,26.428,24.764z
					 M21.549,2.134c0,8.572,0,17.103,0,25.646c4.266-2.021,8.104-7.057,7.91-13.301C29.283,8.778,25.711,4.097,21.549,2.134z
					 M8.38,27.727c0-8.562,0-17.009,0-25.478C4.161,4.353,0.595,9.14,0.69,15.022C0.782,20.675,3.446,24.857,8.38,27.727z"/>
				<path fill="#F68A8E" d="M25.014,26.204c0.365-0.543,0.818-0.996,1.361-1.361c0.006,0.119,0.012,0.24,0.018,0.361
					c-0.483,0.194-0.822,0.532-1.016,1.019C25.256,26.216,25.135,26.21,25.014,26.204z"/>
				<path fill="#E00208" d="M21.549,2.134c4.162,1.963,7.734,6.645,7.91,12.344c0.193,6.245-3.645,11.281-7.91,13.301
					C21.549,19.234,21.549,10.706,21.549,2.134z"/>
				<path fill="#047101" d="M8.38,27.727c-4.934-2.867-7.598-7.052-7.689-12.704C0.595,9.14,4.161,4.353,8.38,2.249
					C8.38,10.718,8.38,19.165,8.38,27.727z"/>
			</g>
		</g>
	</g>
</g>
</svg>
