<?xml version="1.0" encoding="utf-8"?>
<!-- Generator: Adobe Illustrator 15.0.0, SVG Export Plug-In . SVG Version: 6.00 Build 0)  -->
<!DOCTYPE svg PUBLIC "-//W3C//DTD SVG 1.1//EN" "http://www.w3.org/Graphics/SVG/1.1/DTD/svg11.dtd">
<svg version="1.1" id="Layer_1" xmlns="http://www.w3.org/2000/svg" xmlns:xlink="http://www.w3.org/1999/xlink" x="0px" y="0px"
	 width="1600.728px" height="908.453px" viewBox="551.056 957.313 1600.728 908.453"
	 enable-background="new 551.056 957.313 1600.728 908.453" xml:space="preserve">
<g>
	<path d="M866.27,1608.665h64.063V1865.2H866.27V1608.665z"/>
	<g>
		<path d="M1024.727,1670.459h41.669c10.771,0,19.275,2.551,25.229,7.652c6.236,5.104,9.07,12.756,9.07,22.961v0.852
			c0,9.354-2.834,16.725-8.787,22.109c-5.953,5.387-14.457,8.221-25.229,8.221h-40.252l72.567,133.512h73.7l-54.992-89.291
			c14.457-6.803,26.079-16.725,34.583-29.764s12.757-29.197,12.757-49.039v-0.852c0-25.229-6.804-45.07-20.41-59.811
			c-7.653-8.787-17.574-15.59-30.047-20.41c-12.189-4.818-27.213-7.369-45.071-7.369H960.946V1865.2h63.78V1670.459z"/>
	</g>
	<path d="M1156.537,1608.665h67.465l39.969,148.535l44.504-148.535h54.992l44.504,148.535l39.969-148.535h65.764l-76.819,256.535
		h-55.559l-46.205-145.701l-46.771,145.701l-54.709,0.283L1156.537,1608.665z"/>
	<path d="M740.694,1608.665L740.694,1608.665h-70.866l0,0L551.056,1865.2h69.732l36.284-78.236h96.661l36.283,78.236h69.732
		L740.694,1608.665z M683.151,1730.553l22.109-47.904l22.11,47.904H683.151z"/>
	<path d="M1636.16,1608.665L1636.16,1608.665h-70.866l0,0L1446.522,1865.2h69.732l36.283-78.236h96.661l36.283,78.236h69.732
		L1636.16,1608.665z M1578.616,1730.553l22.111-47.904l22.109,47.904H1578.616z"/>
	<polygon points="2028.192,1804.821 2028.192,1764.286 2127.122,1764.286 2127.122,1708.161 2028.192,1708.161 2028.192,1669.325 
		2150.082,1669.325 2150.082,1608.665 1887.026,1608.665 1823.813,1771.088 1760.885,1608.665 1674.712,1608.665 1787.53,1865.2 
		1858.681,1865.2 1965.263,1622.553 1965.263,1865.2 2151.783,1865.2 2151.783,1804.821 	"/>
</g>
<path d="M2077.231,1093.607c0,0-169.795-60.094-475.087,85.606c-321.166,153.355-602.08-89.291-855.781-85.606l-19.843-123.307
	c276.096-4.819,546.805,236.409,876.19,82.205c306.143-143.434,511.654-82.205,511.654-82.205L2077.231,1093.607z"/>
<path d="M2048.885,1263.687c0,0-169.795-60.095-475.087,85.606c-321.166,153.354-602.08-89.291-855.781-85.606l-19.842-123.307
	c276.095-4.819,546.804,236.409,876.189,82.204c306.143-143.433,511.654-82.204,511.654-82.204L2048.885,1263.687z"/>
<path d="M2020.538,1433.766c0,0-169.795-60.095-475.087,85.605c-321.166,153.355-602.079-89.291-855.78-85.605l-19.843-123.307
	c276.095-4.819,546.804,236.409,876.19,82.204c306.142-143.433,511.654-82.204,511.654-82.204L2020.538,1433.766z"/>
</svg>
