<?xml version="1.0" encoding="utf-8"?>
<!-- Generator: Adobe Illustrator 15.0.0, SVG Export Plug-In . SVG Version: 6.00 Build 0)  -->
<!DOCTYPE svg PUBLIC "-//W3C//DTD SVG 1.1//EN" "http://www.w3.org/Graphics/SVG/1.1/DTD/svg11.dtd">
<svg version="1.1" id="Calque_1" xmlns="http://www.w3.org/2000/svg" xmlns:xlink="http://www.w3.org/1999/xlink" x="0px" y="0px"
	 width="820.066px" height="176.615px" viewBox="0 0 820.066 176.615" enable-background="new 0 0 820.066 176.615"
	 xml:space="preserve">
<g>
	<path d="M344.742,59.737c5.514-6.339,8.917-14.943,8.917-24.417c0-18.726-13.275-34.084-29.963-35.174
		c-0.352-0.043-31.963,0.239-33.181,0.305c-58.797,1.283-125.701,11.946-173.484,30.708C59.232,53.855,0.175,92.849,1.371,132.002
		c-0.449-14.677,37.486-52.965,109.175-81.853c58.798-23.693,135.688-28.318,150.989-28.318c6.392,0,37.561-0.097,37.561-0.097
		h22.154c6.413,0,12.153,5.17,12.773,12.232c0.715,8.1-5.048,14.946-12.225,14.946h-65.583v21.654l65.035-0.001
		c6.411,0,12.152,5.174,12.773,12.232c0.715,8.1-5.048,14.946-12.225,14.946h-46.024V84.152h-19.578v35.245h64.758
		c16.742,0,31.265-13.899,32.603-32.359C354.322,76.436,350.811,66.715,344.742,59.737"/>
	<path d="M818.304,132.002c0.047-1.505-0.026-3.01-0.155-4.514c-3.217-37.612-59.928-74.506-115.504-96.328
		c-24.665-9.685-54.427-17.205-85.535-22.398C578.425,3.367,535.804,1.2,493.773,0.41C477.205,0.099,460.73,0,444.626,0
		l-30.868,0.078c-29.74,0-53.934,26.764-53.934,59.662c0,32.896,24.194,59.658,53.934,59.658h43.496V84.154H437.68v13.589h-23.922
		c-18.944,0-34.36-17.051-34.36-38.003c0-20.96,15.416-38.008,34.36-38.008h54.024h0.714h25.848h15.775
		c0.013,0,0.025,0.002,0.038,0.002c15.631,0.018,29.388,11.267,33.806,27.09c0.8,2.867,1.33,5.868,1.47,8.998
		c0.197,4.415-0.321,8.664-1.388,12.656c-4.204,15.735-17.357,27.265-32.926,27.265h-13.242h-10.519V91.16v-7.006h-1.76h-17.816
		v11.416v23.828h42.001c0.033,0,0.063,0,0.094,0c22.059-0.042,41.572-14.394,50.306-35.246c2.234-5.334,3.773-11.085,4.457-17.139
		c0.237-2.094,0.381-4.229,0.41-6.389c0.031-2.645-0.143-5.232-0.41-7.786c-1.224-11.691-5.473-22.375-11.916-31.015
		c2.37,0.005,4.285,0.008,5.416,0.008c15.302,0,92.191,4.625,150.989,28.318C780.819,79.038,818.753,117.325,818.304,132.002"/>
</g>
<g>
	<path fill="#161716" d="M20.277,158.758c3.209-1.56,4.901-4.195,4.901-7.654c0-5.126-4.294-8.438-10.94-8.438H0v33.385h14.853
		c7.503,0,12.163-3.54,12.163-9.241C27.016,162.888,24.81,160.25,20.277,158.758 M14.945,172.327H4.053v-11.273h10.233
		c5.535,0,8.582,1.959,8.582,5.517C22.868,170.175,19.907,172.327,14.945,172.327 M13.908,146.39c4.46,0,7.121,1.957,7.121,5.234
		c0,3.603-2.767,5.753-7.405,5.753H4.053V146.39H13.908z"/>
	<path fill="#161716" d="M67.613,152.709c0-6.103-4.756-10.045-12.118-10.045H41.112v33.386h4.104v-12.827h9.148l9.516,12.753
		l0.056,0.074h5.046l-10.184-13.546C64.405,161.385,67.613,157.828,67.613,152.709 M45.216,146.483h9.999
		c5.166,0,8.251,2.379,8.251,6.366c0,4.04-3.258,6.653-8.301,6.653h-9.949V146.483z"/>
	<path fill="#161716" d="M105.527,162.047c0,6.804-3.558,10.705-9.761,10.705c-6.294,0-9.903-3.988-9.903-10.941v-19.146h-4.102
		v19.382c0,9.093,5.201,14.521,13.911,14.521c8.738,0,13.958-5.535,13.958-14.806v-19.097h-4.103V162.047z"/>
	<path fill="#161716" d="M151.038,168.085c-2.956,2.829-5.878,4.71-10.523,4.71c-7.179,0-12.593-5.798-12.593-13.487
		c0-7.635,5.414-13.392,12.593-13.392c4.899,0,8.047,2.393,10.243,4.479l0.139,0.131l2.8-3.011l-0.135-0.128
		c-2.909-2.745-6.498-5.286-13.003-5.286c-9.624,0-16.88,7.439-16.88,17.304c0,9.812,7.196,17.21,16.739,17.21
		c6.662,0,10.482-2.96,13.338-5.854l0.132-0.134l-2.718-2.666L151.038,168.085z"/>
	<polygon fill="#161716" points="171.116,161.104 189.125,161.104 189.125,157.329 171.116,157.329 171.116,146.437 
		191.249,146.437 191.249,142.666 167.013,142.666 167.013,176.05 191.487,176.05 191.487,172.279 171.116,172.279 	"/>
	<path fill="#161716" d="M244.733,161.762h10.043v7.929c-2.507,2.008-5.99,3.203-9.335,3.203c-7.701,0-12.877-5.46-12.877-13.586
		c0-7.51,5.428-13.392,12.357-13.392c4.953,0,7.695,1.792,9.919,3.729l0.143,0.125l2.652-3.117l-0.145-0.122
		c-3.733-3.146-7.333-4.43-12.427-4.43c-9.388,0-16.741,7.602-16.741,17.304c0,10.134,6.982,17.211,16.975,17.211
		c6.673,0,11.246-3.193,13.376-5.092l0.064-0.058v-13.428h-14.004V161.762z"/>
	<path fill="#161716" d="M289.433,142.101c-9.571,0-17.071,7.602-17.071,17.304c0,9.812,7.3,17.21,16.978,17.21
		c9.57,0,17.067-7.603,17.067-17.307C306.407,149.498,299.11,142.101,289.433,142.101 M289.433,172.796
		c-7.311,0-12.825-5.799-12.825-13.488c0-7.635,5.473-13.392,12.732-13.392c7.311,0,12.825,5.801,12.825,13.488
		C302.165,167.04,296.69,172.796,289.433,172.796"/>
	<polygon fill="#161716" points="325.081,142.665 320.977,142.665 320.977,176.05 343.658,176.05 343.658,172.231 325.081,172.231 	
		"/>
	<path fill="#161716" d="M368.887,142.665h-11.649v33.386h11.649c10.272,0,17.727-7.042,17.727-16.743
		C386.614,149.664,379.159,142.665,368.887,142.665 M382.372,159.404c0,7.553-5.546,12.827-13.485,12.827h-7.547v-25.748h7.547
		C376.826,146.483,382.372,151.796,382.372,159.404"/>
	<path fill="#161716" d="M412.781,157.381c-7.453-1.593-8.816-3.364-8.816-6.277c0-3.054,2.812-5.188,6.838-5.188
		c3.452,0,6.441,1.126,9.405,3.545l0.151,0.123l2.399-3.179l-0.143-0.114c-3.573-2.87-7.075-4.096-11.716-4.096
		c-6.394,0-11.036,3.886-11.036,9.241c0,5.263,3.147,7.997,11.229,9.758c7.091,1.493,8.436,3.307,8.436,6.132
		c0,3.271-2.881,5.47-7.168,5.47c-4.322,0-7.565-1.339-11.192-4.619l-0.144-0.131l-2.555,3.026l0.138,0.12
		c4.072,3.637,8.398,5.329,13.61,5.329c6.855,0,11.461-3.846,11.461-9.571C423.68,161.907,420.42,159.045,412.781,157.381"/>
	<polygon fill="#161716" points="453.948,160.526 442.028,142.665 437.965,142.665 437.965,176.05 441.972,176.05 441.972,149.783 
		453.654,166.915 453.71,166.997 454.096,166.997 465.832,149.737 465.832,176.05 469.937,176.05 469.937,142.665 465.875,142.665 	
		"/>
	<rect x="486.297" y="142.665" fill="#161716" width="4.102" height="33.385"/>
	<polygon fill="#161716" points="504.403,146.483 515.485,146.483 515.485,176.05 519.631,176.05 519.631,146.483 530.715,146.483 
		530.715,142.665 504.403,142.665 	"/>
	<polygon fill="#161716" points="567.166,157.329 548.491,157.329 548.491,142.665 544.385,142.665 544.385,176.05 548.491,176.05 
		548.491,161.197 567.166,161.197 567.166,176.05 571.263,176.05 571.263,142.665 567.166,142.665 	"/>
	<path fill="#161716" d="M618.718,142.665h-11.647v33.385h11.647c10.277,0,17.734-7.041,17.734-16.742
		C636.453,149.664,628.996,142.665,618.718,142.665 M618.718,172.231h-7.542v-25.748h7.542c7.945,0,13.491,5.313,13.491,12.921
		C632.209,166.957,626.664,172.231,618.718,172.231"/>
	<polygon fill="#161716" points="655.126,161.104 673.137,161.104 673.137,157.329 655.126,157.329 655.126,146.437 
		675.259,146.437 675.259,142.666 651.022,142.666 651.022,176.05 675.499,176.05 675.499,172.279 655.126,172.279 	"/>
	<path fill="#161716" d="M701.751,157.381c-7.449-1.593-8.812-3.364-8.812-6.277c0-3.054,2.813-5.188,6.841-5.188
		c3.452,0,6.44,1.126,9.404,3.545l0.151,0.123l2.397-3.179l-0.143-0.114c-3.577-2.87-7.081-4.096-11.717-4.096
		c-6.395,0-11.035,3.886-11.035,9.241c0,5.263,3.149,7.997,11.232,9.758c7.126,1.501,8.43,3.242,8.43,6.132
		c0,3.271-2.882,5.47-7.166,5.47c-4.322,0-7.564-1.339-11.187-4.619l-0.145-0.131l-2.559,3.025l0.137,0.121
		c4.069,3.637,8.396,5.329,13.613,5.329c6.852,0,11.456-3.846,11.456-9.571C712.652,161.906,709.392,159.043,701.751,157.381"/>
	<rect x="727.269" y="142.665" fill="#161716" width="4.102" height="33.385"/>
	<path fill="#161716" d="M762.682,161.762h10.044v7.929c-2.507,2.008-5.99,3.203-9.337,3.203c-7.698,0-12.871-5.46-12.871-13.586
		c0-7.51,5.426-13.392,12.353-13.392c4.951,0,7.693,1.792,9.92,3.729l0.145,0.125l2.648-3.117l-0.146-0.122
		c-3.733-3.146-7.334-4.43-12.426-4.43c-9.388,0-16.741,7.602-16.741,17.304c0,10.134,6.98,17.211,16.976,17.211
		c6.67,0,11.243-3.193,13.376-5.092l0.063-0.058v-13.428h-14.003V161.762z"/>
	<polygon fill="#161716" points="816.059,142.665 816.059,168.764 795.602,142.737 795.544,142.665 791.772,142.665 791.772,176.05 
		795.783,176.05 795.783,149.336 816.759,175.979 816.816,176.05 820.066,176.05 820.066,142.665 	"/>
</g>
</svg>
