<?xml version="1.0" encoding="UTF-8"?><svg id="a" xmlns="http://www.w3.org/2000/svg" viewBox="0 0 820.2 176.9"><g id="b"><path d="M335.4,69.3h0c.1,0,.1-.1.2-.1,0-.1-.1-.1-.1-.2,0,.1,0,.2-.1.3h0Z" style="fill:none;"/><path d="M242,5c.1,0,.1-.1.2-.1h-.2c0,.1-.1.1-.1.1,0,.1,0,.2-.1.2.1,0,.2-.1.2-.2Z" style="fill:none;"/><path d="M618.8,146.6h-7.5v25.7h7.5c7.9,0,13.5-5.3,13.5-12.8s-1.6-7.4-4.2-9.7c-1.4-1.2-3-2.1-4.9-2.6-1.4-.4-2.8-.6-4.4-.6h0Z" style="fill:none;"/><path d="M4.1,172.5h10.9c5,0,7.9-2.2,7.9-5.8s-1.3-3.9-3.7-4.8c-1.3-.5-2.9-.7-4.9-.7H4v11.3h.1Z" style="fill:none;"/><path d="M242.7,173.1h0c.1-.1.1-.2.1-.3-.2.1-.4.2-.5.2h.4v.1Z" style="fill:none;"/><path d="M45.3,159.6h10c1.2,0,2.3-.2,3.3-.4.8-.2,1.5-.6,2.2-1,.3-.2.6-.5.9-.7,1.2-1.1,1.9-2.7,1.9-4.5s0-.9,0-1.4c-.6-3.2-3.6-5-8.1-5h-10v13h-.2Z" style="fill:none;"/><path d="M368.9,146.6h-7.6v25.7h7.5c3.4,0,6.3-1,8.6-2.6,1.9-1.4,3.3-3.3,4.1-5.5.5-1.4.8-3,.8-4.7,0-3-.9-5.7-2.4-7.8-1.1-1.5-2.5-2.6-4.1-3.5-1.9-1-4.2-1.6-6.9-1.6Z" style="fill:none;"/><path d="M282.6,170.9c2,1.3,4.3,2,6.9,2s2.5-.2,3.7-.5c4.4-1.3,7.6-4.9,8.7-9.6.2-1,.4-2.1.4-3.2,0-7.7-5.5-13.5-12.8-13.5s-12.7,5.8-12.7,13.4.7,5.3,2,7.4c.9,1.6,2.2,3,3.8,4h0Z" style="fill:none;"/><path d="M82.8,145h-.2c0,.1,0,0,0,0h.2Z" style="fill:none;"/><path d="M4.1,152.3v5.1h9.6c4.6,0,7.4-2.2,7.4-5.8s-.6-2.7-1.6-3.6c-1.2-1-3.1-1.6-5.5-1.6H4.2v5.9h-.1Z" style="fill:none;"/><path d="M482.1,87.9s0,.1,0,0c.1.1.1,0,0,0q.07,0,0,0Z" style="fill:none;"/><path d="M257,50.7c-.1,0-.2.1-.3.1,0,0,0,.1.1.1,0-.1.1-.2.2-.2h0Z" style="fill:none;"/><path d="M280,51.1c.1,0,.2-.1.3-.1,0,0-.2,0-.3.1h0Z" style="fill:none;"/><path d="M439.3,2.2h.1c-.07-.07-.1-.07-.1,0Z" style="fill:none;"/><path d="M376.9,79.6s-.1.1,0,0q0,.07,0,0c0,.1,0,0,0,0Z" style="fill:none;"/><path d="M795.8,149.5l14.5,18.4c1.1-.9,2.6-1.2,4.2-1l-18.8-24h0c0-.1-3.8-.1-3.8-.1v33.4h4v-26.7h-.1Z" style="fill:#0c685d;"/><path d="M818.4,132.1c0-1.5,0-3-.2-4.5-1.3-15.2-11.4-30.4-26.6-44.4,0,1.8,0,3.6,1,5.3.9,1.5-1.1,3.3-1.6,5-.4,1.2-.5,2.1.3,2.8.6.5,1,1.1,1.2,1.7,17.3,14.4,26.1,27,25.9,34.1h0Z" style="fill:#0c685d;"/><path d="M815.7,173.1c-.2.3-.5.5-.7.7l1.8,2.3h3.2v-3.1h-4.4l.1.1Z" style="fill:#0c685d;"/><path d="M776.7,171.6v-13.4h-4.4c-1.3.7-3,.8-5.3.6-1.5-.2-2.9.1-4.3.5v2.7h10v7.9c-2.5,2-6,3.2-9.3,3.2-5.9,0-10.3-3.2-12-8.3-.7.3-1.2.8-1.1,1.7.3,1.9,1.5,3.8,3.5,4.4,2.8.9,2.8,2.5,2,4.4,2.2,1,4.7,1.6,7.5,1.6,6.7-.1,11.3-3.3,13.4-5.3h0Z" style="fill:#0c685d;"/><path d="M820.1,168.7v-3.7c-.8-.3-1.5-.7-2.1-1.3-1.2-1.3-1.2-2.8.4-3.8,2.6-1.6.5-3.1,0-4.7-1.1-.5-1.8-1.1-2.4-1.8v14.1c1.4.5,2.9.5,4,1.2h.1Z" style="fill:#0c685d;"/><path d="M73.7,60c1.5.2,2.3.5,1.7-1.5-.3-1.1-.3-2.4,1.2-2.2,3.1.4,5.8,0,7.9-3.1-1.2,5.2.8,6.7,5.1,6.2,1.2-.6,2.5-1.1,3.7-1.7,0-.4-.2-.9.3-1.1.6-.3,1,0,1.4.4.3-.2.7-.3,1-.5,0-2.2-.7-3.7-3.6-4.3-2.8-.6-3.1-2.8-1.1-4.8,3.7-3.9,5.8-4.3,11-2.2.8.3,1.7,1.1,2.4,0,.5-.8.6-2.1-.2-2.5-2.2-1.3-1.2-2.9-.9-4.5,0-.5.2-1,.4-1.4-13.7,5.9-27.1,12.7-39.6,20.2,1.9,0,3.8.2,5.7.6,1.4.1,1.8,2.2,3.6,2.4Z" style="fill:#c07a13;"/><path d="M47.6,80.4c1.2-.1,1.6-.9,1.1-1.9-.9-1.8,0-3,1-4.3-.4-.2-.8-.4-1.2-.6-.9-.4-1.9-1.2-1.3-2,.6-.7,2-.8,3.1-.7,1.3,0,1.4.9.9,1.9.9.4,1.4,1.1,1.4,2.1h0c.7,1.2,2.3,2.2,2,3.7.7-.4,1.3-.8,2-1.2-.2-1.4-.3-2.7-.5-4-.3-1.7-1-3.5-2.9-3.8-2.1-.3-3-1.5-3.6-2.9-2.9,2-5.7,4-8.4,6.1,1.4.2,2.5.8,3.9,1.9,2.1,1.5,1.2,3.9,2.5,5.7h0Z" style="fill:#c98b37;"/><path d="M9.5,145.4h0c.5-.9.7-1.9,2-2.1.7-.1,1.2-.3,1.5-.6h-7.9c.1.1.2.3.2.4,1.1,1.7,2.2,2.7,4.2,2.3h0Z" style="fill:#c98b37;"/><path d="M5.7,112.5c-.7,1.6-1.3,3.2-1.9,4.7.6-.6,1.2-1.3,1.6-2.1.3-.7.4-1.7.3-2.6Z" style="fill:#c98b37;"/><path d="M2.6,142.8H.1v1.7c.9-.3,1.7-.8,2.5-1.7Z" style="fill:#c98b37;"/><path d="M4.3,123.2c-.7-.1-1.3-.3-2-.4-.6,3.1-.9,6.2-.8,9.3-.1-2.3.8-5.4,2.8-8.9Z" style="fill:#c98b37;"/><path d="M20.5,161.8c-.4,0-.9.1-1.2.1,2.4.9,3.7,2.5,3.7,4.8,0,3.6-3,5.8-7.9,5.8H4.1v-11.3h10c-.4-.3-.8-.4-1.3-.5-2.5-.5-4.4-1.8-6.4-3.2h-2.3v-1.5c-1.2-.8-2.5-1.7-4.1-1.8v22h14.9c7.5,0,12.2-3.5,12.2-9.2s-.6-3.7-1.8-5c-1.6.2-3.2-.3-4.8-.2h0Z" style="fill:#c88c22;"/><path d="M42.5,173.2c-.4-.4-.9-.6-1.3-.9v3.8h2.4c.4-.8.3-1.7-1.1-2.9h0Z" style="fill:#c88c22;"/><path d="M45.1,154c0-.1,0-.2.2-.2v-7.1h10c4.5,0,7.5,1.8,8.1,5,.9-.8,1.8-2,3-1,1.1,1-.7,1.6-1.1,2.4-.2.5-.5,1.1,0,1.6.4.4,1,.5,1.2.1.5-.7.9-1.1,1.2-1.3v-.7c0-6.1-4.8-10-12.1-10h-2.3c-.2.2-.3.5-.4.9-.2.7-1,1.3-1.6.9-2.5-1.2-6.1,2-8-1.8h-1.3c-.2.2-.3.3-.4.4,0,.1-.2.2-.3.3v13.1c1.4-.3,2.7-1,3.8-2.6h0Z" style="fill:#d29018;"/><path d="M81.8,143.8c.2.4.4.9.8,1.2h.2c.6-1,1.4-1.8,2.4-2.2h-3.4v1Z" style="fill:#d29018;"/><path d="M.1,149.1c1.2-.1,2.4-.3,3.6-.2h.4v-2.4h6.5c-.4-.3-.8-.7-1.1-1.1-2,.3-3.1-.6-4.1-2.3-.1-.1-.1-.2-.2-.4h-2.6c-.8.9-1.6,1.4-2.5,1.7v4.7h0Z" style="fill:#d29018;"/><path d="M19.5,148.1c1.1.9,1.6,2.1,1.6,3.6,0,3.6-2.8,5.8-7.4,5.8h-7.2c2,1.3,3.9,2.7,6.4,3.2.4.1.9.2,1.3.5h.3c2,0,3.6.2,4.9.7.4,0,.8,0,1.2-.1,1.6-.2,3.2.4,4.8.1-.8-1-1.9-1.7-3.4-2.4-1.7-.4-3.4-.2-5.2,1.2,1.1-2.1,2.8-3,4.8-2.5,2.4-1.6,3.7-4,3.7-7s-.3-2.5-.8-3.6c-1.4.3-2.7.6-4.1.5h-.9,0Z" style="fill:#d29018;"/><path d="M52.3,159.9c.5,0,.8-.1,1.1-.3h-2.9c.4.4,1.1.3,1.8.3Z" style="fill:#d29018;"/><path d="M4.1,152.3c-1.3.5-2.7.7-4.1.8v1.1c1.6,0,2.8,1,4.1,1.8v-3.7h0Z" style="fill:#d29018;"/><path d="M4.1,148.9h-.4c-1.2-.1-2.4.1-3.6.2v4c1.4-.1,2.8-.3,4.1-.8v-3.4h-.1Z" style="fill:#c38408;"/><path d="M704.4,146.8c1.7.6,3.3,1.5,4.9,2.8h.2c0,.1,2.4-3.1,2.4-3.1h0c-.9-.8-1.7-1.4-2.6-1.9-.4.1-.9.1-1.3.1-2.2,0-3.3.5-3.5,2.1h-.1Z" style="fill:#0a7d80;"/><path d="M748.6,152.4c1.1-2.2,3.6-2.3,5.5-3.3.9-.5,1.8-.9,2.7-1.3,1.2-.8,2.6-1.3,4-1.5.9-.3,1.8-.7,2.7-1.1,1.4-.6,2.5,0,3.6.3,2.6.8,5.3,1.5,8.1,1.3h.3c-3.7-3.2-7.3-4.5-12.4-4.5-7.5,0-13.7,4.9-15.9,11.8.6-.4,1.1-1,1.5-1.7h-.1Z" style="fill:#0a7d80;"/><path d="M731.4,175.4v-32.6h-4.1v33.4h3c.2,0,.4-.2.6-.4.2,0,.4-.2.5-.4h0Z" style="fill:#0a7d80;"/><path d="M774.5,78.2c0-.2-.2-.6-.2-.6,1.9-1.5,2.3-3.9,2.9-6.2-13.8-10.3-30.1-19.8-47.1-28.1-.7,2.9,2.7,3.7,4.3,4.8,1.8,1.2,3.1,2.7,4.2,4.3,1.6,2.3,2.6,4.8-.9,6.8-1.1.6-2,1.5-2.9,2.4,14.6,7.1,27.3,14.5,38.1,21.7,1.8-.9,2.5-2.5,1.6-5.1h0Z" style="fill:#0a7d80;"/><path d="M704.3,162.5c3.5,1.3,4.2,2.8,4.2,5,0,3.3-2.9,5.5-7.2,5.5s-7.6-1.3-11.2-4.6h0c0-.1-1.8,2-1.8,2,1,.8,1.4,1.8,1.5,2.8,3.5,2.5,7.1,3.6,11.5,3.6,6.9,0,11.5-3.8,11.5-9.6s-2.5-7.2-8.3-8.9c0,.5.3.9.4,1.4.4.8.2,1.9-.5,2.8h-.1Z" style="fill:#0a7d80;"/><path d="M753.8,170.8c-2-.6-3.2-2.5-3.5-4.4,0-.9.4-1.4,1.1-1.7-.5-1.6-.8-3.3-.8-5.3,0-5.1,2.5-9.4,6.2-11.6-.9.4-1.8.8-2.7,1.3-1.8,1-4.4,1.1-5.5,3.3-.4.7-.9,1.3-1.4,1.7-.5,1.7-.8,3.6-.8,5.5,0,7.3,3.7,13,9.5,15.7.7-2,.8-3.7-2.1-4.5Z" style="fill:#0b7264;"/><path d="M767,158.7c2.4.2,4,.1,5.3-.6h-9.6v1c1.4-.3,2.8-.5,4.3-.4Z" style="fill:#0b7264;"/><path d="M791,93.5c.5-1.7,2.5-3.5,1.6-5-1-1.7-.9-3.5-1-5.3-4.4-4-9.2-8-14.3-11.8-.7,2.2-1.1,4.6-2.9,6.2,0,.1,0,.4.2.6.9,2.6,0,4.2-1.6,5.1,7.4,5,13.9,9.8,19.6,14.5-.2-.6-.6-1.2-1.2-1.7-.9-.5-.8-1.4-.4-2.6h0Z" style="fill:#0b7264;"/><path d="M731.4,175.4c-.2,0-.3.3-.5.4-.2,0-.4.2-.6.4h1.1v-.8h0Z" style="fill:#0b7264;"/><path d="M767.2,145.5c-1.2-.4-2.3-1-3.6-.3-.9.4-1.8.7-2.7,1.1.7-.1,1.4-.2,2.1-.2,5,0,7.7,1.8,9.9,3.7h0c0,.1,2.6-3,2.6-3h-.3c-2.8.2-5.5-.5-8.1-1.3h.1Z" style="fill:#0b7264;"/><path d="M818.5,159.8c-1.6,1-1.6,2.5-.4,3.8.6.7,1.3,1.1,2.1,1.3v-9.4c-.5,0-1.1-.1-1.6-.4.4,1.6,2.5,3.1,0,4.7h-.1Z" style="fill:#105a5d;"/><path d="M820.1,144v-1.2h-4v2c.7-.5,1.5-.7,2.3-.6.7,0,1.3,0,1.7-.2h0Z" style="fill:#105a5d;"/><path d="M818.5,155.1c.6.2,1.1.3,1.6.4v-11.5c-.4.1-1,.2-1.7.2s-1.7.1-2.3.6v8.6c.6.6,1.3,1.3,2.4,1.7h0Z" style="fill:#1c1519;"/><path d="M820.1,173.1v-.9c0,.2,0,.5-.2.9h.2Z" style="fill:#105a5d;"/><path d="M810.4,167.9l4.7,5.9c.2-.2.5-.4.7-.7-1-.8-.9-1.8-.2-2.7.6-.9,1.4-.6,2.1-.1.8.6,2.4.5,2.5,1.7v-3.3c-1.1-.7-2.6-.7-3.9-1.2v-.1,1.5l-1.5-2c-1.7-.2-3.2.1-4.3,1h-.1Z" style="fill:#105a5d;"/><path d="M817.6,170.3c-.6-.5-1.5-.7-2.1.1-.6.9-.7,1.9.2,2.7h4.2c.2-.4.2-.7.2-.9v-.2c-.1-1.2-1.7-1.1-2.5-1.7h0Z" style="fill:#1c1519;"/><path d="M208.9,25c-.7,1.1-1.8,1.3-2.8,1.7,1.6-.2,3.1-.4,4.7-.6,0-.2-.1-.4-.1-.5,0-.8-1.1-1.6-1.8-.6h0Z" style="fill:#c8830e;"/><path d="M104.5,42.6c.8.5.7,1.7.2,2.5-.7,1.1-1.6.3-2.4,0-5.2-2.1-7.3-1.7-11,2.2-1.9,2-1.6,4.2,1.1,4.8,2.9.6,3.7,2.1,3.6,4.3,4.7-2.1,9.5-4.2,14.5-6.2,4.2-1.7,8.5-3.3,12.9-4.8-1.6-.6-2.3-1.3-.9-3.5,1.1-1.7-1.8-3.6-4.2-3.8-1.9-.1-3.6-.6-5.2-1.5-.5-.3-1.1-.6-.9-1.3.2-.9,1.1-.7,1.7-.6,3.1.7,6.2,1.5,9.3,2.3.1-.3.3-.5.3-.7-.8-3.4.43-5.93,3.7-7.6.7-.3,1.4-1.1,2.2-.4s.7,1.7.2,2.6c-.7,1.3-2.4,3.1-.9,4.1,1.9,1.2,2.8-1.2,3.8-2.6.8-1.1,1.8-1.4,2.9-.5.3.2.6.4.8.7.7,1.4,2.4-1.9,2.5.4.1,1.2-1.6,1.9-2.8,2.2-2.8.7-2.7,3.3-3.1,5.3-.1.7,0,1.3.4,1.7,1.4-.4,2.8-.9,4.2-1.3.3-.3.7-.4,1.3-.4,1.1-.3,2.1-.6,3.2-.9.2-.5.1-1.1-.4-1.9-1.3-2.1.3-2.9,1.4-4,.4-.4.8-1,1.4-.7.8.4.7,1.1.2,1.7-.9,1.2-.2,1.7.8,1.9.9.2,1.5.8,2.1,1.5,18.7-4.9,37.5-8.4,54.4-10.9-.6-.6-1.1-1.5-1.4-2.2-1-2.3-3.4-3.9-3-6.8.1-1-1.2-1.3-2.1-1.6-1-.3-2.1-.5-2.5-1.6-.5-1.5-1.1-1.9-2.4-.8-.7.5-1.7.6-2.3,0-2.1-1.9-3.2-.5-4.4,1h0c-.1,1,1.3,2.2-.1,3.1-.8.5-1.9.7-2.9.7s-1.1-.8-1.2-1.5c-.2-1.5,1.3-1.3,2-1.9.3-.2.6-.3.9-.5.1-1.4-.6-2-2-2.2h-.2c-22.9,4.8-44.6,10.9-63.3,18.2-4.4,1.7-8.7,3.5-13.1,5.4-.2.4-.4.9-.4,1.4-.1,1.8-1.1,3.5,1.1,4.7h0Z" style="fill:#c8830e;"/><path d="M93.7,56.6c-.5.3-.5.7-.3,1.1.6-.3,1.1-.5,1.7-.8-.4-.3-.8-.7-1.4-.3h0Z" style="fill:#cf8508;"/><path d="M145.4,36.8c-1.1-.2-1.8-.7-.8-1.9.5-.7.5-1.3-.2-1.7-.7-.4-1.1.3-1.4.7-1,1.1-2.7,1.9-1.4,4,.5.8.6,1.4.4,1.9,1.8-.5,3.7-1,5.5-1.5-.5-.8-1.1-1.3-2.1-1.5Z" style="fill:#cf8508;"/><path d="M132.8,40.6c.4-2,.2-4.5,3.1-5.3,1.2-.3,2.8-1,2.8-2.2-.1-2.3-1.8.9-2.5-.4-.1-.3-.5-.5-.8-.7-1.2-.9-2.1-.6-2.9.5-1,1.4-1.9,3.7-3.8,2.6-1.6-1,.1-2.7.9-4.1.5-.9.5-1.8-.2-2.6-.8-.7-1.5,0-2.2.4-3.2,1.67-4.43,4.2-3.7,7.6,0,.2-.2.4-.3.7-3.1-.8-6.2-1.6-9.3-2.3-.6-.1-1.5-.3-1.7.6-.2.7.4,1,.9,1.3,1.6.9,3.3,1.4,5.2,1.5,2.3.1,5.3,2,4.2,3.8-1.4,2.2-.7,2.9.9,3.5,3.2-1.1,6.5-2.2,9.7-3.2-.2-.4-.4-1-.3-1.7h0Z" style="fill:#cf8508;"/><path d="M137.5,41c.4-.1.9-.3,1.3-.4-.7,0-1.1.2-1.3.4Z" style="fill:#cf8508;"/><path d="M52.9,69.4c1.9.3,2.6,2.1,2.9,3.8.2,1.3.4,2.7.5,4,9.8-6,20.9-12.1,33.3-17.9-4.3.4-6.3-1-5.1-6.2-2.2,3.1-4.8,3.5-7.9,3.1-1.5-.2-1.5,1.1-1.2,2.2.6,2-.3,1.7-1.7,1.5-1.8-.2-2.2-2.3-3.6-2.6-1.9-.3-3.8-.6-5.7-.6-5.3,3.1-10.3,6.4-15.2,9.7.7,1.6,1.6,2.7,3.7,3ZM68.3,63.3c-.5-1-1.2-1.9-2.4-3.6,2,1.2,3.8,1.7,3.9,3.4,0,.9-.7,1.8-1.5.2Z" style="fill:#d18a19;"/><path d="M4.3,123.2c5.7-10.4,20.2-25,43-40.1,0-.5.2-.9.3-1.4v-1.4c-1.3-1.7-.3-4.2-2.8-5.9-1.4-1-2.5-1.6-3.9-1.9-16.3,12.4-29,25.9-35.2,39.9.1,1,0,1.9-.3,2.6-.4.8-1,1.5-1.6,2.1-.6,1.9-1.2,3.8-1.5,5.7.6,0,1.3.3,2,.4h0Z" style="fill:#d39943;"/><path d="M52.4,79c0-1-.7-1.6-1.3-2.3-1.4-1.8,0-1.7,1.3-1.8h0c0-1-.5-1.7-1.4-2.1-.5.5-.9.9-1.4,1.4h0c-.9,1.3-1.9,2.6-1,4.3.5,1,0,1.8-1.1,1.9v1.4c0,.5-.2.9-.3,1.4,1.2-.8,2.5-1.7,3.8-2.5,0-.7.7-1.3,1.4-1.7h0Z" style="fill:#da9621;"/><path d="M9.5,145.4h0c.4.4.7.8,1.1,1.1h3.3c2.4,0,4.3.6,5.5,1.6h.8c1.4.1,2.8-.1,4.1-.5-1.5-3-5.2-4.9-10.1-4.9h-1.2c-.3.3-.8.5-1.5.6-1.3.2-1.5,1.3-2,2.1h0Z" style="fill:#da9621;"/><path d="M41.9,142.8h-.7v.7c0-.1.2-.2.3-.3.1-.1.3-.2.4-.4h0Z" style="fill:#da9621;"/><path d="M51.2,144.6c.6.3,1.4-.2,1.6-.9,0-.4.3-.6.4-.9h-10c1.9,3.8,5.5.6,8,1.8Z" style="fill:#da9621;"/><path d="M51,72.8c.5-1,.4-1.9-.9-1.9s-2.5.1-3.1.7c-.6.8.5,1.5,1.3,2,.4.2.8.4,1.2.6h0c.6-.5,1.1-1,1.5-1.4h0Z" style="fill:#d39943;"/><path d="M52.4,74.9h0c-1.2.1-2.6,0-1.3,1.8.6.7,1.3,1.3,1.3,2.3.2.1.5.2.7.3.4-.3.8-.5,1.3-.8.3-1.5-1.3-2.4-2-3.6h0Z" style="fill:#d18a19;"/><path d="M58.5,159.2c-1,.3-2.1.4-3.3.4h-1.9c-.3.2-.6.3-1.1.3s-1.4.1-1.8-.3h-5.2v-5.9c0,.07-.07.13-.2.2-1.1,1.6-2.4,2.3-3.9,2.6v15.8c.4.2.9.5,1.3.9,1.4,1.1,1.5,2.1,1.1,2.9h1.7v-12.8h9.1l4.5,6c1.3-.6,2.6-1.1,4-1.4l-.7-1c-1.2-.4-1.9-1.5-2.6-3.4l-.7-1s.2,0,.3-.1c-1.5-1-1.2-2.1-.6-3.2h0Z" style="fill:#cb8c17;"/><path d="M66.4,154.8c-.3.4-.9.3-1.2-.1-.5-.5-.2-1,0-1.6.4-.8,2.2-1.5,1.1-2.4-1.1-1-2,.1-3,1v1.4c0,1.8-.7,3.4-1.9,4.5.4-.1.7-.2.9.3,1.5,4.3,2.7,1.4,3.8-.1.2-.2.3-.4.5-.6.5-1.1.8-2.3.8-3.5-.2,0-.6.4-1.1,1.1h.1Z" style="fill:#cb8c17;"/><path d="M109.7,143.7v-.9h-1.8c.2.1.4.2.6.3.4.3.8.5,1.2.6Z" style="fill:#e09a12;"/><path d="M82.8,145h0c0,.1,0,0,0,0-.3-.3-.6-.8-.8-1.2v13.4c.8,0,1.6,0,1.7.7.2,1.3,0,3-.8,4.2-.4.7-.7,1.5-.8,2.2,0,.7.2,1.3.3,1.9.3.7.8,1.3,1.6,1.8.7.5,1.8.5,1.8,1.7h0c0,2,.5,3.4,1.3,4.4.6.5,1.3.9,2,1.2,1,.2,2.2.2,3.7,0h0c1.5-.9,3.3.2,4.8-.7h0c0-.6,0-1.2.2-1.7-.6.1-1.2.1-1.8.1-6.3,0-9.9-4-9.9-10.9v-19.1h-.7c-1,.3-1.8,1.1-2.4,2.1l-.2-.1Z" style="fill:#e09a12;"/><path d="M62.1,167l-2.6-3.4c.7,1.9,1.5,3,2.6,3.4Z" style="fill:#cf8e0d;"/><path d="M66.3,157.7c-1.1,1.5-2.3,4.4-3.8.1-.2-.5-.5-.4-.9-.3-.3.3-.6.5-.9.7.2,1.1,1.5,2.5,1.2,3.4,2.3-1,3.9-2.6,4.9-4.6-.2.2-.3.4-.5.7h0Z" style="fill:#cf8e0d;"/><path d="M83.5,157.8c0-.7-.9-.7-1.7-.7v7c0-.7.3-1.5.8-2.2.7-1,1-2.7.8-4.1h.1Z" style="fill:#cf8e0d;"/><path d="M85.6,169.7h0c0-1.2-1.1-1.2-1.8-1.7-.8-.5-1.3-1.1-1.6-1.8.2,1,.5,1.9.8,2.7.9.2,1.8.5,2.6.8Z" style="fill:#cf8e0d;"/><path d="M16.7,160.7c1.8-1.4,3.5-1.5,5.2-1.2-.5-.2-1-.4-1.6-.6.4-.2.8-.4,1.2-.7-1.9-.5-3.6.3-4.8,2.5h0Z" style="fill:#c88c22;"/><path d="M699.9,142.3c-3.3,0-6.1,1-8.1,2.8,1.2.7,2.6,1.3,3.8,1.9,1.1-.6,2.5-1,4.2-1s3.1.3,4.5.7c.3-1.6,1.3-2.2,3.4-2.1.5,0,.9,0,1.3-.1-2.7-1.5-5.6-2.2-9.1-2.2h0Z" style="fill:#05948e;"/><path d="M688.2,30c.4.4,1,.8,1.1,1.3.6,2.6,1.8,5,4.6,4.6,2.3-.4,5,.4,6.9-1.5,1.2-1.2,2.5-.6,3.4.1,1.7,1.3,3.2,1.2,4.5-.4,0-.1.2-.2.2-.2-2.1-.9-4.2-1.7-6.3-2.5-5.5-2.2-11.2-4.2-17.2-6.1-.6,1.7,1,3.2,2.8,4.7Z" style="fill:#05948e;"/><path d="M668.3,29.2c.2.7.5,1.4.7,2.1h0c.7,1.1,1.4,2.3,2.1,3.4v1.4c2.5-2.4,5.3-4.4,7.4-7.5,1.1-1.6,2.7-2.9,4.2-4.4-2.8-.9-5.6-1.7-8.5-2.6-.8,1.2-1.3,2.6-1.3,4.4s-3,2.1-4.6,3.2h0Z" style="fill:#05948e;"/><path d="M686.1,42.2c.2.1.4.1.7.2,0-.3-.3-.6-.4-1-.1.3-.2.5-.3.8Z" style="fill:#05948e;"/><path d="M666.3,21.6h0l.7.7c.6-.8,1.2-1.5,2-2.1-.5-.1-.9-.3-1.4-.4-.2.7-.5,1.5-1.3,1.8Z" style="fill:#05948e;"/><path d="M698.9,161c.4.1.8.2,1.2.3,1.7.4,3.1.7,4.2,1.1.6-.9.9-1.9.5-2.9s-.3-.9-.4-1.4c-.8-.2-1.7-.5-2.6-.7-.4-.1-.8-.2-1.1-.3,0,.2,0,.5-.2.7-.5,1.5-1,2.5-1.6,3.2h0Z" style="fill:#05948e;"/><path d="M688.3,170.3l-.8.9h0c.7.7,1.4,1.3,2.2,1.8,0-1-.5-1.9-1.5-2.7h.1Z" style="fill:#05948e;"/><path d="M737.7,59.2c3.6-2,2.5-4.5.9-6.8-1.1-1.6-2.4-3.1-4.2-4.3-1.6-1.1-5-1.8-4.3-4.8-5.2-2.5-10.6-5-15.9-7.3-.2.3-.4.6-.6,1-.5.8-.3,1.9.4,2.1,2.5.8,3.6,3.6,6.4,4,1.6.2,1.8,1.7,1.8,2.9,0,3.6-.7,7.1,1.2,10.3,3.9,1.7,7.7,3.5,11.4,5.3.9-.9,1.8-1.7,2.9-2.4h0Z" style="fill:#05948e;"/><path d="M650,19c2.8,1.5,4.8,4.2,7.9,5.3,2.9-.5,5.7-1.5,8.3-2.8h0c.8-.3,1.1-1,1.4-1.7-6.2-1.7-12.7-3.3-19.2-4.8-1.2,2.1,0,3.1,1.6,4Z" style="fill:#09917c;"/><path d="M642.8,14.5h3.4c-2-.4-4-.9-6-1.3.4,1.1,1.4,1.3,2.6,1.3Z" style="fill:#09917c;"/><path d="M182.5,15.3h1.3c1.2-1.5,2.4-2.9,4.4-1,.6.6,1.6.5,2.3,0,1.3-1,2-.7,2.4.8.4,1.1,1.5,1.3,2.5,1.6.9.3,2.2.6,2.1,1.6-.4,2.9,2,4.5,3,6.8.3.7.8,1.6,1.4,2.2,1.4-.2,2.8-.4,4.2-.6,1.1-.4,2.1-.6,2.8-1.7.7-1,1.7-.2,1.8.5,0,.2.1.4.1.5,4.3-.6,8.4-1,12.3-1.5-.2-.5-.5-1.1-.1-1.6,1.9-2.7.6-4.6-1.5-6.5-1.3-1.2,1-5.9,3.3-6.7,1.8-.6,3-1.6,3.4-3.5h-2c-1.4-.1-2.5-.2-3.3-.5-14.4,1.9-28.6,4.3-42.4,7.2h.2c1.3.4,2,1,1.8,2.4h0Z" style="fill:#b77808;"/><path d="M235.7,17.6c-2.5-1.1-1.9-2.2-.9-3.6.7-1,1.7-2,2.8-2.5,1.5-.7,4-.1,1.6-3.2-1.1-1.5,1.5-1.9,2.6-3,0-.1.1-.2.1-.2-1.2,0-2.3-.1-3.3-.8h0c-1.9.4-3.1,1.8-4.6,2.8-1.6,1-1.8,2.1-.4,3.2,2,1.4,1,2.4-.2,3.5-.3.3-.8.5-1.2.7-2.9,1.4-6.1,2.3-4.7,7,.2.7-.5,1.9-1.5,2.9,5.3-.5,10.1-1,14.5-1.3-.1-.2-.1-.3-.2-.5-.5-2.1-2.6-4.1-4.6-5h0Z" style="fill:#d18a05;"/><path d="M182.5,15.3c-.3.1-.7.2-.9.5-.7.6-2.2.4-2,1.9.1.7.5,1.5,1.2,1.5,1,0,2.1-.3,2.9-.7,1.4-.8.1-2,.1-3.1h-1.3v-.1Z" style="fill:#b3730e;"/><path d="M251.1,16.6c-.7-.8-1.4.3-1.9.9-1.3,1.6-2.7,1.2-3.8,0-1.1-1.3-2-2.8-3.9-3.2-.5-.1-1.1-1-.6-1.4,2.6-2.2.5-5.5,1.8-7.9h0c-.2,0-.4,0-.5-.1-.1,0-.1.1-.2.1-.1.1-.1.2-.2.2-1.1,1-3.7,1.5-2.6,3,2.4,3.1-.1,2.5-1.6,3.2-1.1.5-2,1.5-2.8,2.5-1,1.4-1.6,2.5.9,3.6,1.9.9,4.1,2.9,4.6,4.9,0,.2.1.4.2.5,5.3-.4,10-.7,13.7-.8.5-2.1-1.6-3.9-3.1-5.5h0Z" style="fill:#e09504;"/><path d="M65.9,59.7c1.1,1.7,1.9,2.6,2.4,3.6.8,1.6,1.7.7,1.6-.2-.2-1.7-2-2.2-4-3.4Z" style="fill:#c07a13;"/><path d="M52.4,79c-.7.4-1.5,1-1.4,1.7.7-.4,1.4-.9,2.1-1.3-.2-.2-.5-.3-.7-.4h0Z" style="fill:#c98b37;"/><path d="M63.9,176.1h5.1c-1.5-.9-3.2-1.7-4.2-3.4-.6-.9-1.5-1.6-1.6-3.1.4.1.8.1,1.1.2l-1.4-1.9c-1.4.3-2.7.8-4,1.4l5,6.8Z" style="fill:#d29018;"/><path d="M60.7,158.2c-.6.4-1.4.7-2.2,1-.6,1.1-.9,2.2.6,3.4,1-.2,2-.5,2.8-.9.3-1-1-2.4-1.2-3.5Z" style="fill:#d29018;"/><path d="M108.6,154c.3.4.7.5,1.1.3v-2.4h0c-.6.2-2,1-1.1,2.1Z" style="fill:#eca20d;"/><path d="M107.4,147.6c.7-.1,1.7-.5,2.3-.1v-3.8c-.4-.1-.7-.3-1.2-.6-.2-.1-.4-.2-.6-.3h-2.3v6.2c.6-.7,1.2-1.3,1.8-1.4h0Z" style="fill:#eca20d;"/><path d="M97.4,174.5c1-.5,1.7-1.3,2.3-2.2-.6.2-1.3.4-2.1.5,0,.5-.2,1.1-.2,1.7h0Z" style="fill:#eca20d;"/><path d="M104.2,173.1c-.7,1-1.4,1.8-2.2,2.4,1.7-.7,3.1-1.8,4.3-3.1-.8-.2-1.6,0-2.1.7Z" style="fill:#d69e0d;"/><path d="M92.6,175.2c-1.5.3-2.7.3-3.7,0,1.9.9,4.2,1.4,6.8,1.4h.8c-1.2-.3-2.6-.8-3.9-1.5v.1Z" style="fill:#d69e0d;"/><path d="M85.6,169.7c-.9-.3-1.8-.5-2.6-.8.9,2.1,2.2,3.9,3.9,5.2-.8-1-1.2-2.4-1.3-4.4h0Z" style="fill:#d69e0d;"/><path d="M97.4,174.5h0c-1.5,1-3.3-.2-4.8.7h0c1.4.7,2.7,1.2,4,1.4,2.1,0,3.9-.5,5.5-1.2.8-.6,1.5-1.4,2.2-2.4.5-.7,1.3-.9,2.1-.7.5-.6,1-1.2,1.4-2-.3-.2-.6-.4-.9-.7-.8-.8-1.6-1.2-2.6-1.4-1,1.9-2.5,3.2-4.5,4-.7.9-1.4,1.7-2.4,2.3Z" style="fill:#eaa912;"/><path d="M64.8,172.7c1,1.7,2.7,2.5,4.2,3.4l-4.7-6.3c-.3-.1-.6-.1-1.1-.2,0,1.5,1,2.2,1.6,3.1h0Z" style="fill:#cb8c17;"/><path d="M673.2,161.2v-3.7h-6.7c-1,1.3-2,2.6-3.1,3.8h9.8v-.1Z" style="fill:#009e9b;"/><path d="M664.5,176.2c1.5-.9,3.5-1.5,5.3-1.4,1.1-.2,2.4,0,3.7.4.8.2,1.6,0,2-.7v-1.9h-17.2c-2.5.7-4.5,2.3-6.6,3.8h12.9v-.2h-.1Z" style="fill:#009e9b;"/><path d="M668.4,146.6h7v-3.8h-3.9c-.3.4-.6.8-.8,1.2-.9,1-1.5,1.9-2.3,2.6h0Z" style="fill:#009e9b;"/><path d="M618.1,173.8c-.6.3-1.3.7-1.9.6-2.4-.4-4.4.4-6.2,1.7h8.8c4.7,0,8.9-1.5,12-4.1-4.4-.6-8.7-.3-12.7,1.8h0Z" style="fill:#009e9b;"/><path d="M722.3,46c0-1.2-.2-2.7-1.8-2.9-2.8-.3-3.9-3.2-6.4-4-.7-.2-1-1.3-.4-2.1.2-.3.5-.7.6-1-1.8-.8-3.5-1.5-5.3-2.2,0,.1-.2.1-.2.2-1.4,1.6-2.8,1.7-4.5.4-.9-.7-2.2-1.3-3.4-.1-1.9,1.9-4.6,1.1-6.9,1.5-2.8.4-4-2-4.6-4.6,0-.5-.7-.9-1.1-1.3-1.8-1.5-3.3-3-2.7-4.9-1-.3-1.9-.6-2.9-.9-1.4,1.5-3.1,2.8-4.2,4.4-2.1,3.1-4.9,5.1-7.4,7.5-.2.5-.4,1.1-.7,1.6,5.3,1.4,10.5,2.8,15.7,4.4,0-.3.2-.5.3-.8,0,.3.3.6.4,1,7.6,2.4,15.1,5,22.4,7.9,4.9,2,9.7,4,14.3,6.1-2-3.1-1.3-6.6-1.2-10.2h0Z" style="fill:#009e9b;"/><path d="M688.9,151.6c0,5,2.8,7.7,10,9.5.6-.8,1.1-1.8,1.5-3.1,0-.2,0-.5.2-.7-6.4-1.5-7.7-3.3-7.7-6s1-3.3,2.7-4.2c-1.3-.6-2.6-1.2-3.8-1.9-1.8,1.5-2.9,3.8-2.9,6.4h0Z" style="fill:#009e9b;"/><path d="M618.9,27.5c2.3.3,4.6.7,6.9,1.1-2.3-.8-4.5-1.4-6.9-1.1Z" style="fill:#08a28a;"/><path d="M636.9,29.9c-.3.2-.5.3-.8.4,1.9.3,3.8.7,5.7,1.1-.8-3.5-1.7-3.4-4.9-1.5Z" style="fill:#08a28a;"/><path d="M671.1,36.1v-1.4c-1.1-.2-2.7.7-3.3-.9-.4-1-.5-2.3,1.2-2.5-.2-.7-.5-1.4-.7-2.1-4.2-3-4.2-3.2-1.4-6.9h0l-.7-.7h0c-2.6,1.3-5.4,2.3-8.3,2.8,0,3,.3,6-.6,8.9,0,.4-.3.8-.5,1.2,4.5,1,9.1,2.1,13.7,3.3.2-.6.4-1.2.6-1.7h0Z" style="fill:#08a28a;"/><path d="M667,22.2h0c-2.9,3.7-2.8,3.9,1.4,6.9,1.6-1.1,4.6-1.2,4.6-3.1s.5-3.2,1.3-4.4c-1.7-.5-3.5-1-5.2-1.5-.9.7-1.6,1.3-2.1,2.1Z" style="fill:#009e9b;"/><path d="M669,31.3c-1.7.2-1.6,1.5-1.2,2.5.6,1.6,2.1.7,3.3.9-.7-1.1-1.4-2.3-2.1-3.4h0Z" style="fill:#09917c;"/><path d="M657.9,24.3c-3.1-1.1-5.1-3.9-7.9-5.3-1.7-.9-2.9-1.9-1.6-4-.7-.2-1.5-.3-2.2-.5h-3.4c-1.2,0-2.1-.3-2.6-1.3-3.1-.7-6.3-1.3-9.4-1.9,0,1,.2,2,.3,3,.2,3.5-1.8,5.3-4.5,6.6-.4.2-1,.5-1.3.3-3.4-2.4-4.6,0-5.9,2.5-1,2-3.2,2-5,2.6v.4c1.5.2,3,.4,4.5.6,2.4-.3,4.6.3,6.9,1.1,3.4.5,6.8,1.1,10.3,1.8.3-.1.5-.2.8-.4,3.2-1.9,4-2,4.9,1.4,4.9.9,9.9,2,14.9,3.1.2-.4.4-.8.5-1.2,1-2.8.6-5.8.7-8.8h0Z" style="fill:#0b9673;"/><path d="M604,22.6c-1.6.5-3.2.4-4-1s-1.8-3.5-.4-4.8c3-2.7,4.3-6,4.9-9.5-5.3-.6-10.7-1.2-16.2-1.8.4.3.8.6,1,1,2.4,3.9,7.2,6.5,8,10.7.5,2.8,1.3,5.4,2.4,7.8,1.9.2,3.9.5,5.9.7,0-.2.2-.4.3-.6,1.1-2.1.5-3.2-1.9-2.5h0Z" style="fill:#0ab69f;"/><path d="M579.7,6.3h0c2,.7,3.8,1.1,4.2-1.2-1.4-.1-2.8-.3-4.2-.4v1.6Z" style="fill:#0ab69f;"/><path d="M228.2,6.4h0c-.4,1.9-1.6,2.8-3.4,3.5-2.3.8-4.6,5.5-3.3,6.7,2,1.9,3.4,3.7,1.5,6.5-.4.5-.1,1,.1,1.6,1-.1,1.9-.2,2.9-.3,1.1-1,1.7-2.2,1.5-2.9-1.4-4.7,1.8-5.5,4.7-7,.4-.2.8-.4,1.2-.7,1.2-1.1,2.2-2.1.2-3.5-1.5-1-1.2-2.2.4-3.2,1.5-1,2.8-2.4,4.6-2.8h0c0-.1-.1-.2-.1-.2-3,.3-6.1.7-9.1,1-.4.4-.8.8-1.2,1.3h0Z" style="fill:#c48405;"/><path d="M228.2,6.4h0c.4-.4.8-.9,1.2-1.3-2.2.3-4.4.5-6.6.8.8.2,1.9.3,3.3.5.7,0,1.4-.1,2.1,0Z" style="fill:#b37a06;"/><path d="M238.5,4.2c1,.7,2.2.7,3.3.8h.1c-.1-.5-.2-.9-.2-1.3-1.1.1-2.2.2-3.4.4.2,0,.2.1.2.1h0Z" style="fill:#ce940b;"/><path d="M258.5,92.6c.4.8.9,1.7,2.1,1.4.7-.2.8-.8.7-1.4-.2-1.1-.4-2.2-1.8-2.6-1.7-.5-2.7-2.9-2.2-4.8h0c-.4-.4-.7-.6-1-.6v7.7c.7-.5,1.6-.8,2.2.3h0Z" style="fill:#eba710;"/><path d="M265.2,67.7c-.5-.3-1-.9-.5-1.4.5-.6,1.3-.6,1.8-.1s.5,1.1.9,1.4c1.6,1.1,3.2,2.4,5,.1,1.3-1.6,3.4-2,4.9-3.6,1.2-1.3,3.2,0,4.9.3h0c.7-1.1,1.6-2,1.4-3.4h-.7c-.9,1.1-2.5.5-3.5,1.4h0c-2,2.1-3.3-1.3-4.7-.8-1.7.6,0,3.4-2.2,4.2-1.7.7-5.1-1.7-5.3-3.9-.2-2-2.9-4-4.5-3.1-2.1,1.2-3.5.8-5.3-.6-.4-.3-.8-.5-1.2-.7v13.2h10.1c.1-.1.2-.3.3-.4.9-1.3-.4-2-1.4-2.6h0Z" style="fill:#eba710;"/><path d="M258.7,54.9c-.1.3-.5.4-.8.6,1.3,1.1,2.5,2.3,4.5,1.4,1.1-.5,2.1.3,3.2.8,1.6.8,3.4.9,4.7-.6,1.2-1.3,1.6-2.4.2-4.1s1.1-2.3,1.9-2.8c1.2-.7,1.3.7,1.4,1.6.2,1.6.9,2.9.3,4.7-.7,2.4,2.1,5.2,5.2,5.9h0c1-.9,2.6-.3,3.5-1.4h0c-4.9-.7-5.6-5-7.1-8.7-.1-.3,2.5.9,3.5-.4h0v-.6c.2-.1.4-.1.6-.2h0c-.2.1-.4.1-.6.3.3-3.8-2.8-.7-3.9-1.9,0-.1.1-.3.1-.4h-11c-2.2,1.5-5.2,4.5-5.7,5.8h0Z" style="fill:#d5a91a;"/><path d="M314,52h0c.3-1.5-.8-2.2-1.5-3h-5c.2.1.3.3.4.5,1.5,2.3,3.7,2.7,6.1,2.5Z" style="fill:#d5a91a;"/><path d="M256.3,53.7v2.3c.3-.1.6-.3,1-.5.2-.8-.5-1.3-1-1.8Z" style="fill:#d5a91a;"/><path d="M305.4,50.9c-.3-.7-.9-1.3-.4-1.8h-12c3.1,2.5,7.4,1.8,10.9,3.5,1.1.5,2.1-.3,1.5-1.7Z" style="fill:#d5a91a;"/><path d="M256.7,50.9s0-.1-.1-.1-.2.1-.4.1v.4c.2-.2.3-.3.5-.4Z" style="fill:#d5a91a;"/><path d="M266.9,3.6h0c-1.8,2.5-4.7,2.6-7.2,2.4-2-.2-3.3-.2-4.2,1.7-.3.6-.8,1.2-1.6,1.1-.9-.1-.6-1-.8-1.7-.6-2-7-4.5-8.8-3.4-.6.4-1.1.8-1.6,1.3h0c-1.2,2.5.8,5.7-1.8,7.9-.5.4.1,1.2.6,1.4,1.9.4,2.7,1.9,3.9,3.2,1,1.2,2.5,1.6,3.8,0,.5-.5,1.2-1.7,1.9-.9,1.5,1.6,3.6,3.3,3.1,5.5,3.2-.1,5.7-.2,7.4-.2h8.6c.6-.9,1.2-1.8,1.6-2.8.9-2,2.6-1.3,3.4.7.3.6,1.4,1.4,2.8,2.1h2.4c-2-.7-3.5-2.4-4.5-4-2.3-3.7-5.1-6.8-8.4-9.5-.6-.5-.7-1.2-.1-1.8.7-.6,2-.6,2.2-.1,2.2,4.5,6,2.8,9.3,2.5,3.2-.3,6.3.1,9.4.7-1.8-3.4-5.4-1.9-8.1-2.5-1.8-.4-2.2-.7-2.4-2.3-.2-1.9-.4-3.2-.8-3.9-1.6.1-3.2.2-4.9.2-.1.1-.3.1-.4.2-1.4.8-3.4.8-4.8,2.2h0Z" style="fill:#e9a510;"/><path d="M242,4.9h.2c.2,0,.4,0,.5.1h0c.5-.4,1-.9,1.6-1.3,1.8-1.1,8.2,1.4,8.8,3.4.2.6-.1,1.5.8,1.7.7.1,1.3-.5,1.6-1.1,1-1.9,2.2-1.9,4.2-1.7,2.5.2,5.4.1,7.2-2.4h0c-.9-.6-1.1-1.2-1.1-1.9-8,.5-16,1.2-24,2,0,.4.1.8.2,1.2h0Z" style="fill:#dba716;"/><path d="M248.2,161.4c-.3.2-.6.4-.8.5h.8v-.5h0Z" style="fill:#f5a912;"/><path d="M236.6,169.7h-.1c0-.07.03-.07.1,0q.07.07,0,0Z" style="fill:#f5a912;"/><path d="M232.3,148.3c.5.8.7,1.6.7,2.6-.1,1.7-1.2,2.6-2.9,2.8-.3,0-.6.1-.8.2-.6,1.8-.9,3.6-.9,5.6s0,1.3.1,2c1-1.1,2.3-1.7,4.2-1.1v-.9c0-3.5,1.2-6.7,3.2-9-.9-1.1-1.6-2.3-2.2-3.5-.6.3-1,.8-1.4,1.3h0Z" style="fill:#f5a912;"/><path d="M229.7,165.2c.6,1.8,2.1.7,3.2.4.3-.1.6-.1.8-.1-.1-.3-.3-.6-.4-1-.7.1-1.4.2-2.2.4.4-1.1,1.1-1.6,1.8-2-.1-.5-.2-1-.2-1.5-.4.3-.7.5-1.1.7-1.2.7-2.4,1.6-1.9,3.1h0Z" style="fill:#f5a912;"/><path d="M258.6,95.6h0c-.9-.7-1.7-.8-2.4-.6v2.1c.9-.5,1.6-1,2.4-1.5h0Z" style="fill:#f5a912;"/><path d="M183.1,176.2h8.5v-3.8h-8.4c-.1,1.3-.2,2.5-.1,3.8Z" style="fill:#f5a912;"/><path d="M178.3,146.6h.7c-.3-.1-.5-.1-.7,0Z" style="fill:#f4af17;"/><path d="M129.7,166.5c-1.1-2-1.7-4.4-1.7-7,0-4.1,1.6-7.7,4.1-10.1.3-.4.6-.7.8-1.1,1.2-1.7,3.3-3,3.2-5.5-7.3,1.9-12.4,8.5-12.4,16.7s.4,4.2,1,6.1c1.7,0,3.4.4,5,.9h0Z" style="fill:#f4af17;"/><path d="M153,170.4c.1-.1.2-.2.3-.2l-2.1-2.1h-.1c-1,1-1.9,1.8-3,2.5,1.7,1.2,3.2,1.3,4.9-.2h0Z" style="fill:#f4af17;"/><path d="M142.7,172.8c-.7.1-1.4.2-2.1.2s-1.2-.1-1.8-.1c.5.3,1,.6,1.5.7.9.2,1.7-.2,2.4-.8h0Z" style="fill:#f4af17;"/><path d="M167.1,157c1.3-1,2.6-1.9,4.1-2.7v-3c-1.4.3-2.8.8-4.1,1.3v4.4h0Z" style="fill:#f4af17;"/><path d="M107.7,170.4c1.3-2.3,2-5.1,2-8.5v-7.6c-.4.1-.7.1-1.1-.3-.9-1.1.5-1.9,1-2h0v-4.5c-.6-.4-1.6,0-2.3.1-.6.1-1.2.6-1.8,1.4v13.2c0,2.4-.5,4.5-1.3,6.1,1,.1,1.8.6,2.6,1.4.3.3.6.5.9.7h0Z" style="fill:#f4af17;"/><path d="M143.1,176.6c.7,0,1.4-.2,2-.4-.8-.8-1.5-.8-2,.4Z" style="fill:#d9a716;"/><path d="M167.8,164.5c.4-1.6-.1-2.6-.8-3.6v15.3h12.4s-.1-.3-.1-.4c-.3-1.5-.9-2.6-1.7-3.3h-6.6v-2.7c-2.5-1.1-3.8-2.6-3.2-5.3h0Z" style="fill:#d9a716;"/><path d="M134.7,173c-.7-1.4-2.2-2.6-3.5-2.5-1.8.1-3.3-1.3-5-1.9.8,1.4,1.8,2.6,2.9,3.7h.1c1.3.1,2.8,0,3.8,1.3,0,.6-.5.8-1,.9,1.9,1.1,4.1,1.8,6.5,2.1-1.4-1-3-1.9-3.8-3.6h0Z" style="fill:#d9a716;"/><path d="M133,173.6c-1-1.3-2.5-1.2-3.8-1.3h-.1c.9.8,1.9,1.6,3,2.2.4-.1.9-.3.9-.9h0Z" style="fill:#cea91b;"/><path d="M183.1,176.2c-.1-1.2,0-2.5.1-3.8h-2.1c.5,1.2.6,2.5.7,3.8h1.3Z" style="fill:#e9a411;"/><path d="M293.2,172.4c-1.2.3-2.4.5-3.7.5-2.6,0-4.9-.7-6.9-2-1.6.9-3.5.7-5.4.8,3,3.1,7.3,5,12.2,5s5.7-.7,8.1-2c-1.6-.5-3.1-1.2-4.3-2.3h0Z" style="fill:#e7a008;"/><path d="M246.9,174.5c-.8,0-1.6.2-2.1-.7-1.8.7-1.3,1.8-.9,2.9h1.5c.2-.6.2-1.3,1.1-1.2.7,0,1.7.5,2,1,3.7-.6,6.6-2,8.5-3.4-1.9.5-3.8,1.2-5.6,2.1-2.1.9-3.1-.8-4.5-.8v.1Z" style="fill:#e7a008;"/><path d="M629.1,148.6c-.4.4-.8.8-1.1,1.2,2.6,2.3,4.2,5.7,4.2,9.7,0,7.6-5.5,12.8-13.5,12.8h-7.5v-14.3c-.2,0-.5-.1-.7-.1-1.8-.2-3,.6-3.4,2v2.4c.2,1.3.2,2.3,0,3.1v10.7h2.9c1.7-1.4,3.7-2.1,6.2-1.7.6,0,1.3-.3,1.9-.6,4.1-2.2,8.3-2.5,12.7-1.7,3.6-3,5.8-7.4,5.8-12.7s-2.2-9.7-5.8-12.6c-.5.6-1,1.3-1.7,1.8h0Z" style="fill:#08a5a9;"/><path d="M666.6,142.9v-.1h-15.4v33.4h.6c2-1.5,4-3.1,6.6-3.8h-3v-11.2h8.2c1.1-1.2,2.1-2.4,3.1-3.8h-11.3v-10.9h13.2c.8-.7,1.5-1.6,2.2-2.5.3-.4.6-.8.8-1.2h-3.4c-.5.3-1,.4-1.5,0l-.1.1Z" style="fill:#08a5a9;"/><path d="M673.6,175.1c-1.3-.4-2.7-.6-3.7-.4-1.8,0-3.8.5-5.3,1.4h11v-1.8c-.5.8-1.2,1-2,.8Z" style="fill:#08a5a9;"/><path d="M553.6,161.3h13.7v14.9h4.1v-20.3c-1.1-1.1-1.2-2.7,0-4.2v-8c-.7-.3-1.7-.4-2.5-.6-.3-.1-.6-.2-.9-.4h-.7v14.8h-14.6c.2.9.4,1.8.7,2.7,0,.4,0,.7.2,1.1h0Z" style="fill:#0ab2b6;"/><path d="M621,144.2c.9.7,1.7,1.8,2.2,3,1.9.5,3.5,1.4,4.9,2.6.3-.4.6-.9,1.1-1.2.7-.6,1.2-1.2,1.5-1.8-2.9-2.4-6.8-3.8-11.2-4,.4.5.9,1,1.5,1.4Z" style="fill:#0ab2b6;"/><path d="M607.1,162.4v3.1c.3-.9.3-1.9,0-3.1Z" style="fill:#0ab2b6;"/><path d="M667.9,142.8h-1.5c.6.4,1.1.3,1.4,0h.1Z" style="fill:#0ab2b6;"/><path d="M610.5,158c.2,0,.5.1.7.1v-7.2c-1.5.8-2.8,1-4.1.2v8.9c.4-1.4,1.6-2.2,3.4-2h0Z" style="fill:#0ab2b6;"/><path d="M512.6,144h0c-.8.8-1.2,1.7-1.3,2.6h4.2v10.8c1.3.8,1.9,2.1,2,3.9h0c.8-.6,1.5-1,2.2-1.4v-13.3h11.1v-3.3c-.4-.1-.7-.2-1.1-.3-.3-.1-.6-.1-.9-.2h-12.3c-1.3.4-2.7.5-3.9,1.2h0Z" style="fill:#0bbea8;"/><path d="M544.4,142.8v30.5c1.4-.4,2.8-.3,4.1.2v-12.1h5c0-.4,0-.8-.2-1.1-.3-.9-.5-1.8-.7-2.7h-4.1v-14.7h-4.1v-.1Z" style="fill:#0bbea8;"/><path d="M607.8,21.5c-1.1-.9-2.2-1.7-3.7-1.1-1.5.7-1.7-.7-2.3-1.4-.7-.9.2-1.4.8-1.9,4-3.5,5.3-5.8,4.7-9.5-.9-.1-1.9-.2-2.8-.3-.6,3.5-1.9,6.7-4.9,9.5-1.4,1.3-.4,3.4.4,4.8.8,1.4,2.3,1.5,4,1,2.4-.7,3,.4,2,2.5,0,.2-.2.4-.3.6,2.8.4,5.7.7,8.7,1.1v-.4c-2.2-1.6-4.5-3.2-6.6-4.9h0Z" style="fill:#0aae7f;"/><path d="M602.7,17.1c-.6.5-1.5,1-.8,1.9.5.7.8,2.1,2.3,1.4s2.5.1,3.7,1.1c2.1,1.7,4.4,3.3,6.6,4.9,1.8-.6,4-.5,5-2.6,1.3-2.5,2.5-5,5.9-2.5.2.2.9-.1,1.3-.3,2.7-1.4,4.7-3.1,4.5-6.6,0-1-.3-2-.3-3-4.5-.9-9-1.7-13.6-2.4-3.2-.5-6.5-.9-9.8-1.3.5,3.5-.8,5.9-4.8,9.4h0Z" style="fill:#119860;"/><path d="M611.2,150.9v-4.2h7.5c1.6,0,3.1.2,4.4.6-.6-1.2-1.3-2.4-2.2-3-.6-.4-1.1-.9-1.5-1.4h-10.7c-.5.2-1.1.4-1.7.6v7.6c1.4.8,2.8.5,4.2-.2Z" style="fill:#0ababd;"/><path d="M571.3,143.8v-1h-3.4c.3.2.6.4.9.4.9.2,1.9.2,2.5.6Z" style="fill:#0ababd;"/><path d="M571.3,155.9v-4.2c-1.2,1.6-1.1,3.1,0,4.2Z" style="fill:#0ababd;"/><path d="M530.8,143.3v-.5h-1.9c.3.1.6.1.9.2s.6.2,1,.3Z" style="fill:#0ababd;"/><path d="M548.6,142.8h0q-.07,0,0,0Z" style="fill:#0ababd;"/><path d="M579.7,6.3h0v-1.6c-.7-.1-1.5-.1-2.2-.2,0,.3.2.7.2,1.1.7.3,1.4.5,2.1.7h-.1Z" style="fill:#0bcfba;"/><path d="M589.4,6.5c-.2-.3-.6-.6-1-1-1.5-.1-3-.3-4.5-.4-.3,2.3-2.1,1.9-4.2,1.2h0c-.7-.2-1.4-.5-2.1-.7h0c0,2,.3,3.5,2.8,3.8,2,.3,3.5,1.6,2.6,4-1,2.7-.8,4.9,2.1,6.4,1.5.8,1.9,2.5,2.6,3.9,3.8.4,7.8.8,12.1,1.2-1.1-2.4-1.9-5-2.4-7.8-.8-4.1-5.7-6.7-8-10.6h0ZM595.5,17.2c-.3,1.6-1,3-2.8,3.5-.9-.6-2.6-.3-2.5-1.9.2-2.3,2.5-1.9,3.9-2.6.8-.3,1.6,0,1.4,1h0Z" style="fill:#0bcdd0;"/><path d="M493.3,19c1.4.2,2.5.3,2.7-1.1.4-2.6,2.6-3.9,4-5.8,2.3-3.1,1.9-5.3-1.2-7.6-1.2-.9-2-1.5,0-3.3.2-.2.3-.4.5-.5-1.8,0-3.6-.1-5.4-.1h-1.3c.8,1.4,1,3.3,2.6,4.3,1.2.8,1.5,2.7-.7,3.5-1,.3-1.4.9-1.1,1.8.4,1.2,1.1-.1,1.6.1,1.3.5,2.5,1.5.9,2.7-1.3.9-2,2-2,4.1-1.5-1.4-1.5-3.2-3.3-3.1h0c-.4,0-.9.1-1.3.1h0c-.5.8-1.1,1.9-1.9,1.8-4.6-.6-5,3.1-6.1,5.9,0,.07-.03.13-.1.2h3.1c1.6-2.9,4.9-3.7,9.1-3h-.1Z" style="fill:#0cf9d0;"/><path d="M439.4,2.2c3.7.3,7.1-1.2,10.8-1.6.6-.1,1-.2,1.4-.5h-11c-.4.6-.8,1.3-1.1,1.9,0,.07,0,.13,0,.2h-.1Z" style="fill:#1ed146;"/><path d="M517.5,161.3h-.8c0,.7.2,1.4,0,2.1-1,3,.5,3.9,3,4.1v-7.6c-.6.4-1.3.9-2.2,1.4h0Z" style="fill:#0bb38f;"/><path d="M544.4,173.3v2.9h4.1v-2.7c-1.2-.5-2.7-.6-4.1-.2Z" style="fill:#0bb38f;"/><path d="M285.2,67.6h0c-1.4-1.3-3.1-1.4-3-3.2h0c-1.7-.3-3.7-1.6-4.9-.3-1.5,1.6-3.6,2-4.9,3.6-1.8,2.2-3.4,1-5-.1-.4-.3-.5-1-.9-1.4-.6-.5-1.4-.5-1.8.1-.4.5,0,1.1.5,1.4,1,.6,2.4,1.3,1.5,2.6-.1.1-.2.3-.3.4h11.7c1.3-1.6,4.2-2.3,7.1-3.1h0Z" style="fill:#f5b019;"/><path d="M257.3,84.3h-1v.4c.3.1.6.3,1,.5v-.9Z" style="fill:#f5b019;"/><path d="M258.6,95.6h0c3.1,1,5.2.2,5.1-3.1-.1-3.9,2.4-4.4,4.8-5.6.9-.4,1.9-.8,2.9-.9,1.7-.3,1.9-.9,1.5-1.7h-12.2c.2.3.3.6.5.9-1.4.3-2.6.5-3.9,0h0c-.5,1.9.5,4.3,2.2,4.8,1.4.4,1.7,1.5,1.8,2.6.1.6,0,1.2-.7,1.4-1.2.3-1.6-.6-2.1-1.4-.6-1.2-1.5-.8-2.3-.3v2.6c.8-.1,1.5,0,2.4.7h0Z" style="fill:#f5b019;"/><path d="M301.3,67c2.7-.7,3.8-5,1.6-6.6-2.3-1.7-4.7-3.2-5-6.5-.1-1-1.3-1.1-2.2-1.4-1.6-.6-3.3-.9-4.7-1.9-1.5-1.1-3.4-.9-4.3.6-1.1,1.6-3.2,2.3-3.7,4.3,0,1.9,2,3.5.7,5.6h0c.2,1.4-.7,2.4-1.4,3.4h0c-.1,1.7,1.6,1.9,3,3.1h0c-2.8.7-5.7,1.4-7,3.1h21.8c-.7-1.5-1.5-3,1.2-3.7Z" style="fill:#f5a912;"/><path d="M262.7,58.8c1.6-.9,4.3,1.1,4.5,3.1.2,2.3,3.6,4.6,5.3,3.9,2.2-.9.5-3.7,2.2-4.2,1.5-.5,2.7,2.8,4.7.8h0c-3.2-.7-6-3.4-5.2-5.9.6-1.8-.1-3.2-.3-4.7-.1-.9-.2-2.3-1.4-1.6-.8.5-3.3,1.1-1.9,2.8,1.4,1.7.9,2.9-.2,4.1-1.4,1.5-3.1,1.4-4.7.6-1.1-.5-2.1-1.3-3.2-.8-2,.8-3.2-.3-4.5-1.4h-.7c-.3.2-.7.3-1,.5v1.6c.4.1.8.3,1.2.7,1.6,1.3,3.1,1.7,5.2.5Z" style="fill:#deaf1e;"/><path d="M275.8,52.3c1.5,3.7,2.2,8,7.1,8.7h.7c1.3-2.1-.7-3.7-.7-5.6-1.9-.5-4.2-.4-3.5-3.5h0c-1.1,1.3-3.7.1-3.6.4Z" style="fill:#deaf1e;"/><path d="M275.2,19.9c-.9-2-2.5-2.7-3.4-.7-.4,1-1,1.9-1.6,2.8h7.8c-1.3-.7-2.5-1.5-2.8-2.1h0Z" style="fill:#e2af1e;"/><path d="M280.3,7.3c2.7.5,6.2-.9,8.1,2.5,3,1.5,4.2,3.9,3.3,7-.9,3.1-3.2,4.3-6.3,4.1-1-.1-1.6.5-2.2,1.1h25.9c.6-.8,1.4-1.6,2.4-2.2.8-.5,2.1-1.5,1.3-1.9-3-1.5-.8-5-3-6.6-2.7,3.7-6.9,3.7-10.8,4.5-1.1.2-2.1-.3-2.3-1.5-.2-1.3-.5-3.1,1.2-3.5,3.9-.9,2.3-4.2,2.5-6.2.1-1.6-1.5.1-2,.6-3.3,2.7-4.4,2.7-7.3-.1h0c-.1-.1-.1-.2-.2-.3h0c-.8-1.3-1.5-2.5-1.8-4-3.9.1-7.9.2-11.9.4.4.8.5,2,.8,3.9.2,1.5.5,1.8,2.3,2.2Z" style="fill:#e2af1e;"/><path d="M266.9,3.6h0c1.4-1.4,3.3-1.4,5-2.1.2-.1.3-.1.4-.2-2.2.1-4.3.2-6.5.4,0,.6.3,1.3,1.1,1.9h0Z" style="fill:#e2af1e;"/><path d="M348.6,21.6c-2.8,1.9-5.8,2.2-9,1.4-1.7.5-2.9.8-3.3,3.4-.2,1.6-2,2-3.9,2.3.7,1.3,1.3,2.8,1.5,4.4,1.4-.5,2.6-1.2,2.9-3.1.1-.3.2-.6.4-.9,3,2.6,4.9-1.2,7.5-1.3,2.7-.1,3.6,1.4,5.1,2.9s3,3.2,3.9,5.2v-.3c0-2.4-.2-4.7-.6-6.9-1-1.2-1.7-2.6-1.4-4.7v-.5c-.1-.2-.2-.5-.2-.7-.5-1-1.7-1.3-2.9-1.2h0Z" style="fill:#d1cd31;"/><path d="M320.6,50.7c-.2,1.5-1.5,3.5,1.3,4,1.7.3,5.3-2.2,5-3.8-.2-.9-.2-2-.5-2.9-1.4.6-2.9,1-4.6,1h-1c.1.6,0,1.1-.2,1.7h0Z" style="fill:#d1cd31;"/><path d="M373.3,26c1.8.1,1.9.7,1.2,1.7-1.4,1.8-.8,3.7-.9,5.6,1.6,1,3,.9,4.1-.7h0c.7-2.2,1.5-4.2,3.4-5.6h-1.4c-2.8-1.4-5.4-3-8.5-3.7-.7,1-1.4,2-2,3.1,1.2-.3,2.6-.5,4.1-.4h0Z" style="fill:#d1cd31;"/><path d="M352.1,41.7c.5-3.2-3.2-3.2-4.2-5.3-.3-.6-1.2.2-1.6.8-1.2,2.1-2.8,1.3-4.4.7-.9-.3-1.6-2.5-2.7-1.1-.9,1-1.2,3.2,0,4.2,2.1,1.7,2.3,4.2,3.4,6.3.8,1.6,1.6,4.1-2.1,3.6-1.2-.2-1.5.9-1.6,1.8h0c.6,2.5.3,4.7-1,7.2-1,2-2.4,4.4-1.4,7.1.4,1-.6,1.4-.9,2.1,0,.1.1.1.1.2,2.8-.8,3.7-3.5,5.3-5.4-.4-2.9,1.5-4.7,3.5-6.3h0c.2-4.5,1.7-6.2,5.7-5.8,1.2-2.6,2.2-5.4,2.8-8.4h-.1c-1-.2-.9-1.1-.8-1.7h0Z" style="fill:#d1cd31;"/><path d="M324,67.1c3.1.2,6,.7,4.9-4.2-.3-1.5,1.7-2.6,2.5-4,.3-1,2.1-1.9.9-2.9-1.5-1.3-3.6-1.5-5.6-1-.8.2-1.6.8-2.3,1.3-2.7,2.2-6.7,1.6-8.1-1.4-.6-1.3-1.5-1.9-2.3-2.8h0c-2.4.2-4.6-.3-6.1-2.5-.1-.2-.3-.4-.4-.5h-2.5c-.6.5.1,1.2.4,1.8.6,1.5-.4,2.2-1.5,1.7-3.5-1.7-7.7-1-10.9-3.5h-7.2c-.5.3-1.1.8-1.6,1.4-.9,1.1-2.5.3-3.9.5-.1,0-.2.1-.3.1-.2.1-.4.2-.6.2v.6h0c-.7,3.1,1.7,3,3.5,3.5.5-2,2.7-2.7,3.7-4.3,1-1.4,2.8-1.7,4.3-.6,1.4,1,3.1,1.4,4.7,1.9.9.3,2.1.4,2.2,1.4.3,3.3,2.7,4.8,5,6.5,2.2,1.6,1.1,5.9-1.6,6.6-2.6.7-1.8,2.2-1.3,3.7h20.5c0-.2,0-.4-.1-.6-.2-2,1.5-3.1,3.7-2.9h0Z" style="fill:#e8ab1a;"/><path d="M344.7,27.7c-2.6.1-4.5,4-7.5,1.3-.1.3-.3.6-.4.9-.3,1.9-1.5,2.6-2.9,3.1.1.4.1.7.1,1.1.6,6.3-2.8,11.8-7.7,14,.3.9.4,2,.5,2.9.3,1.5-3.3,4.1-5,3.8-2.9-.5-1.6-2.5-1.3-4,.1-.6.3-1.1.2-1.6h-8.4c.8.8,1.8,1.5,1.5,3h0c.8.9,1.7,1.6,2.3,2.8,1.4,3,5.3,3.6,8.1,1.4.7-.6,1.5-1.2,2.3-1.3,2-.4,4.1-.3,5.6,1,1.2,1-.7,1.9-.9,2.9.8.4,1.5,1,2.1-.4,1.1-2.6,3.1-4.3,5.5-5.8h0c.1-1,.4-2,1.6-1.8,3.7.5,3-2,2.1-3.6-1.1-2.1-1.3-4.6-3.4-6.3-1.2-1-.8-3.1,0-4.2,1.1-1.4,1.7.7,2.7,1.1,1.6.6,3.3,1.4,4.4-.7.4-.6,1.3-1.4,1.6-.8,1,2.1,4.6,2.1,4.2,5.3-.1.6-.2,1.6.7,1.7h.1c.5-2.4.8-5,.8-7.6-.9-1.9-2.3-3.5-3.9-5.2-1.4-1.7-2.3-3.2-5-3h0Z" style="fill:#dcb323;"/><path d="M257.3,55.5h.7c.3-.2.7-.4.8-.6.4-1.3,3.5-4.3,5.9-5.8h-8.3v1.8c.1,0,.2-.1.4-.1s.2-.1.3-.1c-.1.1-.2.1-.3.2-.2.1-.3.3-.4.4v2.4c.4.5,1.1,1,.9,1.8h0Z" style="fill:#c7a016;"/><path d="M279.4,51.3c.2-.1.4-.2.6-.3.1,0,.2,0,.3-.1,1.4-.2,3.1.6,3.9-.5.5-.6,1-1.1,1.6-1.4h-10.2c0,.1-.1.3-.1.4,1.1,1.3,4.2-1.9,3.9,1.9h0Z" style="fill:#deaf1e;"/><path d="M291.7,16.8c.9-3.2-.3-5.6-3.3-7-3.1-.6-6.2-1-9.4-.7-3.3.3-7.1,2-9.3-2.5-.2-.5-1.5-.4-2.2.1s-.5,1.3.1,1.8c3.3,2.7,6.1,5.8,8.4,9.5,1,1.5,2.4,3.2,4.5,4h2.9c.6-.6,1.1-1.2,2.2-1.1,2.9.2,5.2-1,6.1-4.1h0Z" style="fill:#f5b017;"/><path d="M167.1,152.7c1.3-.6,2.7-1,4.1-1.3v-4.8h7.1c.2-.1.5-.1.7,0h12.3v-3.8h-24.2v9.9h0Z" style="fill:#f5a912;"/><path d="M133,148.3c-.3.4-.6.7-.8,1.1,2.2-2.1,5.1-3.3,8.5-3.3,4.9,0,8,2.4,10.2,4.5h.1c0,.1,2.8-2.9,2.8-2.9h-.1c-2.9-2.8-6.5-5.4-13-5.4s-3.1.2-4.5.6c.1,2.4-2,3.7-3.2,5.4h0Z" style="fill:#f5a912;"/><path d="M261,102.6c-.2,1-.3,1.8.7,2.4s1.7,0,2.4-.7c3.6-3.3,6.6-6.9,7-12.2.1-1.9,2.4-4.1,4.7-5.2v-2.6h-2.9c.4.8.2,1.4-1.5,1.7-1,.2-2,.5-2.9.9-2.4,1.1-4.9,1.7-4.8,5.6.1,3.3-2,4.1-5.1,3.1h0c-.8.5-1.6,1-2.4,1.5v5c.9-.3,1.8-.7,2.6-1,1.8-.8,2.6-.4,2.2,1.5h0Z" style="fill:#f5a912;"/><path d="M245.5,142.7h0c-.2-.1-.4-.3-.5-.4-4.4,0-8.4,1.8-11.3,4.7.6,1.2,1.3,2.4,2.2,3.5,2.2-2.7,5.5-4.4,9.2-4.4s1.4,0,2,.1c-.1-.4-.2-.7-.2-1.1-.2-.9-1-1.6-1.4-2.4h0Z" style="fill:#f5a912;"/><path d="M256.1,165c.8.7,1.8,1.1,2.7,1.5v-8.3h-11.5c-.5.1-.9.1-1.5,0h-1v2.4c1.3-.4,2.6-1.1,3.5.8h0v.5h6.6v3.3c.1-.1.2-.1.3-.2.1-.2.7-.2.9,0h0Z" style="fill:#f3a517;"/><path d="M321,145.6v.8c.1-.1.2-.1.3-.2.2-.3,0-.5-.3-.6h0Z" style="fill:#f3a517;"/><path d="M252.2,147.1c.3-1.4,1.6-.9,2.6-.5.8.3,1.7.2,2-.5-.9-.7-1.8-1.3-2.7-1.8-1.2.4-2.4.9-3.4-.4-.3-.4-.4-.8-.3-1.1-1.3-.3-2.8-.5-4.3-.6-.2.1-.4.3-.6.4h0c.4.8,1.2,1.6,1.3,2.4,0,.4.1.7.2,1.1,2.2.2,3.9.9,5.3,1.7-.1-.2-.1-.4-.1-.7Z" style="fill:#f3a517;"/><path d="M272.4,159.5c0,2.9.7,5.7,1.9,8h3.7l.7-.7c-1.3-2.1-2-4.7-2-7.4,0-7.6,5.5-13.4,12.7-13.4s12.8,5.8,12.8,13.5-.1,2.2-.4,3.2c.7-1.5,1.6-2.9,2.1-4.5.2-.8.7-2.7,1.9-3.4-1.9-7.4-8.3-12.6-16.4-12.6s-17,7.6-17,17.3h0Z" style="fill:#f3a517;"/><path d="M254.5,149.5c.1.1.3.2.4.3h.1c0,.1.3-.2.3-.2-.2,0-.4,0-.7-.1q-.2-.07,0,0h-.1Z" style="fill:#f3a517;"/><path d="M233,151c.1-1-.2-1.9-.7-2.6-1.3,1.6-2.4,3.5-3,5.6.2-.1.5-.1.8-.2,1.7-.2,2.8-1.1,2.9-2.8Z" style="fill:#edaa13;"/><path d="M234.7,170.3c-.2,1.1-.5,1.8-.9,2.3,1.5,1.3,3.2,2.4,5.1,3.1.2-.4.3-.9.3-1.5.2-2,1.7-1.4,3.1-1.1.2-.1.4-.2.5-.2h0c-2.5-.5-4.6-1.5-6.2-3.1h-.1c-.7,0-1.7-.2-1.8.5h0Z" style="fill:#edaa13;"/><path d="M167.1,160.9c.7,1,1.1,2.1.8,3.6-.6,2.7.6,4.2,3.3,5.2v-8.4c-.6-.4-1.2-1-1.7-1.9-.4-.7-1.6-1.1-.6-2.1.7-.7,1.5-1.7,2.3-1.5v-1.5c-1.5.7-2.8,1.7-4.1,2.7v3.9h0Z" style="fill:#e9ae1b;"/><path d="M179.4,175.8s.1.3.1.4h2.2c0-1.3-.2-2.5-.7-3.8h-3.3c.8.8,1.4,1.8,1.7,3.4h0Z" style="fill:#e9ae1b;"/><path d="M176.2,161.2h.3c2.6-1.9,4.9-1.1,7.2,0h5.5v-3.7h-12.6c-.5,1.2-1.1,2.4-.4,3.7Z" style="fill:#b8c620;"/><path d="M253.7,171.4c1.6-1.1,3.4-1.3,5.1-1.2v-3.7c-1-.3-1.9-.8-2.7-1.5-.2-.2-.8-.2-1,0s-.2.1-.3.2v4.7c-2.1,1.7-4.9,2.8-7.8,3.1.1,0,.3,0,.5.1,2.4.4,4.3-.4,6.2-1.7h0Z" style="fill:#faaa0d;"/><path d="M242.7,173.1c.8,0,1.6-.1,2.1.7h0c.5.8,1.3.7,2.1.7,0-.4-.8-1.2-.4-1.5h-.9c-.9,0-1.8-.1-2.7-.2h0c-.1.1-.1.2-.2.3h0Z" style="fill:#faaa0d;"/><path d="M228.5,161.5c.4,4.5,2.3,8.3,5.3,11,.4-.4.7-1.1.9-2.3.1-.7,1.2-.6,1.8-.6h0c-1.1-1.2-2-2.6-2.7-4.1-.3,0-.5,0-.8.1-1.1.3-2.5,1.4-3.2-.4-.6-1.6.7-2.5,1.9-3.2.3-.2.7-.4,1.1-.7,0-.3-.1-.7-.1-1-1.9-.4-3.2.1-4.2,1.2Z" style="fill:#faaa0d;"/><path d="M231.2,164.9c.8-.1,1.5-.2,2.2-.4-.2-.5-.3-1.1-.4-1.6-.7.4-1.4.9-1.8,2Z" style="fill:#f5a912;"/><path d="M248.2,161.4c-.9-2-2.2-1.2-3.5-.8v1.4h2.6c.4-.3.7-.5.9-.6h0Z" style="fill:#f5a912;"/><path d="M126.1,168.6c1.7.6,3.2,2,5,1.9,1.3-.1,2.8,1.1,3.5,2.5.9,1.7,2.4,2.6,3.9,3.6h2c.7,0,1.8,0,2.6-.2.5-1.2,1.1-1.2,2-.4,3.9-1,6.6-3.2,8.7-5.3h.1c0-.1-.6-.7-.6-.7-.1.1-.2.2-.3.2-1.8,1.5-3.3,1.4-4.9.2-1.6,1.1-3.3,1.8-5.5,2.1-.6.7-1.4,1-2.4.7-.5-.1-1-.4-1.5-.7-3.9-.6-7.2-2.9-9-6.3-1.6-.5-3.3-.9-5-.8.4,1.2.9,2.2,1.4,3.1v.1Z" style="fill:#eaa912;"/><path d="M321,163.1c1-.2,2.3-.2,4-.3h.1v-15.8c-.3-1-.5-2-.8-3-1.1-.9-2.2-.2-3.3,0v1.6c.3.1.5.3.3.6-.1.1-.2.1-.3.2v16.7h0Z" style="fill:#eb9c07;"/><path d="M278.7,166.9l-.7.7c-.8.9-.3,3-1.8,2.9h-.1c.4.4.7.9,1.1,1.3,1.9-.1,3.8.1,5.4-.8-1.6-1.1-2.9-2.5-3.9-4.1Z" style="fill:#eb9c07;"/><path d="M303.9,158.3c-.5,1.6-1.4,3-2.1,4.5-1,4.7-4.3,8.3-8.7,9.6,1.2,1.1,2.7,1.8,4.3,2.3,5.4-2.9,9-8.6,9-15.3s-.2-3.2-.6-4.6c-1.2.7-1.6,2.6-1.9,3.5h0Z" style="fill:#eb9c07;"/><path d="M246.9,174.5c1.5,0,2.4,1.7,4.4.7,1.9-.9,3.7-1.6,5.6-2.1.7-.5,1.3-1,1.8-1.4h.1v-1.5c-1.8-.1-3.5.1-5.1,1.2-1.9,1.3-3.8,2.1-6.1,1.6-.2,0-.4-.1-.5-.1-.2,0-.4,0-.6.1-.4.2.3,1,.4,1.5h0Z" style="fill:#eb9c07;"/><path d="M333.8,173.2c-1.6.2-2.7,1.5-3.2,2.9h6.1c-.1-.2-.1-.3-.2-.5s.7-.7,1.1-1.1c1.3-.5,1.7-1.3,1.7-2.2h-3.6c-.3.4-.9.7-1.9.8v.1Z" style="fill:#d89706;"/><path d="M321,163.1v13.1h9.5c.4-1.5,1.6-2.8,3.2-3,1-.1,1.6-.4,1.9-.8h-10.5v-9.6h-.1c-1.7,0-3,0-4,.3Z" style="fill:#df9a0c;"/><path d="M242.7,173.1c-.1,0-.3-.1-.4-.1-1.3-.3-2.9-.9-3.1,1.1,0,.6-.2,1-.3,1.5,1,.4,2.2.7,3.3.9-.3-1,.3-2.2.5-3.4Z" style="fill:#faaa0d;"/><path d="M246.4,175.5c-.9,0-.9.6-1.1,1.2,1.1,0,2.1,0,3-.2-.2-.4-1.2-.9-1.9-1Z" style="fill:#cba113;"/><path d="M244.8,173.8h0c-.5-.8-1.3-.7-2.1-.7h0c-.2,1.1-.8,2.4-.5,3.4.5,0,1.1.2,1.7.2-.4-1.1-.9-2.2.9-2.9h0Z" style="fill:#edaa13;"/><path d="M607.1,142.8v.6c.6-.2,1.1-.4,1.7-.6h-1.7Z" style="fill:#0bcacd;"/><path d="M544.3,94.5c-1.3.9-3.4.1-4.6,1.7h0c1.9-.2,3.9,1.4,6.2-1.2-.5,3.1-1.6,4.4-3.6,4.5-1.6.1-2.8.9-4.1,1.5,1.1,1.3,2.3.4,3.5.1,1.1-.3,2.1.1,2.7,1,.8,1.1,0,2-.7,2.7-1.2,1.3-2.8,2-4.5,2.4-1.2.2-2.2,0-3-1.2-1.2-1.9-.7-3.5.6-5h0c-.6-.5-1.3-1-1.8-1.5s-1.2-1.4-.6-2.4c.6-.9,1.5-1,2.4-.8s1.9,1,2.7-.1h0c-1.2-.1-1.7-.9-2.3-1.9-.5-.8-1.3-1.9-2.1-1.6-2.3,1-3.6-.4-4.9-1.6-1.6,1.2-3.2,2.2-4.9,3-.3.8-.8,1.5-1.2,2.2-1.4,2-2.9,3.9-1.9,6.6.7-1.9.8-4.2,3.2-4.8,2.6-.6,4.4,1.6,5.8,3,1.9,1.9,0,4-1.5,5.6-1.6,1.7-2.7.9-3.7-.8-.7-1.1-1.6-2.3-3.2-2.3-.2,2.4,0,4.6,2.4,6,.8.4,2.2,1.2,1.4,1.9-1.4,1.4-1.3,4.9-3.1,4.3-3.9-1.2-5.6.7-7,2.9,5.8-.8,11.4-2.6,16.6-5.2h0c-1.4-3-.3-4.8,2.9-5.2,1.9-.3,3.5-.2,4.6.6,2.8-2.1,5.4-4.4,7.9-6.9-.7-2-.6-4.2-1.2-6.2-.5-1.5-.7-2.8-3-1.3h0ZM531.6,98.7c0,.1-.4.3-.6.2-1.5-.5-1.2-1.8-1.3-3,1,.8,2.1,1.3,1.9,2.8h0Z" style="fill:#0bcdd0;"/><path d="M504.5,144.7c1.4-.4,2.9-.9,4,.7,1.6,0,2.5-1.8,4.2-1.4h0c1.2-.7,2.6-.8,3.9-1.2h-12.1v1.9h0Z" style="fill:#0bcdd0;"/><path d="M490.5,145.6v-2.8h-3.6c.8,1.1,2,2,3.6,2.8Z" style="fill:#0bdcbe;"/><path d="M512.6,144c-1.7-.4-2.6,1.4-4.2,1.4v.2c0,.3-.2.6,0,1h3.1c0-.9.5-1.7,1.3-2.6h-.2Z" style="fill:#0bdcbe;"/><path d="M516.8,161.4h.8c0-1.8-.7-3.1-2-3.9v4c.4-.1.8-.1,1.2-.1Z" style="fill:#0bdcbe;"/><path d="M575.7,15.9c-1-1.6-1.5-3.4-3.1-4.7-.8-.7-.2-1.5.5-2,1.5-1.2,3-2.4,4.5-3.5h0c0-.4,0-.8-.2-1.1-6.3-.5-12.6-1-19-1.4-1.2,1.9-2.7,2.8-5.1,2.8s-1.1,1.1-1.2,2.1c-.2,3-1.9,5.9.4,8.8.4.5-.3,1.3-.8,1.8-2.4,2.3-10.6,3.8-13.2,1.9-1.8-1.3-3.1-3.4-3.1-5.9s-.5-3.8-3.2-3.8-1.4-.4-1.5-1.1c-.2-1.1.7-1.4,1.4-1.7,2.5-1,4-2.4,4.9-5.2,0-.3.2-.6.4-.9-3.1-.1-6.2-.3-9.3-.4.6,2.3-.3,4.1-3.5,5.1-1.4.5-2.1,1.8-1.2,3.4.6,1.1,1.1,2.3.9,3.6-.6,3.1-1.3,5.9,2.7,7.7,1.9.9,0,3.5.4,5.4,1.7,1,3.3,2.2,4.8,3.5,1.8-.3,3.1.4,4.6,1.4,1.4,1,2.8,2,4.4,2.6,1.2.5,2.6,1.3,2.2,3.1-.3,1.3-.6,2.9-2.1,3.3-.2.1-.4.1-.6.2.7,1.3,1.3,2.6,1.9,3.9.4.2.5.7.5,1.2.4,1,.7,2,1,3,.3,1.2.6,2.5.9,3.8.5-.6,1.4-.6,2.1-1,2.1-1.3,2.1-2.9,0-4.5-1.8-1.5-2.5-2.7-.4-5.2,1.8-2.1,4.7-3.3,5.4-7,.4-2.2,3.2-3.9,5.3-5.8-.8-1.5-1.6-2.9-2.5-4.2-.3-.1-.5-.3-.5-.7-.5-.8-1.1-1.6-1.6-2.3h2.9c1-1,2.5-1.8,4.2-1.6,1.3.1,2.2.8,2.4,1.7,3.5.1,8.3.3,14.1.8,2.1-1.7,1.6-3.3-.8-7.1h.1ZM539.1,30.3c-.7.1-.8-.6-.8-1.2s.2-1.2,1-.9c.3.1.7.6.8,1,0,.6-.5,1-1,1.1ZM567.3,7.3c-2.7,1.5-4,3.3-1.5,6.1.5.5.2,1.6-.6,2.2-.9.7-1.5,0-2.1-.5-1.5-1.4-3.1-2.9-2.6-5.2.3-1.4,4.9-5,6.3-5s.8.3,1,.7c.3.6,0,1.3-.5,1.7h0Z" style="fill:#0be5e7;"/><path d="M532.2,8c-.7.3-1.6.6-1.4,1.7.2.8.9,1.1,1.5,1.1,2.7,0,3.2,1.5,3.2,3.8s1.3,4.5,3.1,5.9c2.6,1.9,10.8.5,13.2-1.9.5-.5,1.2-1.2.8-1.8-2.3-2.9-.6-5.9-.4-8.8,0-1,.2-2.2,1.2-2.1,2.4,0,4-.9,5.1-2.8-7-.5-14-.8-21-1.2,0,.3-.3.6-.4.9-.9,2.8-2.5,4.2-4.9,5.2h0Z" style="fill:#0bd3d6;"/><path d="M548.6,93.4c.4-1.5,1.1-2.5,2.8-2.5s1.8,1.8,2.2-.3c.3-1.7,2.1-3.3.4-5.1-1.2-1.2-2.2-1-3.6,0-.9.7-2.4,1-3.6.9-2.1-.2-2.9,1.1-3.7,2.4-1.6,2.8-4.3,3.4-6.6,1.1s-1.3-1.4-1.9-2.1c-1.3,1.3-2.7,2.6-4.2,3.7,1.3,1.2,2.6,2.6,4.9,1.6.8-.3,1.6.8,2.1,1.6.5.9,1.1,1.7,2.3,1.8h0c1.2-1.7,3.3-.9,4.6-1.8,2.3-1.5,2.5-.3,3.1,1.6.6,2,.5,4.2,1.2,6.2.8-.9,1.6-1.8,2.4-2.7h0c-1.3-2.2-3.1-3.8-2.5-6.4h.1Z" style="fill:#0bd3d6;"/><path d="M482.1,87.9q.07,0,0,0c1.8-.9,1.8-2.2.7-3.6h-2.7c1.1.9,2.3,1.9,2,3.6Z" style="fill:#0bd3d6;"/><path d="M585.1,19.9c-2.9-1.5-3.1-3.7-2.1-6.4.9-2.4-.5-3.7-2.6-4-2.5-.4-2.9-1.8-2.8-3.8h0c-1.5,1.2-3,2.3-4.5,3.5-.6.5-1.3,1.4-.5,2,1.6,1.3,2.1,3.1,3.1,4.7,2.4,3.8,2.9,5.4.7,6.9,3.5.2,7.3.6,11.4.9-.8-1.4-1.2-3.1-2.7-3.8h0Z" style="fill:#0bd3d6;"/><path d="M552,34.9c-.6,3.7-3.6,4.9-5.4,7-2.1,2.5-1.4,3.7.4,5.2,1.9,1.7,2,3.2,0,4.5-.6.4-1.5.4-2.1,1,.3,1.7.5,3.4.6,5.2.2,3.4,0,6.7-.7,9.8.6.2,1.5.3,2.7.2,1.4-.1,2.4,1.2,3.6.9,2.9-.6,4.7-3.2,7.4-4.4.9-.4,0-1.5-.2-2.2-.5-1-.3-1.9.6-2.4,1.2-.7,2.4.3,2.5,1.2.3,2.2,2.8,2.7,3.6,4.8.2-1.7.3-3.4.3-5.1,0-2.6,0-5.2-.4-7.8-.9-8.6-3.5-16.7-7.3-23.8-2.3,2-5.1,3.8-5.5,5.9h-.1Z" style="fill:#0bd3d6;"/><path d="M559.8,20.4c-1.6-.2-3.1.6-4.2,1.6h2.5c1.1,0,2.4,0,4.1.1-.2-1-1-1.6-2.4-1.7h0Z" style="fill:#0bd3d6;"/><path d="M554.9,24.9c0-.2-.3-.4-.5-.7,0,.5.2.6.5.7Z" style="fill:#0bd3d6;"/><path d="M594.2,16.2c-1.4.7-3.7.3-3.9,2.6,0,1.6,1.6,1.3,2.5,1.9,1.8-.5,2.5-1.9,2.8-3.5.1-.9-.7-1.3-1.4-1h0Z" style="fill:#0bd3d6;"/><path d="M490.2,8.6c1.2,2,1.3,3.5.2,5.3,1.8-.2,1.8,1.7,3.3,3.1,0-2.1.7-3.2,2-4.1,1.6-1.2.5-2.1-.9-2.7-.5-.2-1.2,1.1-1.6-.1-.3-.9.2-1.5,1.1-1.8,2.2-.8,1.8-2.7.7-3.5-1.6-1-1.8-2.9-2.6-4.3-1.5,0-2.9,0-4.4-.1,0,.6,0,1.3-.1,1.9,0,1.9,1.2,4.5,2.3,6.3h0Z" style="fill:#0bfbb8;"/><path d="M502.9,15.2c3-2.6,4.7-6.2,6.4-9.7.2-.4-.4-1.3,0-2.1,2.7.7,4.6.6,3.3-2.4-4.5-.1-9-.2-13.5-.3-.2.2-.3.4-.5.5-1.9,1.8-1.1,2.4,0,3.3,3.1,2.3,3.5,4.5,1.2,7.6-1.4,1.9-3.5,3.2-4,5.8-.2,1.4-1.4,1.3-2.7,1.1-4.3-.7-7.5.2-9.1,2.9h13.6c1.1-1.3,1.9-3,2.9-4.4.6-1,1.4-1.6,2.2-2.3h.2Z" style="fill:#0cfce8;"/><path d="M481.2,16.3c0-2,2.2-2.8,4.2-2.5,1.3.2,2.5.4,3.7.1h0c.4,0,.9-.1,1.3-.1h0c1.1-1.8.9-3.3-.2-5.3-1.1-1.8-2.3-4.4-2.1-6.2,0-.7.1-1.3.1-1.9h-2.8c1.4.9,2.2,2,.7,3.7-.4.5-.5,1.1,0,1.6,2.9,2.5.8,3.5-1.3,4.6-2.4,1.3-3.6,4.4-6.9,4.5-.2,0-.6.6-.6.8,1.2,4.6-2.1,2.2-3.7,2.4-.4.1-1.1-.5-1.3-.3-2.6,2.6-5.6,1.1-8.5,1.3-3.3.2-2.1-1.4-2.5-2.6-.3-1.1,0-2.4-1.8-2.4s-2.9.2-3.5,1.6c-.6,1.3-.7,2.8,1.3,3,.5.1,1.9-.4,1.3.4-.8,1.1.2,2,.7,2.9h18.8c.2-.2.4-.5.6-.8,1.1-1.6,2.5-2.5,2.5-4.8h0Z" style="fill:#0df89c;"/><path d="M487.2,15.8c.8.1,1.5-1,1.9-1.8h0c-1.3.2-2.5.1-3.7-.1-2-.3-4.3.5-4.2,2.5,0,2.3-1.4,3.2-2.2,4.7-.1.3-.3.6-.6.8h2.7c0-.07.03-.13.1-.2,1-2.8,1.4-6.5,6-5.9h0Z" style="fill:#0bfbb8;"/><path d="M458.8,19c.6-.8-.8-.4-1.3-.4-2-.3-1.9-1.7-1.3-3,.7-1.4,2-1.6,3.5-1.6,1.7.1,1.5,1.3,1.8,2.4s-.8,2.8,2.5,2.6c2.9-.2,5.9,1.4,8.5-1.3.2-.2.9.3,1.3.3,1.6-.2,4.9,2.2,3.7-2.4-.1-.2.4-.7.6-.8,3.2-.1,4.5-3.2,6.9-4.5,2.1-1.1,4.2-2.1,1.3-4.6-.5-.4-.4-1.1,0-1.6,1.5-1.8.6-2.8-.7-3.7-10.4-.2-20.8-.2-31.1-.3-.3.3-.7.5-1.1.6-2.1.8-3,3.5-6,3.3-.9,0-2.2.8-3.3,0-1.9-1.3-2.7,1.2-4.3,1.2,1.9,1.5,3.2,3.5,5.9,3.1.6-.1,1.3.4,1.1,1-.7,4,.7,8.2-.6,12.2,0,.1-.1.2-.1.2h13.6c-.7-.7-1.7-1.6-.9-2.7h0Z" style="fill:#19f181;"/><path d="M419.8,1.7c-.2,2.7-2.2,4.6-2.1,7.4,0,1.5.1,2.9.8,4.2h0c1.5.5,2.9,2.3,4.6.5,1.4-1.5,1.9-3,.6-5.1,1.6,1.7,3.5,2.5,5.1,3.8h0c.8-.1,1.8.2,1.9-.9.1-.9-.7-1-1.3-1.3-.7-.4-1.3-.9-2-1.3-2.3-1.2-3.2-2.3,0-3.5.7-.3,1.2-.7,1.4-1.4.5-2.5,2.5-2.4,4.1-1.9,2.2.7,4.3.5,6.4-.2h0s0-.1.1-.1c.4-.7.7-1.3,1.1-1.9h-20.6c0,.7,0,1.2-.1,1.7h0Z" style="fill:#37d147;"/><path d="M446.7,9.5c.1-.6-.5-1.1-1.1-1-2.7.4-4.1-1.7-5.9-3.1,1.6,0,2.3-2.4,4.3-1.2,1.1.7,2.4-.1,3.3,0,2.9.1,3.8-2.5,6-3.3.4-.2.8-.4,1.1-.6h-2.9c-.3.3-.8.4-1.4.5-3.6.4-7.1,1.8-10.8,1.6h-.1c-2.1.6-4.2.9-6.4.2-1.6-.5-3.5-.6-4.1,1.9-.2.7-.7,1.1-1.4,1.4-3.1,1.2-2.3,2.3,0,3.5.7.4,1.3.9,2,1.3.6.3,1.5.4,1.3,1.3-.2,1.1-1.2.8-1.9.9h0c-1.7,1.7-2,4-2.5,6.2-.3,1,1,1.3,2,1.5,2.2.4,3.8.9,4.7,1.7h12.9c0-.1.1-.2.1-.2,1.5-4.4,0-8.6.8-12.6h0Z" style="fill:#20e269;"/><path d="M488.4,153.1c.8-.1,1.5.1,2,.5v-8c-1.6-.7-2.7-1.6-3.6-2.8h-.5v10.3c.7.1,1.3.1,2.1,0Z" style="fill:#0ec888;"/><path d="M486.4,161.9v5.6c1.3.6,2.3,0,3.5-.9.2-.1.4-.3.6-.4v-6.3c-.4.3-.8.5-1.2.7-1,.5-2,.9-2.9,1.3h0Z" style="fill:#0ec888;"/><path d="M516.7,163.4c.2-.6,0-1.4,0-2.1h-1.2v14.8h4.1v-8.6c-2.4-.2-3.9-1.1-2.9-4.1h0Z" style="fill:#0ec888;"/><path d="M486.4,167.5v8.7h4.1v-10c-.2.1-.4.3-.6.4-1.2.9-2.3,1.5-3.5.9Z" style="fill:#0ed182;"/><path d="M311.2,1.9c-1.2,2-3.5,3.8,0,5.8h0c2.4-1.8,4.4-4.1,8.2-2.4,3.4,1.5,6.5-1.2,9.6-2.3.4-.1.8-1.2.8-1.6-1.9-.6-4-.9-6-1h-6.3c0,.2-.1.4-.2.6-.5.7-1.2.6-1.8.1-.4-.3-.8-.6-1.2-.7h-1.3c-.8.2-1.3.7-1.8,1.5h0Z" style="fill:#c5ce2c;"/><path d="M291.1,4.9c2.9,2.8,4,2.8,7.3.1.6-.5,2.2-2.1,2-.6-.2,2,1.5,5.3-2.5,6.2-1.7.4-1.4,2.2-1.2,3.5.2,1.2,1.2,1.8,2.3,1.5,3.9-.8,8.1-.8,10.8-4.5.5-1.1,1.7-2,1.3-3.5h0c-3.5-1.9-1.2-3.8,0-5.8.5-.9,1-1.4,1.6-1.6-8.3.1-18.6.2-21.5.2h0c.6,1.8.3,3.1,0,4.5h-.1Z" style="fill:#d1b321;"/><path d="M290.9,4.6c0,.1.1.2.2.3h0c0-.1-.1-.2-.2-.3h0Z" style="fill:#d1b321;"/><path d="M317.2.9c.1-.2.2-.4.2-.6h-3.3c.4.1.8.4,1.2.7.7.5,1.4.6,1.9-.1h0Z" style="fill:#d1b321;"/><path d="M291.1,4.9h0c.4-1.4.7-2.8.2-4.3h-2.1c.3,1.5,1,2.7,1.8,4,0,.1.1.2.1.3Z" style="fill:#dba716;"/><path d="M257.2,85.2s.1,0,0,0q.07,0,0,0c1.3.5,2.5.4,3.9,0-.2-.3-.3-.6-.5-.9h-3.4c.1.3.1.6,0,.9Z" style="fill:#f5a912;"/><path d="M306.2,98c0-.1.1-.1.1-.1h-2.8c0,.1.1.1.1.2.8,1,1.7,1,2.6-.1h0Z" style="fill:#f5b11d;"/><path d="M318.9,116.8c.7-1.6,1.6-3.1,1.9-4.9.4-2.2,3.1-1.7,4.8-1.7s2.4-.4,2.3-2c-3.7-3.6-3.4-3.5-.8-8.1.7-1.3,1.6-2.8,1.5-4.3-1.9,1.4-4.2,2.2-6.7,2.2h-12.9c.4.3.7.6,1.1.7,1.3.5,1.3,1.7.9,3-.5,1.5-.9,3.1-1.6,4.5-.7,1.7.2,2.9,1.2,4,1.1,1.3,2.2.6,3.3-.2.9-.6,1.8-.7,2.4.3.7,1.2-.4,1.5-1.1,2.1-4.4,3.5-4.5,3.2-8-.9-1.7-2-3.5-4.2-6.3-5.3-1.5-.6-2.8-2-4-3.1-1.1-1.1-2.4-1.5-3.8-.9-1.5.5-.4,1.8-.6,2.7-.1.8-.4,1.6-.5,2.3-.3,2.4,1.1,3.7,3.5,3.1.3-.1.7-.2,1-.3,1.8-.5,4.1-3,5.2-.1.9,2.4,1.8,5.7-1.5,7.6-.8.5-1.3,1.2-1.5,2.1h19.6c0-.9.1-1.9.6-2.8h0ZM315.5,107.8c-.7-.2-1.3,0-2,.1-1,.1-2.2.7-2.7-.6-.5-1.3.8-2.1,1.5-2.9.8-.9,3.2.1,3.1-2.2.3,0,.9-.1.9,0,1.4,3.1,3.9,1.3,6.3,1.2-1.4,3.2-4.4,5.1-7.1,4.4h0Z" style="fill:#f5b11d;"/><path d="M324.4,144.1v-1.3h-3.3v1.2c1.1-.1,2.2-.8,3.3,0v.1Z" style="fill:#f5b11d;"/><path d="M379.7,27.1c1.1-.9,1-2.3,1.4-3.4h0c-2.7-.7-3.7-3.2-4.7-5.4-.1-.3-.3-.6-.4-.8-1.7,1.9-3.3,3.9-4.8,6,3.1.5,5.7,2.2,8.5,3.6h0Z" style="fill:#e1ba2b;"/><path d="M353.1,28.5c-.3-1.8-.8-3.5-1.3-5.2v.5c-.4,2.1.3,3.5,1.3,4.7Z" style="fill:#e1ba2b;"/><path d="M329,3c-3.1,1.2-6.2,3.8-9.6,2.3-3.8-1.7-5.8.6-8.2,2.4h0c.4,1.5-.8,2.4-1.3,3.5,2.2,1.6.1,5.1,3,6.6.8.4-.6,1.4-1.3,1.9-1,.7-1.8,1.4-2.4,2.2h12.1c4.6,0,8.8,2.7,11.1,6.8,1.9-.3,3.7-.8,3.9-2.3.3-2.6,1.6-2.9,3.3-3.4,0-.2-.1-.5,0-.7.5-1.1-2.2-2.3-.2-3.1,2.1-.8,1.3,1.5,1.8,2.4.4.8,1.1.8,1.7.5,1.9-1,3.8-.3,5.7-.4h0c1.2,0,2.4.3,2.9,1.1-.3-.7-.5-1.4-.8-2.1-1.1-.5-1.7-1.2-1.1-2.2-.3-.6-.6-1.2-1-1.8-.1.2-.2.4-.2.6-1.2,3-3.3,2.8-5.6,1.6-1.8-1-3.4-1.9-5.2.2-.7.9-6.8-.6-7.3-1.5-.6-1,.1-1.5.8-1.9,1.6-1,2.7-2.3,3.1-4.3.3-1.5,1.6-2.2,3.2-2,2.2.3,4.4.8,6.5,1-3.9-4.2-8.8-7.3-14.2-8.8.2.2-.3,1.2-.7,1.4h0Z" style="fill:#e1ba2b;"/><path d="M378.8,50c-.7-1-.8-2.1.1-2.9,1.6-1.5,1.4-2.3-.5-3.5-3-1.9-2.9-4.2-.4-6.8.7-.8,2-1,2.2-2.5.1-.7,1.1-1.1,1.6-.4,1.7,2.2,3.1.8,4.8-.5-3-1.3-5.8-2.5-8.9-.7h0c-.3,2.5-1.5,4.4-4,5-.6.2-1.6.9-2.1-.2-.3-.8-.1-1.6.7-2.1.7-.4,1.1-1.1,1.2-2h0c.1-1.9-.4-3.8.9-5.6.8-1,.6-1.6-1.2-1.7-1.5-.1-2.9.1-4.1.4-4.2,6.9-7.2,14.9-8.5,23.4.3-.5,1-.6,1.7-.8.5-.1,1.2-.7,1.2-1,.2-3.7,4.1-3.6,5.8-5.8.9-1.2,2.1-.5,2.6.8.6,1.5,1.3,2.9,2.9,3.6,3.3,1.4,3,4.4,2.6,7.1s-2.9,1.4-4.1,1.7c-2.3.2-3.9.1-5.3-1.7-1.2-1.7-3.5.2-5.2-.8-.9-.5-2.2-.4-2.5-1.8-.2,1.3-.3,2.6-.4,4,.1,1,.1,1.9-.2,3v1.9c0,2,.1,4,.3,6,.4,0,.8.1,1.2.1,2.6.6,4.4-.5,6.4-1.4,2.3-1.1,4.4-2.6,7.1-2.1h0c1.7-.8,3.2-.3,4.7.6-.1-1-.1-2.1-.1-3.1,0-3,.3-5.9.9-8.7-.4-.5-.9-.9-1.4-1.5h0Z" style="fill:#1dbd1a;"/><path d="M344.4,57.5h0c-2,1.6-3.8,3.4-3.5,6.3.07,3.93,2.1,6,6.1,6.2.8,0,1.7.1,2.3.5.9.6,1.6.8,2.2.8-1.5-4.3-3.8-8.2-6.7-11.4.8-.9,1.5-1.9,2.2-2.9-.7-.1-1.6.2-2.6.5Z" style="fill:#1dbd1a;"/><path d="M374.9,62.4h0c-2.7-.5-4.8,1.1-7.1,2.1-2,1-3.8,2-6.4,1.4-.4-.1-.8-.1-1.2-.1.5,5.2,1.6,10.2,3.2,15,.2-.7.1-1.7-.2-2.9,4.4,2,8.7,1.8,13.7,1.8h0c-2.2-3.2-3.8-6.3-5.2-9.5-.4-1-1.2-1.7-.1-2.7.9-.8,1.7-1,2.8-.4,2.1,1.1,4,1.2,5.7.2-.1-.7-.2-1.4-.3-2.1-1.7-.8-3.3-1.8-4.9-2.8Z" style="fill:#65c41f;"/><path d="M349.3,70.5c-.6-.4-1.5-.5-2.3-.5-4-.27-6.03-2.33-6.1-6.2-1.6,2-2.5,4.7-5.3,5.4-.07,0-.13.03-.2.1h0c1.3,1.4,1.1,2.4-.6,3.5-1.5.9-3,1.3-4.6,1.8.8.8,1.5,1.8,2.1,2.8,1.6-1,3.4-.8,3.8,1.8.2,1.1,1.3,2.4.5,3.3-3.2,3.7-.6,6.3,1.5,9h.1c.3-1.3.2-2.5-.2-3.7-.9-2.5.7-4.3,2.4-5,1.4-.5,3.5-.3,4.4,2.3.9,2.9,5.2,4.5,8.5,4.1.1-.7.2-1.4.2-2.1.4-5.6-.4-11-2.2-15.9-.4.2-1.1,0-2-.7h0Z" style="fill:#65c41f;"/><path d="M390.2,28.6c-3.3,1.2-6.1-.6-9.1-1.4h0c-1.9,1.3-2.7,3.4-3.4,5.5h0c3.1-1.8,5.9-.6,8.9.7-1.7,1.3-3.1,2.7-4.8.5-.5-.6-1.5-.3-1.6.4-.1,1.4-1.4,1.7-2.2,2.5-2.5,2.6-2.6,4.9.4,6.8,1.9,1.2,2.1,2,.5,3.5-.8.8-.7,1.9-.1,2.9.4.6.9,1,1.5,1.2,1.5-7.1,4.8-13.5,9.4-18.5,0-.3.2-.7.9-.9.4-.5.9-.9,1.4-1.3,0-.2-.1-.3-.2-.5-.3-.7-.7-1.8-1.6-1.4h0Z" style="fill:#42c520;"/><path d="M374.9,62.4h0c1.6,1,3.2,2,4.9,2.7-.1-.7-.2-1.4-.2-2.1-1.5-.9-3-1.4-4.7-.6h0Z" style="fill:#42c520;"/><path d="M421.2,19.1c-1.5.8-3.1.3-4.7.4-3.4,2.9-6.4,2.9-9.7-.4-.7-.7-2.4-.9-3.5-1.7h0c-2.4-.5-2.4-2.7-2.5-4.3-.1-2.2-1-3.6-2.9-4.5h0c.1.6-.1,1.2.2,1.7,1.8,3,1.1,4.1-2.3,3-1.1-.3-1.7-.2-2.1,1-.3,1-.6,2,.6,2.7,1.5,1,3.9,1.5,3.4,3.8s-3.3,2-5,2.9c-.6.3-1.3.4-1.9.7-2.2.8-4.4,2.6-6.6-.3-.5-.7-1.8-.9-2.9-.3h0c-.5,1.1-.4,2.5-1.4,3.4h1.4c3,.8,5.7,2.7,9.1,1.4.9-.3,1.3.7,1.7,1.5.1.2.1.3.2.5,1.4-1.3,2.9-2.4,4.4-3.4-.3-.1-.6-.1-1-.1,1.3-.6,2.6-1.2,4-1.7.2-.1.3-.1.5-.1,4.2-2.1,8.9-3.2,13.9-3.2h11.4c-.5-.8-1.5-1.6-1.9-2.4-.8-1.4-1.5-1.2-2.4-.6h0Z" style="fill:#8fdb48;"/><path d="M389.8,32.7l.9-.9c-.7.3-.9.6-.9.9Z" style="fill:#8fdb48;"/><path d="M329.9,71.2c3,2.6,3.9-.6,5.6-1.9h0c0-.1.1-.2.1-.3.3-.7,1.3-1.1.9-2.1-.9-2.6.4-5.1,1.4-7.1,1.3-2.5,1.6-4.6,1-7.2h0c-2.3,1.4-4.4,3.2-5.5,5.8-.6,1.5-1.3.8-2.1.4-.8,1.4-2.8,2.4-2.5,4,1.1,4.9-1.8,4.4-4.9,4.2-2.1-.2-3.9.9-3.6,3.1,0,.2,0,.4.1.6h.9c2.6,0,5.1.9,7.2,2.3.1-.3.2-.6.2-1,0-.5.7-1.2,1.2-.8h0Z" style="fill:#dbd843;"/><path d="M344.4,57.5h0c1-.3,1.9-.6,2.6-.5,1.2-1.7,2.2-3.4,3.1-5.3-4-.4-5.5,1.3-5.7,5.8Z" style="fill:#7dc721;"/><path d="M360.1,55c-.1,1-.1,2-.2,3,.3-1,.3-2,.2-3Z" style="fill:#7dc721;"/><path d="M373.5,33.3h0c-.1.9-.5,1.5-1.2,2-.8.5-1.1,1.3-.7,2.1.5,1.1,1.5.4,2.1.2,2.4-.7,3.6-2.5,4-4.9-1.2,1.6-2.6,1.6-4.2.6h0Z" style="fill:#42c520;"/><path d="M348.6,21.6h0c-1.9,0-3.8-.7-5.7.4-.6.4-1.3.3-1.7-.5-.5-.9.4-3.2-1.8-2.4-2,.8.7,2,.2,3.1-.1.2,0,.5,0,.7,3.2.9,6.2.6,9-1.3h0Z" style="fill:#dcb323;"/><path d="M339.2,101.5c-.1-.1-.6.3-.9.4h0c-1.6,1-3.1.4-3.5-1.2-.5-1.7-3.3,1.7-2.5-1.3.4-1.3,1.9-1.6,2.9-2.3,1.1-.7,1.2-1.8.4-2.7-1-1.3-1.7-.4-2.4.6-1,1.6-1.2,1.9-2.5-.3-.1-.2-.3-.4-.4-.6-.6.6-1.2,1.2-1.8,1.6.1,1.5-.8,3-1.5,4.3-2.6,4.6-2.9,4.4.8,8.1h0c1.5,1.8.4,3-1,3.9-2.8,1.9-4.8,4.2-5.4,7.5.7,0,1.4,0,2.1-.1.4-2.8,1.6-3.6,4.8-1.1.2.1.4.2.5.2.3-.1.7-.2,1-.3.7-.4,1.3-.9,1.9-.9.07.07.1.13.1.2,1.1-.4,2.2-.9,3.3-1.5h-.6c-2.9.3-2.9.1-4.4-3,2.5.6,4.6-.9,7.2.4.5.2,1.1.3,1.6.3.9-.6,1.7-1.3,2.6-2,.1-.4.2-.9.2-1.4,0-1,.2-2,1.4-1.9.5,0,1,.2,1.3.5,1.7-1.8,3.2-3.9,4.4-6.1-3.4.8-6.6.9-9.6-1.3h0Z" style="fill:#dbd843;"/><path d="M256.8,146.1c-.4.7-1.2.8-2,.5-1-.4-2.3-.9-2.6.5-.1.3,0,.5,0,.7.8.5,1.6,1,2.3,1.6h.1c.2.1.4.1.7.1l2.4-2.8h-.1c-.3-.2-.6-.4-.8-.6h0Z" style="fill:#f6ab20;"/><path d="M245.5,142.7c.2-.1.4-.3.6-.4h-1.1c.1,0,.3.3.5.4h0Z" style="fill:#f6ab20;"/><path d="M300.3,117.4c3.4-2,2.4-5.3,1.5-7.6-1.1-2.9-3.4-.4-5.2.1-.3.1-.7.2-1,.3-2.4.6-3.8-.7-3.5-3.1.1-.8.3-1.6.5-2.3.2-.9-1-2.1.6-2.7,1.4-.5,2.6-.1,3.8.9,1.2,1.2,2.5,2.5,4,3.1,2.8,1.1,4.6,3.3,6.3,5.3,3.5,4.1,3.6,4.4,8,.9.7-.6,1.8-.9,1.1-2.1-.6-1-1.5-.9-2.4-.3-1.1.8-2.2,1.5-3.3.2-1-1.1-1.9-2.3-1.2-4,.6-1.5,1.1-3,1.6-4.5.4-1.2.3-2.5-.9-3-.4-.1-.7-.4-1.1-.7h-2.7c-.9,1.2-1.8,1.2-2.5.1,0-.1-.1-.1-.1-.2h-22.7c0,.5-.2,1-.2,1.4,0,1-.1,2.4-1.5,2.2-1.4-.2-2.3-1.2-.9-2.6-.1-.3-.1-.7-.2-1h-2.3v-11c-2.3,1.1-4.6,3.4-4.7,5.2-.4,5.3-3.4,8.9-7,12.2-.7.6-1.4,1.3-2.4.7-1-.6-.9-1.4-.7-2.4.4-1.9-.4-2.3-2.1-1.6-.9.4-1.7.8-2.6,1v17.6h42.5c0-.8.4-1.6,1.3-2.1h0Z" style="fill:#f6ab20;"/><path d="M250.7,143.9c1,1.3,2.2.8,3.4.4-1.2-.6-2.4-1.1-3.7-1.5,0,.4,0,.7.3,1.1h0Z" style="fill:#f5a912;"/><path d="M278,167.6h-3.7c.5,1,1.1,2,1.8,2.9h.1c1.5.1,1-2,1.8-2.9h0Z" style="fill:#faaa0d;"/><path d="M168.9,157.3c-1,1.1.1,1.4.6,2.1.5.9,1.1,1.5,1.7,1.9h0c0-.1,5-.1,5-.1-.7-1.4-.1-2.6.4-3.8h-5.4v-1.6c-.9,0-1.7.9-2.3,1.5Z" style="fill:#d6ae1e;"/><path d="M176.5,161.2h7.2c-2.3-1.1-4.6-1.9-7.2,0Z" style="fill:#d6ae1e;"/><path d="M324.4,144.1c.2,1,.5,2,.8,3v-4.2h-.8v1.2Z" style="fill:#efb11c;"/><path d="M377.5,169.7c-2.3,1.7-5.2,2.6-8.6,2.6h-7.5v-10.1c-.1-.1-.1-.2-.2-.3-.6-1-2.2-1.8-3.9-2.2v11.6c.7-.1,1.4-.2,1.9.5.8,1.1-.2,1.8-.8,2.3-.4.4-.8.8-1.1,1.2v.9h11.6c2.8,0,5.4-.5,7.7-1.5.2-1.2.5-2.3,1-3.4.2-.5.1-1.1-.1-1.6Z" style="fill:#d0ac1e;"/><path d="M337.5,174.5c.1.4.3.9.3,1.3s0,.2.1.3h5.8v-3.8h-4.5c0,.9-.4,1.7-1.7,2.2h0Z" style="fill:#d0ac1e;"/><path d="M337.8,175.8c-.1-.4-.2-.9-.3-1.3-.4.4-1.2,1-1.1,1.1.1.2.1.4.2.5h1.3l-.1-.3Z" style="fill:#cd990f;"/><path d="M350.4,91.2c-2.1-.1-4.3-1-6.1-2.1-2.5-1.5-4.2-2-4.9,1.6,0,.3-.7.4-1.1.6h-.1c1.8,3.5.6,6.9.1,10.4h0c.3-.1.8-.5.9-.4,3,2.3,6.2,2.1,9.7,1.2.8-1.4,1.6-3,2.2-4.5-.3,0-.6-.2-.8-.5-.7-1.3.9-2.7,1.7-3.8.1-.2.3-.3.6-.3.2-.7.3-1.5.5-2.3-.9,0-1.9.2-2.7,0v.1Z" style="fill:#d5d238;"/><path d="M341.8,110.3c0,.5-.1,1-.2,1.4,1-.9,2-1.8,2.9-2.9-.4-.3-.8-.5-1.3-.5-1.2,0-1.4.9-1.4,2Z" style="fill:#d5d238;"/><path d="M337.4,113.4c-2.6-1.2-4.7.2-7.2-.4,1.5,3.1,1.5,3.3,4.4,3h.6c1.3-.7,2.6-1.5,3.9-2.4-.6.1-1.2,0-1.7-.2h0Z" style="fill:#d5d238;"/><path d="M523.7,116.2c1.8.5,1.7-3,3.1-4.3.8-.7-.6-1.5-1.4-1.9-2.4-1.4-2.5-3.6-2.4-6l-.7-.7c-1-2.7.5-4.5,1.9-6.6.5-.7.9-1.4,1.2-2.2-3.3,1.7-6.9,2.8-10.6,3.2,0,.2,0,.5-.2.7-1.6,2.5-1,5.3-1.4,7.9,0,.7-.5,1.3-.4,2,.7,5-1.2,7.4-6.4,8.4-.6.1-1.2.6-1.7,1.1-.8.7-1.6,1.3-2.5,1.8h7.7c2.3,0,4.5-.2,6.7-.5,1.5-2.2,3.1-4.1,7.1-2.9h0Z" style="fill:#0bcacd;"/><path d="M482.2,87.9s0,.1,0,0c-2.6-.2-5.2-.4-7.7-.7h0c-2.2,1.9-.9,4.1-.6,6.2h0c4.2.5,6.9-3.8,11.1-3.4h0c.9-.1,1.7-.3,2.4-.5v-5.3h-4.5c1,1.5,1,2.8-.7,3.7h0Z" style="fill:#0bcacd;"/><path d="M536.1,108.6c-3.2.5-4.2,2.2-2.9,5.2h0c2.6-1.3,5.1-2.9,7.5-4.6-1.2-.8-2.7-.9-4.6-.6Z" style="fill:#0bcacd;"/><path d="M523,103.9c1.6.1,2.5,1.2,3.2,2.3,1,1.7,2.1,2.5,3.7.8,1.5-1.6,3.3-3.7,1.5-5.6-1.4-1.4-3.2-3.6-5.8-3-2.4.5-2.6,2.9-3.2,4.8,0,.3.4.5.6.7h0Z" style="fill:#0bd3d6;"/><path d="M536.8,101.1h0c-1.3,1.5-1.9,3.1-.6,5,.8,1.2,1.8,1.4,3,1.2,1.7-.4,3.3-1.1,4.5-2.4.7-.7,1.5-1.6.7-2.7-.7-.9-1.6-1.3-2.7-1-1.2.3-2.4,1.2-3.5-.1h-1.4Z" style="fill:#0bd3d6;"/><path d="M536.8,96.4c-.9-.2-1.9-.1-2.4.8-.6,1,0,1.8.6,2.4.6.5,1.2,1,1.8,1.5h1.4c1.3-.6,2.6-1.3,4.1-1.5,2-.2,3.1-1.5,3.6-4.5-2.3,2.5-4.3.9-6.2,1.2h-.2c-.8,1.1-1.7.3-2.7.1h0Z" style="fill:#0bcacd;"/><path d="M508.3,145.6v-.2c-1.1-1.6-2.6-1.1-4-.7v1.9h3.6c.1-.4.1-.7.2-1h.2Z" style="fill:#0bdddf;"/><path d="M529.7,96c0,1.2-.2,2.5,1.3,3,.2.1.6-.1.6-.2.2-1.6-.9-2.1-1.9-2.8h0Z" style="fill:#0bd3d6;"/><path d="M474,113c-1-.9-2.6-1.1-2.4-2.9.2-2,1.7-2.4,3.3-3,2.8-1,6.1-1.1,7.3-4.8.5-1.4,2.3-1.5,3.6-1,1.7.6,3,.1,3.8-1.4.4-.8.3-1.5,0-2.1h-2.1v-1.7c-2.1-1.4-2.1-3.8-2.4-6.1-4.2-.4-6.9,3.9-11.1,3.4h0c-1.6-.1-2.8.8-4.2,1.4v.8h0c.9,3,.4,4.4-1.9,4.6v13.7c.4.4,1.1.7,1.6,1,2.4,1.1,3.7,2.6,3.8,4.6h4.9c.2-2.4-2.2-4.7-4.2-6.5h0Z" style="fill:#0bb69c;"/><path d="M469.2,86.3c2.5-1.9,3.8-.6,5.3,1h0c2.5.2,5.1.5,7.6.7h0c.2-1.9-.9-2.8-2-3.7h-12.3v2.2c.5.1,1,.1,1.4-.2Z" style="fill:#0cecfc;"/><path d="M527.1,21.4c-3.9-1.8-3.3-4.6-2.7-7.7.3-1.3-.2-2.5-.9-3.6-.9-1.6-.3-2.9,1.2-3.4,3.2-1.1,4.1-2.8,3.5-5.1-5.1-.2-10.2-.4-15.4-.5,1.3,3-.7,3.1-3.3,2.4-.4.8,0,1.6,0,2.1-1.8,3.5-3.4,7.1-6.4,9.7-.8.7-1.6,1.2-2.2,2.2-.9,1.5-1.7,3.1-2.9,4.4h12.4c6.2,0,12.1,1.8,17.2,4.9-.3-1.9,1.5-4.6-.4-5.4h-.1Z" style="fill:#0cecfc;"/><path d="M543.4,37.3c.4-1.7-1.1-2.6-2.2-3.1-1.6-.7-3-1.7-4.4-2.6-1.4-1-2.7-1.6-4.6-1.4,3.4,2.9,6.3,6.5,8.5,10.5.2,0,.4-.1.6-.2,1.5-.3,1.8-1.9,2.1-3.2h0Z" style="fill:#0cecfc;"/><path d="M566.8,4.7c-1.3,0-6,3.6-6.3,5-.5,2.4,1.2,3.8,2.6,5.2.6.6,1.2,1.2,2.1.5.7-.6,1-1.6.6-2.2-2.5-2.9-1.2-4.6,1.5-6.1.6-.4.8-1.1.5-1.8-.2-.3-.5-.6-1-.6h0Z" style="fill:#0bd3d6;"/><path d="M542.6,44.7c.2.4.3.8.5,1.2,0-.5-.1-.9-.5-1.2Z" style="fill:#0cecfc;"/><path d="M539.3,28.2c-.7-.3-.9.3-1,.9,0,.6,0,1.2.8,1.2s1.1-.5.9-1.2c0-.4-.4-.8-.7-.9Z" style="fill:#0cecfc;"/><path d="M561.3,61.1c0-.8-1.2-1.8-2.5-1.2-.9.5-1,1.4-.6,2.4.3.7,1.1,1.8.2,2.2-2.6,1.2-4.5,3.8-7.4,4.4-1.2.3-2.2-1-3.6-.9-1.2.1-2.1.1-2.7-.2-.2,1-.4,1.9-.6,2.8-1.8,6.6-5.1,12.5-9.6,17.1.6.7,1.2,1.4,1.9,2.1,2.4,2.4,5,1.7,6.6-1.1.8-1.4,1.6-2.6,3.7-2.4,1.2.1,2.6-.2,3.6-.9,1.4-1,2.5-1.2,3.6,0,1.8,1.8,0,3.4-.4,5.1-.4,2.2-1.4.4-2.2.3-1.7-.1-2.4,1-2.8,2.5-.7,2.6,1.1,4.3,2.3,6.2h0c3.8-4.5,6.9-9.7,9.3-15.3,2.2-5.3,3.8-11.1,4.5-17.1v-1.3c-.6-2-3.2-2.5-3.4-4.7h.1Z" style="fill:#0be0e3;"/><path d="M447.3,101.5c-.8,1.2,1.3,3.4,3,4.5.1,0,.2-.1.3-.1,2.2-.4,3.1-3.4,5.3-3.1.8.1,1.2.5,1.4,1.1v-13.6c-1-1.7-1.7-3.8-2-5.9h-3.8c-.2,2.6-.9,5.1-1.9,7.6-1.2,3-.2,6.5-2.3,9.5Z" style="fill:#16c06e;"/><path d="M469.8,95.7h0v-.8c-.5-.8-1.1-1.6-1.9-2v5c.7-.6,1.4-1.3,1.9-2.2Z" style="fill:#11d19d;"/><path d="M457.3,84.3h-2c.3,2.1,1,4.2,2,5.9v-5.9Z" style="fill:#11d19d;"/><path d="M403.8,10.9c-1.8,2.2.5,4.4-.6,6.4,1.1.8,2.8,1,3.5,1.7,3.3,3.3,6.4,3.3,9.7.4,1.2-1.9,2.9-3.6,2-6.2h0c-.8-1.3-.8-2.7-.8-4.2-.1-2.8,1.9-4.7,2.1-7.4V.1h-6c-4.3,0-8.5.6-12.5,1.6.3.2.6.4.9.5,4.6,2.4,4.9,4.9,1.7,8.7h0Z" style="fill:#29ec7c;"/><path d="M426.3,18.7c.6-2.1.8-4.5,2.5-6.2h0c-1.6-1.3-3.5-2.1-5.1-3.8,1.3,2,.8,3.6-.6,5.1-1.8,1.8-3.1,0-4.6-.5h0c.9,2.6-.8,4.3-2,6.2,1.6-.1,3.2.5,4.7-.4,1-.6,1.6-.8,2.2.4.4.8,1.3,1.6,1.9,2.4h7.8c-1-.8-2.5-1.3-4.7-1.7-1.1-.2-2.3-.5-2.1-1.5h0Z" style="fill:#27cb34;"/><path d="M397.8,8.5h0c1.9.9,2.8,2.3,2.9,4.5.1,1.6.2,3.8,2.5,4.3h0c1.1-2-1.3-4.2.6-6.4,3.2-3.8,2.9-6.3-1.5-8.6-.3-.2-.6-.3-.9-.5-2.2.6-4.4,1.3-6.5,2.2,1.5,1,3,2.3,2.9,4.5Z" style="fill:#48e671;"/><path d="M486.4,161.9c1-.4,1.9-.8,2.9-1.2.4-.2.8-.5,1.2-.7v-6.3c-.5-.4-1.2-.6-2-.5s-1.5.1-2.1,0v8.7Z" style="fill:#14b755;"/><path d="M467.7,149.5c-1.6,2.7-.5,5,1.4,7h0c.4.3.7.6,1,.9v-14.6h-4.1l-1.7,2.5c1,.7,1.9,1.4,2.9,2.2.7.5,1,1.1.5,2h0Z" style="fill:#14b755;"/><path d="M469.4,114.9c-.6-.3-1.2-.6-1.6-1v5.6h5.4c0-2-1.3-3.4-3.8-4.6Z" style="fill:#10ab7c;"/><path d="M469.8,95.7h0c-.5.9-1.2,1.6-1.9,2.1v2.5c2.3-.2,2.8-1.6,1.9-4.6Z" style="fill:#10ab7c;"/><path d="M450,159.4c.4,1,.3,1.6-.4,1.6l4.1,6h.1c0,.1.4.1.4.1l5.1-7.6c-.3-1.3-1.1-2.4-2.3-3.5l-3,4.5-3.7-5.5c-.1.2-.2.4-.3.6-.5,1.3-.4,2.5,0,3.8h0Z" style="fill:#15bd41;"/><path d="M465.9,176.2h4.1v-7.9c-1.4-.5-2.7-1-4.1-1.3v9.2Z" style="fill:#15bd41;"/><path d="M465.9,164.6v2.3c1.4.3,2.8.8,4.1,1.3v-1.9c-1.2-.7-2.6-1-3.9-1.6h-.2v-.1Z" style="fill:#1ab124;"/><path d="M440.7,146.1h0c-.8.5-1.7.8-2.6.7v13.4c1,.9,1.4,1.8.3,3.3-.1.1-.2.2-.3.4v12.3h4v-26.3l7.6,11.1c.7-.1.8-.6.4-1.6-.4-1.2-.5-2.4,0-3.7.1-.2.2-.4.3-.6l-6-8.9c-1,1.4-2.3.8-3.7-.1h0Z" style="fill:#1ab124;"/><path d="M459.3,159.6l6.6-9.7v11.6c1.3-1.4,2.1-3.3,3.1-4.9-1.8-2.1-2.9-4.3-1.4-7,.5-.9.2-1.5-.5-2.1-1-.7-1.9-1.4-2.9-2.2l-7.2,10.8c1.2,1.1,2,2.2,2.3,3.5h0Z" style="fill:#1ab124;"/><path d="M329.9,118.2c.7-.2,1.3-.4,2-.7-.07-.07-.1-.13-.1-.2-.6,0-1.3.6-1.9.9h0Z" style="fill:#e6bf33;"/><path d="M323.5,119.4c1.8-.2,3.6-.5,5.3-.9-.2,0-.4-.1-.5-.2-3.2-2.5-4.4-1.7-4.8,1.1Z" style="fill:#e6bf33;"/><path d="M326.8,112c1.4-.9,2.5-2.1,1-3.9h0c.1,1.6-.6,2-2.3,2s-4.4-.4-4.8,1.7c-.4,1.9-1.2,3.4-1.9,4.9-.4,1-.5,1.9-.5,2.7h3c.8-3.2,2.7-5.6,5.5-7.4h0Z" style="fill:#e6bf33;"/><path d="M322.6,103.3c-2.4.1-4.9,1.9-6.3-1.2-.1-.1-.6,0-.9,0,.1,2.3-2.3,1.3-3.1,2.2-.7.8-1.9,1.6-1.5,2.9.5,1.3,1.7.7,2.7.6.7-.1,1.2-.2,2-.1,2.7.8,5.7-1.1,7.1-4.4h0Z" style="fill:#e1b726;"/><path d="M381.1,23.6h0c1-.7,2.4-.4,2.9.3,2.2,2.9,4.4,1.1,6.6.3.6-.2,1.3-.3,1.9-.7,1.7-1,4.5-.6,5-2.9.5-2.2-1.9-2.8-3.4-3.8-1.1-.7-.8-1.7-.6-2.7.3-1.2,1-1.3,2.1-1,3.5,1.1,4.1,0,2.3-3-.3-.4-.1-1.1-.2-1.7h0c.1-2.2-1.3-3.5-2.9-4.5-4.6,1.9-8.9,4.5-12.8,7.6-.4,1.4-1.5,2.4-3.4,3-.9.9-1.9,1.8-2.8,2.8.1.3.3.6.4.8,1.2,2.3,2.2,4.8,4.9,5.5h0Z" style="fill:#ebc545;"/><path d="M382.1,11.7c-1.2.9-2.3,1.9-3.4,3,1.9-.7,3-1.6,3.4-3Z" style="fill:#f0b724;"/><path d="M350.7,20.5c-.3-.8-.7-1.5-1.1-2.2-.6,1,0,1.7,1.1,2.2Z" style="fill:#efb623;"/><path d="M334.3,11.1c-.4,2-1.4,3.3-3.1,4.3-.7.4-1.4.9-.8,1.9.5.9,6.6,2.4,7.3,1.5,1.8-2,3.4-1.1,5.2-.2,2.3,1.3,4.4,1.4,5.6-1.6.1-.2.2-.4.2-.6-1.3-2.3-2.9-4.4-4.7-6.3-2.2-.3-4.4-.7-6.5-1-1.6-.2-3,.5-3.2,2h0Z" style="fill:#efb623;"/><path d="M363,52.9c1.7,1,3.9-.9,5.2.8,1.3,1.8,3,1.9,5.3,1.7,1.2-.3,3.7,1,4.1-1.7s.7-5.7-2.6-7.1c-1.7-.7-2.3-2-2.9-3.6-.5-1.3-1.8-2-2.6-.8-1.7,2.2-5.6,2.2-5.8,5.8,0,.4-.8.9-1.2,1-.7.2-1.4.3-1.7.8-.1.4-.1.8-.2,1.2.1,1.5,1.4,1.3,2.4,1.9h0Z" style="fill:#13e465;"/><path d="M374.4,67c-1.1-.6-1.9-.4-2.8.4-1,1-.3,1.7.1,2.7,1.4,3.2,2.9,6.3,5.2,9.5h-.1c-5,0-9.3.2-13.7-1.8.3,1.2.4,2.1.2,2.9,1.5,4.5,3.6,8.8,6,12.8h0c1.6,2.9,3.8.9,5.7.6,2.2-.3,1.4-1.7,1.3-3.1,0-1.6,1-2.8,2.2-3.7,2.2-1.5,2.4-3.1.6-5.1-1.4-1.6-1.9-2.9.9-3.6,1.5-.4,1.9-1.4,1.2-2.9-.4-.9-.3-1.8.4-2.5-.7-2-1.2-4-1.6-6.1-1.6,1.1-3.5,1-5.6,0v-.1Z" style="fill:#b9cc2a;"/><path d="M344.9,85.1c-.9-2.7-3-2.9-4.4-2.3-1.7.7-3.3,2.5-2.4,5,.4,1.2.5,2.5.2,3.7h0c.4-.2,1.1-.4,1.1-.6.7-3.6,2.4-3.1,4.9-1.6,1.8,1.1,4,1.9,6.1,2.1.9.1,1.9-.1,2.7,0,.1-.7.2-1.3.3-2-3.3.2-7.5-1.4-8.5-4.3h0Z" style="fill:#b9cc2a;"/><path d="M352,93.8c-.8,1.1-2.4,2.5-1.7,3.8.2.4.5.5.8.5.6-1.5,1.1-3.1,1.5-4.7-.2.1-.5.2-.6.4h0Z" style="fill:#b9cc2a;"/><path d="M333.4,94.9c.6-1,1.4-1.8,2.4-.6.7.9.6,1.9-.4,2.7-1,.7-2.6.9-2.9,2.3-.8,3,2-.3,2.5,1.3.4,1.6,1.8,2.2,3.5,1.2h0c.5-3.5,1.7-7-.1-10.4-2.1-2.7-4.8-5.2-1.5-9,.8-.9-.3-2.2-.5-3.3-.4-2.6-2.3-2.8-3.8-1.8.9,1.7,1.6,3.5,1.7,5.6.4,4.4-1.1,8.3-3.7,11.1.1.2.3.4.4.6,1.2,2.2,1.3,1.9,2.4.3h0Z" style="fill:#1dc42b;"/><path d="M335.4,69.3h0c-1.6,1.3-2.6,4.4-5.6,1.9-.5-.4-1.2.3-1.2.8s-.1.8-.2,1c.6.5,1.2,1,1.8,1.5,1.6-.4,3.2-.8,4.6-1.8,1.7-1,1.9-2,.6-3.4h0Z" style="fill:#d1cd31;"/><path d="M395.5,27c.4,0,.7,0,1,.1,1.1-.7,2.3-1.4,3.5-2-.2,0-.3.1-.5.1-1.4.6-2.7,1.2-4,1.8Z" style="fill:#ebc545;"/><path d="M377.5,169.7c.2.5.2,1.1.1,1.6-.5,1.1-.7,2.2-1,3.4,3.8-1.6,6.7-4.4,8.4-8-1.2-.8-2.3-1.7-3.4-2.5-.8,2.3-2.2,4.1-4.1,5.5Z" style="fill:#93c320;"/><path d="M402.9,170c0-.1.1-.1.1-.2-.6-.4-1.2-.9-1.8-1.5h-.1c0-.1-2.6,2.9-2.6,2.9h.1c.4.4.7.7,1.1,1,1.3-.2,2.4-1,3.2-2.2h0Z" style="fill:#93c320;"/><path d="M361.2,162c.1.1.1.2.2.3v-7.1c0-.1-.1-.2-.1-.3-.6-1.2-1.5-1.4-2.6-.9-1.3.6-.5,1.5-.1,2.3.4.9,1.7,1.7.5,2.6-.7.6-1.3.2-1.8-.3v1.1c1.7.5,3.4,1.2,3.9,2.3Z" style="fill:#93c320;"/><path d="M358.4,174.1c.6-.5,1.6-1.3.8-2.3-.5-.7-1.2-.6-1.9-.5v4c.3-.4.7-.8,1.1-1.2h0Z" style="fill:#c7bb21;"/><path d="M279.3,101.5c1.4.2,1.4-1.2,1.5-2.2,0-.4.1-1,.2-1.4h-2.8c.1.3.1.7.2,1-1.4,1.4-.5,2.4.9,2.6h0Z" style="fill:#dfaa19;"/><path d="M410.5,102.5c-1.6.9-2.1,3.7-1.4,6,1.1,3.7-.2,7.2-1,10.7,1.1.1,2.1.2,3.2.3.4-2.2.7-4.5,1.5-6.6.6-1.6,1.4-2.6,3.1-2.7,1-.1,1.7-.7,1.8-1.7.1-1.7,1-2.4,2.7-2.4s.9,0,1-.2c1.7-3.3,5.3-5.3,7.9-7.9h-16.8c.5,1.7.4,3.2-2,4.5h0Z" style="fill:#70ca28;"/><path d="M381.4,75.8c.7,1.5.3,2.6-1.2,2.9-2.8.7-2.3,2-.9,3.6,1.8,2,1.6,3.6-.6,5.1-1.2.9-2.3,2.2-2.2,3.7,0,1.4.9,2.8-1.3,3.1-2,.3-4.1,2.3-5.7-.6h0c2.8,4.5,6.2,8.6,10,12.1,2.2.6,4-1,6.2-.6,1.9.3,2.8-1.8,3.1-3.8,1.2.7,1.8,2.4,3.6,1.7-.1-1.1-2.2-1.3-1.5-2.5.8-1.3,2.2-.8,3.5-.4,2.2.7,5,.7,3.8,4.5-.4,1.3-1.7,3.2,0,4.4,1.6,1.2,2.5-1.1,4-1.1s.8-.4,1.2-.6h0c0-.5,0-.9.1-1.4.3-2.6.9-5.2,2.1-7.6.4-.8.9-1.1,1.5-1.3-11.6-2.6-21-11.7-25.2-23.7-.8.8-.9,1.6-.5,2.5h0ZM383.7,98.2c1.4.2,1.7,1.7,1.5,3.3-.1.5.5,2-.7,2-1.3-.1-2.5-1.3-2.5-2.8s.3-2.7,1.7-2.5Z" style="fill:#70ca28;"/><path d="M390.2,113.2c.1-1.1,1-2,1.8-1.5,2.3,1.4,5.1-.2,7.5,1.5,1.7,1.2,3.3.1,3.6-2.1.2-1.2,0-2.5,0-3.8h0c-.4.2-.8.6-1.2.6-1.5,0-2.5,2.3-4,1.1-1.6-1.3-.4-3.2,0-4.4,1.2-3.9-1.5-3.9-3.8-4.5-1.2-.4-2.7-.8-3.5.4-.8,1.2,1.4,1.4,1.5,2.5-1.8.8-2.4-1-3.6-1.7-.3,2-1.2,4.1-3.1,3.8-2.2-.4-4,1.1-6.2.6,3.3,3.1,7,5.7,10.9,7.8.1-.1.1-.2.1-.3h0Z" style="fill:#68d033;"/><path d="M392,114.4c1.3.6,2.6,1.2,4,1.8-.7-1.4-1.7-2.3-4-1.8Z" style="fill:#68d033;"/><path d="M376,144c-.2.4,0,1,.5,1.9.5.8.1,1.6-.6,2.3,1.6.9,3,2.1,4.1,3.5.6-.2,1.2-.5,1.8-.8h0c0-1.3.2-2,1-2.2-1.8-2.1-4.1-3.7-6.8-4.7h0Z" style="fill:#53c722;"/><path d="M362.6,142.8h-1.9c.6.8,1.3.5,1.9,0Z" style="fill:#1cbf1d;"/><path d="M368.9,146.6c2.6,0,5,.6,7,1.6.7-.7,1.1-1.5.6-2.3-.6-.9-.7-1.5-.5-1.9-2.1-.8-4.5-1.2-7-1.2h-3.9c-.7,1.2-1.6,2.5-2.5,3.8h6.3Z" style="fill:#1cbf1d;"/><path d="M359.1,158.9c1.2-1-.1-1.8-.5-2.6-.4-.8-1.2-1.7.1-2.3,1.1-.5,2-.3,2.6.9,0,.1.1.2.1.3v-7.1c-1.2,1.5-2.6,3-4.1,4.2v6.4c.6.4,1.1.8,1.8.2Z" style="fill:#1cbf1d;"/><path d="M361.4,148v-1.4h1.1c1-1.3,1.9-2.6,2.5-3.8h-2.5c-.6.5-1.3.8-1.9.1h0c0-.1-3.4-.1-3.4-.1v9.4c1.6-1.2,3-2.7,4.2-4.2h0Z" style="fill:#2bc725;"/><path d="M506.4,116.6c5.2-1,7-3.4,6.4-8.4,0-.6.3-1.3.4-2,.5-2.6-.2-5.4,1.4-7.9,0-.2.2-.4.2-.7-1.2.1-2.4.2-3.6.2h-21.6c.3.6.4,1.3,0,2.1-.7,1.5-2,2-3.8,1.4-1.4-.5-3.2-.4-3.6,1-1.2,3.7-4.5,3.8-7.3,4.8-1.6.6-3.1,1-3.3,3-.2,1.8,1.4,2.1,2.4,2.9,2.1,1.7,4.4,4.1,4.2,6.5h24c.9-.6,1.7-1.2,2.5-1.8.5-.4,1.1-1,1.7-1.1h0Z" style="fill:#0abbbe;"/><path d="M485,90.1c.4,2.2.3,4.6,2.4,6.1v-6.6c-.8.2-1.6.4-2.4.5h0Z" style="fill:#0abbbe;"/><path d="M469.7,94.9c1.4-.5,2.6-1.5,4.2-1.4h0c-.3-2.1-1.5-4.4.6-6.2h0c-1.5-1.6-2.9-2.9-5.3-1-.4.3-.9.3-1.4.2v6.3c.8.4,1.5,1.2,1.9,2.1h0Z" style="fill:#0be1c1;"/><path d="M455.9,102.8c-2.2-.3-3.1,2.7-5.3,3.1-.1,0-.2.1-.3.1-.9,1.4-1.8,2.8-2.8,4.1h0c-.1,3.1-.4,6.3-.5,9.4h10.3v-15.7c-.3-.5-.7-.9-1.4-1h0Z" style="fill:#1e9d26;"/><path d="M445.5,84.6c0,.5-.2,1.1.1,1.4,2.5,3.4.7,6.3-1.2,9-2,2.9-.1,5.7.8,8.1.9,2.3,1.6,4.7,2.5,7,.9-1.4,1.8-2.8,2.8-4.1-1.7-1.1-3.8-3.3-3-4.5,2.1-3.1,1.1-6.5,2.2-9.6,1-2.5,1.7-5.1,1.9-7.6h-5.9c-.1.1-.2.2-.2.3h0Z" style="fill:#1eb02d;"/><path d="M442.8,91.2c.2-.3.8-.3,1.3-.4.6-1.1,1.7-1.9.3-3.4-.7-.7-1.9-2.9,1.1-2.8.1-.1.1-.2.2-.3h-8v8.6c2,.8,3.7.7,5.1-1.7h0Z" style="fill:#c5c12a;"/><path d="M469,156.5c-1,1.6-1.9,3.5-3.1,4.9v3.2c.1,0,.1.1.2.1,1.2.6,2.7.9,3.9,1.6v-8.9c-.3-.3-.6-.6-1-.9h0Z" style="fill:#15bd41;"/><path d="M404.1,158.9c1.7,1,4.1,1.8,7.1,2.5.9.2,1.7.4,2.4.6.8-1.2,1.5-2.4,1.1-3.9-.6-.2-1.2-.3-1.8-.4-5-1.1-7.3-2.2-8.2-3.8-1.1,1.2-1,3-.6,5h0Z" style="fill:#38bd1f;"/><path d="M418.8,164.7c.6.8.8,1.7.8,2.7s0,.6-.1.9c.6,0,1.1-.1,1.8-.1-.8.5-1.4.9-2.1,1.2-.9,2.1-3.4,3.5-6.7,3.5s-6.5-1-9.4-3.2c0,.1-.1.1-.1.2-.8,1.2-1.9,2-3.1,2.2,2.1,1.7,4.3,2.9,6.7,3.6l.3-.6c.2-.3.3-.6.6-.8,1.4-1.2,11.5-1.7,13.3-.6h0c.7-.9,1.4-1.9,2.1-2.8-1.1-2.8-.6-4.9.7-6.6-.2-.7-.5-1.4-1-2-1.3,1.3-2.4,2.1-3.8,2.4h0Z" style="fill:#38bd1f;"/><path d="M438,160.2v3.7c.1-.1.2-.2.3-.4,1.1-1.5.7-2.5-.3-3.3h0Z" style="fill:#38bd1f;"/><path d="M422.7,171c.1,0,.1.1.2.1.6-1.2.9-2.6.9-4.1s-.1-1.9-.4-2.7c-1.4,1.9-1.8,4-.7,6.7Z" style="fill:#12c239;"/><path d="M420.6,173.8c-1.7-1.1-11.8-.7-13.3.6-.3.2-.4.5-.6.8l-.3.6c1.8.6,3.8.8,5.9.8,3.4,0,6.3-1,8.3-2.7q1.33-1.13,0,0v-.1Z" style="fill:#12c239;"/><path d="M439,143.2c1.7.4,1.6,1.7,1.6,2.9h0c1.4,1,2.7,1.5,3.7.1l-2.3-3.4h-3.8c.4.2.6.3.8.4h0Z" style="fill:#68af20;"/><path d="M447.6,110.1c-.9-2.3-1.6-4.7-2.5-7-.9-2.4-2.8-5.2-.8-8.1,1.9-2.8,3.7-5.6,1.2-9-.2-.3-.1-.9-.1-1.4h0c-3-.1-1.8,2.1-1.1,2.8,1.5,1.5.3,2.4-.3,3.4-.7,2.3-1.1,4.8-4.3,5-.3,0-.8.5-.8.6,1.1,3.4-2.6,3.7-3.6,5.6-.6,1.2-2.5,2.3-.3,3.9.8.6-.1,1.8-.8,2.3-2.7,2.2-1,3.5,1.1,4,3.2.7,4.1,2.5,3.8,5.4,0,.6,0,1.2.2,1.8h7.5c.4-3,.6-6.1.8-9.3h0Z" style="fill:#68af20;"/><path d="M431.8,115.1c1.3,1.2,4,2.2.2,3.8-.3.1-.5.3-.8.6h8.3c-.2-.6-.3-1.3-.2-1.8.3-2.9-.7-4.7-3.8-5.4-2.1-.5-3.8-1.8-1.1-4,.7-.6,1.6-1.7.8-2.3-2.3-1.6-.3-2.7.3-3.9,1-2,4.7-2.2,3.6-5.6,0-.1.5-.6.8-.6,3.2-.2,3.6-2.7,4.3-5-.4.1-1.1.1-1.3.4-1.4,2.4-3.2,2.5-5.1,1.7v5h-5.1c-3.2,4.1-2.4,9.1-3.3,13.7-.6,2.4,1.4,2.4,2.4,3.4h0Z" style="fill:#bbb922;"/><path d="M440.7,146.1h0c0-1.3.1-2.5-1.6-2.9-.2-.1-.5-.2-.7-.4h-.3v4c.9,0,1.8-.2,2.6-.7Z" style="fill:#bbb922;"/><path d="M421.4,147c-1.8-3.3-4.9-2-7.5-2.3-.8-.1-1.5-.4-2.2-.7h0v1.4h0c.3.2.5.4.6.7,2.9.3,5.5,1.4,8.1,3.5h.2c0,.1,1.8-2.3,1.8-2.3-.5,0-.8,0-1-.3h0Z" style="fill:#93be29;"/><path d="M413.6,161.9c2.9.8,4.5,1.7,5.3,2.8,1.4-.3,2.5-1.1,3.6-2.3-1.4-2-3.9-3.4-7.7-4.5.3,1.6-.4,2.8-1.2,4h0Z" style="fill:#93be29;"/><path d="M421.4,105.8c-.1.2-.6.2-1,.2-1.7,0-2.6.7-2.7,2.4-.1,1-.8,1.6-1.8,1.7-1.7.2-2.5,1.2-3.1,2.7-.8,2.1-1.1,4.4-1.5,6.6.8,0,1.7.1,2.5.1h17.4c.2-.3.5-.5.8-.6,3.8-1.6,1.1-2.6-.2-3.8-1-1-3-1-2.5-3.4.9-4.6.1-9.6,3.3-13.7h-3.3c-2.6,2.5-6.1,4.5-7.9,7.8h0Z" style="fill:#c7c221;"/><path d="M381.8,151h0c-.6.3-1.2.6-1.8.8,1.5,2.1,2.4,4.7,2.4,7.8s-.3,3.3-.8,4.7c1.2.8,2.3,1.7,3.4,2.5,1-2.2,1.6-4.6,1.6-7.3s-1-6.6-2.7-9.1c-.6,0-1.3.2-2.1.6Z" style="fill:#d1b523;"/><path d="M411.6,145.4h0c-1.4-1.7-2.5-2.6-5-.8-2.2,1.5-4.6,2.5-6.3,4.6-.2.8-.4,1.6-.4,2.4,0,3.3,1.2,5.6,4.2,7.3-.4-2-.4-3.8.6-5.1-.5-.7-.6-1.6-.6-2.5,0-3.1,2.8-5.2,6.8-5.2s.9,0,1.4.1c-.3-.3-.5-.6-.7-.8Z" style="fill:#53c722;"/><path d="M411.6,144h0c.7.2,1.5.6,2.2.7,2.6.3,5.7-1,7.5,2.3.2.3.5.4.8.3l.6-.8h-.1c-3.3-2.7-6.5-4-10.7-4.2,0,.6,0,1.2-.3,1.7Z" style="fill:#caaa21;"/><path d="M405.4,98.4c-1.2,2.3-1.8,4.9-2.1,7.6-.1.5,0,.9-.1,1.4h0c0,1.3.1,2.5,0,3.8-.3,2.2-1.9,3.3-3.6,2.1-2.4-1.8-5.2-.1-7.5-1.5-.8-.5-1.7.4-1.8,1.5v.3c.6.3,1.2.6,1.7.9,2.3-.5,3.4.4,4,1.8,3.9,1.5,7.9,2.5,12.1,3,.8-3.5,2.1-7,1-10.7-.7-2.3-.2-5.1,1.4-6,2.4-1.3,2.5-2.8,2-4.7-1.9-.1-3.8-.3-5.7-.7-.5.1-1,.5-1.4,1.2h0Z" style="fill:#20d247;"/><path d="M406.6,144.6c2.5-1.7,3.6-.8,5,.8h0v-1.4h0c.2-.6.3-1.1.4-1.7h-1c-5.4,0-9.5,2.8-10.7,6.8,1.7-2,4.1-3,6.3-4.5h0Z" style="fill:#aecf37;"/><path d="M384.5,103.5c1.2.1.6-1.4.7-2,.2-1.6-.1-3.1-1.5-3.3-1.4-.2-1.7,1.5-1.7,2.5,0,1.5,1.1,2.7,2.5,2.8Z" style="fill:#68d033;"/><path d="M381.8,151h0c.8-.4,1.5-.6,2.2-.6-.4-.6-.8-1.1-1.2-1.6-.8.1-1,.8-1,2.2Z" style="fill:#aecf37;"/><path d="M420.6,173.8h0v.2c.9-.8,1.7-1.8,2.2-2.8-.1,0-.1-.1-.2-.1-.6.9-1.3,1.8-2,2.7h0Z" style="fill:#1ab124;"/><path d="M419.5,168.3c-.1.4-.2.8-.3,1.1.7-.3,1.4-.7,2.1-1.2-.6.1-1.2.1-1.8.1h0Z" style="fill:#1ab124;"/></g></svg>