<?xml version="1.0" encoding="utf-8"?>
<!-- Generator: Adobe Illustrator 15.0.0, SVG Export Plug-In . SVG Version: 6.00 Build 0)  -->
<!DOCTYPE svg PUBLIC "-//W3C//DTD SVG 1.1//EN" "http://www.w3.org/Graphics/SVG/1.1/DTD/svg11.dtd">
<svg version="1.1" id="Calque_1" xmlns="http://www.w3.org/2000/svg" xmlns:xlink="http://www.w3.org/1999/xlink" x="0px" y="0px"
	 width="511.936px" height="511.936px" viewBox="0 0 511.936 511.936" enable-background="new 0 0 511.936 511.936"
	 xml:space="preserve">
<g>
	<path fill-rule="evenodd" clip-rule="evenodd" d="M0,77.99c170.646,0,341.291,0,511.936,0c0,13.665,0,27.33,0,40.995
		c-170.645,0-341.29,0-511.936,0C0,105.32,0,91.655,0,77.99z"/>
	<path fill-rule="evenodd" clip-rule="evenodd" d="M0,235.971c170.646,0,341.291,0,511.936,0c0,13.332,0,26.663,0,39.995
		c-170.645,0-341.29,0-511.936,0C0,262.634,0,249.302,0,235.971z"/>
	<path fill-rule="evenodd" clip-rule="evenodd" d="M0,392.951c170.646,0,341.291,0,511.936,0c0,13.665,0,27.33,0,40.994
		c-170.645,0-341.29,0-511.936,0C0,420.281,0,406.616,0,392.951z"/>
</g>
</svg>
