<?xml version="1.0" encoding="utf-8"?>
<!-- Generator: Adobe Illustrator 16.0.0, SVG Export Plug-In . SVG Version: 6.00 Build 0)  -->
<!DOCTYPE svg PUBLIC "-//W3C//DTD SVG 1.1//EN" "http://www.w3.org/Graphics/SVG/1.1/DTD/svg11.dtd">
<svg version="1.1" id="Layer_1" xmlns="http://www.w3.org/2000/svg" xmlns:xlink="http://www.w3.org/1999/xlink" x="0px" y="0px"
	 width="30px" height="30px" viewBox="0 0 30 30" enable-background="new 0 0 30 30" xml:space="preserve">
<g id="Layer_1_1_">
</g>
<g id="Layer_2">
	<g>
		<g>
			<defs>
				<circle id="SVGID_1_" cx="15.052" cy="14.948" r="14.115"/>
			</defs>
			<clipPath id="SVGID_2_">
				<use xlink:href="#SVGID_1_"  overflow="visible"/>
			</clipPath>
			<g clip-path="url(#SVGID_2_)">
				<path fill="#F6F6F6" d="M32.247,20.325c-0.142,0.664-0.707,1.065-1.134,1.457c-1.557,1.432-2.982,2.989-4.508,4.452
					c-1.582,1.517-3.045,3.16-4.625,4.681c-0.473,0.455-0.885,1.045-1.573,1.25l-0.003-0.002c0.531-1.049,1.515-1.687,2.296-2.505
					c1.427-1.494,2.916-2.93,4.376-4.393c1.561-1.562,3.115-3.127,4.673-4.69c0.14-0.14,0.288-0.252,0.497-0.252L32.247,20.325z"/>
				<path fill="#138E39" d="M33.232-3.372C21.064-3.351,8.896-3.356-3.273-3.356c0,12.114,0.005,24.228-0.016,36.342
					c-0.001,0.562,0.111,0.675,0.674,0.674c11.95-0.021,23.899-0.021,35.85,0c0.562,0.001,0.675-0.111,0.674-0.674
					c-0.021-11.896-0.021-23.791,0-35.686C33.908-3.261,33.796-3.373,33.232-3.372z M32.238,18.701
					c0.01,0.581-3.051,3.851-3.938,4.255c-0.188,0.621-0.681,0.938-1.215,1.213c0.274-0.534,0.592-1.026,1.213-1.215
					c0.111-0.647,0.683-0.997,1.078-1.388C30.33,20.629,31.273,19.678,32.238,18.701z M14.764,23.789
					c-3.193-2.191-6.369-4.413-9.63-6.503c-1.027-0.658-1.922-1.479-3.066-2.13c1.052-0.727,2.044-1.423,3.047-2.104
					c2.323-1.575,4.675-3.109,6.965-4.729c0.907-0.642,1.874-1.186,2.765-1.844c0.245-0.18,0.409-0.246,0.703-0.045
					c4.201,2.87,8.414,5.722,12.622,8.58c0.042,0.029,0.066,0.083,0.135,0.172c-1.964,1.339-3.912,2.693-5.89,4.005
					c-1.168,0.775-2.377,1.511-3.536,2.277c-1.079,0.715-2.162,1.498-3.197,2.312C15.354,24.039,15.121,24.033,14.764,23.789z
					 M26.734,24.395c-0.769,0.737-1.536,1.477-2.48,2.385C24.996,25.677,25.833,24.999,26.734,24.395z M18.654,32.211
					c0.531-0.5,0.947-0.93,1.404-1.312c1.024-0.857,1.741-2.059,2.979-2.682c0.18-0.63,0.702-0.917,1.202-1.227
					c-0.263,0.547-0.579,1.039-1.201,1.228c-0.336,0.916-1.247,1.322-1.815,2.037c-0.472,0.591-1.059,1.089-1.601,1.62
					C19.414,32.078,19.203,32.297,18.654,32.211z M32.247,20.325c-0.142,0.664-0.707,1.065-1.134,1.457
					c-1.557,1.432-2.982,2.989-4.508,4.452c-1.582,1.517-3.045,3.16-4.625,4.681c-0.473,0.455-0.885,1.045-1.573,1.25
					c-0.079,0.511-0.479,0.701-0.863,0.905c0.122-0.467,0.369-0.811,0.86-0.907c0.531-1.049,1.515-1.687,2.296-2.505
					c1.427-1.494,2.916-2.93,4.376-4.393c1.561-1.562,3.115-3.127,4.673-4.69c0.14-0.14,0.288-0.252,0.497-0.252
					c0.098-0.492,0.439-0.74,1.014-1.013C32.986,19.885,32.74,20.229,32.247,20.325z"/>
				<path fill="#F6F6F6" d="M28.299,22.954c0.111-0.647,0.682-0.997,1.078-1.388c0.953-0.938,1.896-1.89,2.861-2.865
					c0.01,0.581-3.051,3.851-3.938,4.255L28.299,22.954z"/>
				<path fill="#F6F6F6" d="M23.038,28.218c-0.336,0.916-1.247,1.322-1.815,2.037c-0.472,0.591-1.059,1.089-1.601,1.62
					c-0.208,0.203-0.419,0.422-0.968,0.336c0.531-0.5,0.947-0.93,1.404-1.312C21.084,30.04,21.801,28.84,23.038,28.218
					L23.038,28.218z"/>
				<path fill="#F6F6F6" d="M26.734,24.395c-0.769,0.737-1.536,1.477-2.48,2.385C24.996,25.677,25.833,24.999,26.734,24.395z"/>
				<path fill="#F6F6F6" d="M28.301,22.956c-0.189,0.621-0.681,0.938-1.215,1.213c0.273-0.534,0.592-1.026,1.213-1.215
					L28.301,22.956z"/>
				<path fill="#F6F6F6" d="M23.037,28.217c0.18-0.63,0.702-0.917,1.202-1.227C23.977,27.537,23.66,28.029,23.037,28.217
					L23.037,28.217z"/>
				<path fill="#F6F6F6" d="M32.246,20.323c0.098-0.492,0.439-0.74,1.014-1.013c-0.271,0.573-0.52,0.916-1.013,1.015L32.246,20.323z
					"/>
				<path fill="#F6F6F6" d="M20.407,32.165c-0.079,0.511-0.479,0.701-0.863,0.905c0.122-0.467,0.369-0.811,0.86-0.907L20.407,32.165
					z"/>
				<path fill="#EAC112" d="M28.307,15.187c-1.965,1.338-3.912,2.693-5.891,4.006c-1.168,0.774-2.377,1.51-3.536,2.277
					c-1.079,0.715-2.162,1.497-3.196,2.312c-0.33,0.258-0.562,0.252-0.918,0.008c-3.193-2.192-6.369-4.413-9.63-6.503
					c-1.027-0.658-1.922-1.479-3.066-2.13c1.052-0.727,2.044-1.423,3.047-2.104c2.323-1.575,4.675-3.109,6.965-4.729
					c0.907-0.642,1.874-1.186,2.765-1.844c0.245-0.18,0.409-0.246,0.703-0.045c4.201,2.87,8.414,5.722,12.622,8.58
					C28.213,15.043,28.236,15.098,28.307,15.187z M10.043,11.57c-0.446,0.41-0.66,0.942-0.794,1.516
					c-0.569,1.699-0.44,3.337,0.322,4.965c0.689,1.473,7.121,3.713,8.918,2.553c1.356-0.875,2.354-2.021,2.768-3.614
					c0.535-0.906,0.209-1.801-0.034-2.698c0.332-0.227,0.215-0.548,0.129-0.819c-0.328-1.013-0.791-1.979-1.563-2.714
					c-1.315-1.253-2.772-1.932-4.748-1.862C12.809,8.975,11.276,9.87,10.043,11.57z"/>
				<path fill="#0900D0" d="M21.257,16.989c-0.413,1.595-1.411,2.739-2.768,3.614c-0.948,0.612-3.083,1.207-5.489,0.459
					c-1.906-0.595-3.103-2.315-3.429-3.012c-0.762-1.628-0.891-3.266-0.322-4.965c0.185-0.044,0.375-0.073,0.554-0.134
					C13.955,11.528,18.71,12.688,21.257,16.989z"/>
				<path fill="#E6ECEE" d="M10.043,11.57c3.524-0.89,6.896-0.351,9.816,1.836c0.455,0.341,0.938,0.578,1.328,0.89
					c0.008,0.007-0.027-0.576-0.017-0.578c0.243,0.896,0.62,2.364,0.085,3.271c-2.547-4.301-7.302-5.461-11.454-4.037
					c-0.179,0.062-0.369,0.09-0.554,0.134C9.383,12.513,9.598,11.98,10.043,11.57z"/>
				<path fill="#0900D0" d="M10.043,11.57c1.232-1.701,2.766-2.596,4.996-2.675c1.975-0.069,3.434,0.609,4.748,1.862
					c0.771,0.735,1.236,1.701,1.562,2.714c0.088,0.271,0.229,1.137,0.088,1.543c-0.345-0.453-1.254-1.201-1.717-1.549
					C16.802,11.28,13.567,10.681,10.043,11.57z"/>
			</g>
		</g>
	</g>
</g>
</svg>
