<?xml version="1.0" encoding="utf-8"?>
<!-- Generator: Adobe Illustrator 16.0.0, SVG Export Plug-In . SVG Version: 6.00 Build 0)  -->
<!DOCTYPE svg PUBLIC "-//W3C//DTD SVG 1.1//EN" "http://www.w3.org/Graphics/SVG/1.1/DTD/svg11.dtd">
<svg version="1.1" id="Layer_1" xmlns="http://www.w3.org/2000/svg" xmlns:xlink="http://www.w3.org/1999/xlink" x="0px" y="0px"
	 width="30px" height="30px" viewBox="0 0 30 30" enable-background="new 0 0 30 30" xml:space="preserve">
<g id="Layer_2">
	<g>
		<g>
			<defs>
				<circle id="SVGID_1_" cx="15.052" cy="14.948" r="14.115"/>
			</defs>
			<clipPath id="SVGID_2_">
				<use xlink:href="#SVGID_1_"  overflow="visible"/>
			</clipPath>
			<g clip-path="url(#SVGID_2_)">
				<path fill="#F68A8E" d="M0.744,9.822C0.905,9.46,1.066,9.099,1.227,8.737c0.075-0.044,0.15-0.088,0.225-0.133
					c0.036,0.236-0.068,0.438-0.145,0.65c-0.865,2.397-1.131,4.868-0.721,7.376c0.618,3.78,2.406,6.916,5.389,9.353
					c0.208,0.17,0.516,0.257,0.59,0.572c-0.043,0.045-0.087,0.088-0.131,0.135c-0.379-0.119-0.603-0.445-0.9-0.674
					c-0.04-0.041-0.08-0.08-0.12-0.119L5.417,25.9c-0.022-0.131-0.107-0.201-0.231-0.23l0.006,0.005
					c-0.04-0.04-0.079-0.079-0.119-0.118l0.006,0.006c-0.286-0.396-0.625-0.737-1.022-1.021l0.005,0.005
					c-0.039-0.039-0.078-0.078-0.118-0.116l0.004,0.004c-0.03-0.134-0.112-0.211-0.248-0.23c-0.622-0.676-1.176-1.398-1.559-2.239
					c0.013-0.202-0.012-0.384-0.231-0.472l0.003,0.004c0.009-0.102-0.016-0.186-0.116-0.23L1.8,21.271
					c0.006-0.101-0.016-0.186-0.116-0.231l0.003,0.006c0.009-0.103-0.012-0.188-0.116-0.231l0.003,0.006
					c0.017-0.203-0.026-0.379-0.234-0.473c-0.253-0.443-0.422-0.923-0.57-1.408c-0.149-1.334-0.676-2.613-0.576-3.99
					C0.07,15.084,0.19,15.295,0,15.388c0-0.678,0-1.355,0-2.033c0.215,0.078,0.02,0.348,0.218,0.46
					c0.019-0.924,0.142-1.814,0.304-2.705C0.599,10.684,0.917,10.29,0.744,9.822z"/>
				<path fill="#F7565D" d="M0.744,9.822c0.172,0.468-0.145,0.862-0.222,1.289c-0.162,0.891-0.285,1.781-0.304,2.705
					C0.02,13.703,0.215,13.433,0,13.355c0-0.15,0-0.301,0-0.452c0.277-0.659,0.216-1.39,0.438-2.062
					C0.549,10.505,0.643,10.162,0.744,9.822z"/>
				<path fill="#F7565D" d="M0,15.388c0.19-0.093,0.07-0.304,0.195-0.442c-0.1,1.376,0.426,2.656,0.576,3.99
					c-0.384-0.879-0.492-1.821-0.645-2.754C0.106,16.061,0.155,15.912,0,15.84C0,15.689,0,15.539,0,15.388z"/>
				<path fill="#F68A8E" d="M14.105-0.842c4.488-0.386,8.375,0.995,11.679,4.019c1.629,1.489,2.894,3.25,3.69,5.325
					c-0.135,0.082-0.111,0.155,0.014,0.221l-0.004-0.004c-0.014,0.132-0.028,0.266,0.117,0.344l-0.004-0.006
					c-0.008,0.1,0.002,0.192,0.115,0.231l-0.002-0.005c0.01,0.628,0.298,1.198,0.387,1.808c0.101,0.677,0.396,1.333,0.223,2.041
					c-0.144-0.076-0.125-0.216-0.139-0.345c-0.129-1.316-0.441-2.586-0.916-3.822c-2.179-5.675-7.729-9.51-13.811-9.519
					c-0.711-0.001-1.422,0.047-2.133,0.072c0.078-0.246,0.291-0.149,0.453-0.173C13.913-0.676,14.073-0.64,14.105-0.842z"/>
				<path fill="#F7565D" d="M30.32,13.131c0.175-0.708-0.122-1.364-0.223-2.041c-0.089-0.61-0.377-1.18-0.387-1.808
					c0.322,0.352,0.314,0.824,0.452,1.243c-0.021,0.129-0.026,0.255,0.093,0.347c0.01,0.069,0.018,0.139,0.026,0.209
					c-0.019,0.094-0.007,0.179,0.071,0.245c0.891,4.759-0.166,9.031-3.201,12.809c-0.223,0.277-0.479,0.528-0.719,0.791
					c0.002-0.152,0.006-0.307,0.008-0.461c0.045-0.046,0.09-0.092,0.134-0.137c0.28-0.107,0.498-0.27,0.519-0.602
					c0.008-0.031,0.023-0.058,0.047-0.078c0.19-0.022,0.287-0.166,0.387-0.303c1.277-1.771,2.168-3.718,2.604-5.855
					c0.124-0.606,0.373-1.221,0.185-1.866c0.002-0.073,0.004-0.146,0.007-0.22c0.274-0.688,0.265-1.377,0.007-2.067
					C30.327,13.269,30.323,13.2,30.32,13.131z"/>
				<path fill="#F68A8E" d="M16.505,29.586c-0.687,0.074-1.372,0.062-2.058,0.008c0.001-0.086,0.002-0.172,0.003-0.258
					c0.759-0.118,1.526-0.047,2.291-0.123c2.14-0.213,4.138-0.833,5.998-1.9c0.642-0.369,1.264-0.772,1.895-1.16
					c-0.038,0.144-0.077,0.285-0.116,0.427v-0.002c-0.283-0.074-0.466,0.137-0.654,0.269c-1.902,1.317-4.006,2.098-6.283,2.473
					C17.229,29.375,16.777,29.186,16.505,29.586z"/>
				<path fill="#F7565D" d="M14.105-0.842c-0.032,0.202-0.192,0.167-0.33,0.186c-0.162,0.023-0.375-0.073-0.453,0.173
					c-0.079,0-0.157,0-0.236-0.001c-0.163-0.085-0.316-0.106-0.438,0.07c-0.062,0.007-0.125,0.014-0.189,0.021
					c-0.154-0.048-0.301-0.066-0.396,0.107c-0.072,0.012-0.144,0.023-0.217,0.035c-0.098-0.085-0.167-0.06-0.214,0.054
					c-0.061,0.012-0.123,0.023-0.184,0.035C10.861-0.087,10.3,0.066,9.804,0.407C9.711,0.44,9.615,0.473,9.521,0.506
					c-0.72,0.196-1.387,0.493-1.95,0.995L7.573,1.5c-0.13-0.016-0.217,0.035-0.25,0.166C7.295,1.692,7.262,1.709,7.226,1.719
					C7.099,1.71,7.016,1.762,6.983,1.888C6.95,1.906,6.917,1.925,6.884,1.944C6.757,1.937,6.674,1.992,6.645,2.12
					C6.62,2.147,6.589,2.165,6.554,2.175C6.379,2.168,6.264,2.242,6.22,2.416C6.18,2.448,6.141,2.48,6.101,2.513
					c-0.076,0-0.151,0-0.227,0c-0.021-0.025-0.043-0.049-0.068-0.07C8.233,0.49,10.994-0.617,14.105-0.842z"/>
				<path fill="#F7565D" d="M16.505,29.586c0.272-0.4,0.726-0.211,1.074-0.27c2.276-0.375,4.381-1.154,6.282-2.474
					c0.189-0.131,0.371-0.342,0.654-0.268c-1.086,0.95-2.363,1.571-3.69,2.088C19.438,29.204,18.002,29.551,16.505,29.586z"/>
				<path fill="#F7565D" d="M14.45,29.336c0,0.086-0.002,0.172-0.003,0.258c-2.461-0.072-4.73-0.785-6.833-2.052
					c0.024-0.022,0.048-0.047,0.069-0.071c1.128,0.483,2.208,1.092,3.413,1.381c0.693,0.166,1.362,0.496,2.108,0.364
					c0.072,0.009,0.144,0.017,0.217,0.024c0.237,0.262,0.519,0.17,0.796,0.096C14.295,29.336,14.373,29.336,14.45,29.336z"/>
				<path fill="#F7565D" d="M1.452,8.604c-0.075,0.045-0.15,0.089-0.225,0.133c0.145-0.782,0.58-1.431,0.967-2.102
					c0.021,0.02,0.043,0.038,0.064,0.055c-0.074,0.229-0.147,0.457-0.22,0.685c-0.103,0.217-0.207,0.434-0.31,0.65
					C1.551,8.14,1.451,8.294,1.481,8.514C1.487,8.549,1.478,8.579,1.452,8.604z"/>
				<path fill="#F68A8E" d="M4.627,3.492c0.065-0.065,0.13-0.13,0.196-0.194C4.931,3.306,5.031,3.299,5.081,3.18L5.074,3.184
					c0.097,0,0.194,0,0.291-0.001c-0.382,0.469-0.756,0.947-1.3,1.246C4.063,4.352,4.062,4.274,4.061,4.198L4.058,4.203
					c0.039-0.04,0.079-0.079,0.118-0.118L4.169,4.091C4.283,4.05,4.294,3.958,4.288,3.857L4.281,3.864
					c0.164,0.009,0.241-0.069,0.233-0.232l-0.005,0.01C4.548,3.591,4.588,3.542,4.627,3.492z"/>
				<path fill="#F68A8E" d="M26.443,24.465c-0.004,0.154-0.006,0.309-0.01,0.461c-0.172,0.174-0.343,0.348-0.514,0.521
					c-0.156,0.003-0.311,0.005-0.467,0.008C25.71,25.05,26.038,24.721,26.443,24.465z"/>
				<path fill="#F7565D" d="M25.454,25.454c0.155-0.003,0.312-0.005,0.467-0.009c-0.448,0.404-0.854,0.856-1.403,1.133
					c0.039-0.143,0.078-0.283,0.116-0.426c0.021-0.027,0.048-0.043,0.082-0.049c0.334-0.019,0.492-0.238,0.603-0.519
					C25.361,25.541,25.409,25.498,25.454,25.454z"/>
				<path fill="#F7565D" d="M5.365,3.183c-0.097,0-0.194,0.001-0.291,0.001c0.104-0.386,0.475-0.508,0.733-0.74
					c0.024,0.021,0.047,0.044,0.067,0.07C5.802,2.632,5.73,2.75,5.658,2.869C5.561,2.974,5.462,3.079,5.365,3.183z"/>
				<path fill="#F7565D" d="M2.194,6.636C2.347,6.312,2.526,6.004,2.76,5.731c0.021,0.02,0.042,0.039,0.064,0.057
					c0.003,0.08,0.006,0.16,0.01,0.24C2.772,6.129,2.71,6.23,2.648,6.332C2.522,6.368,2.474,6.455,2.487,6.581
					c-0.008,0.035-0.025,0.065-0.05,0.09C2.377,6.678,2.318,6.684,2.258,6.69C2.237,6.673,2.215,6.655,2.194,6.636z"/>
				<path fill="#F7565D" d="M2.76,5.731C2.985,5.426,3.21,5.12,3.435,4.815c0.021,0.026,0.044,0.049,0.069,0.07
					C3.503,4.96,3.502,5.035,3.501,5.11C3.469,5.149,3.437,5.189,3.404,5.229c-0.171,0.044-0.245,0.16-0.242,0.332
					C3.131,5.602,3.1,5.643,3.069,5.684C2.987,5.719,2.906,5.753,2.824,5.788C2.802,5.77,2.781,5.751,2.76,5.731z"/>
				<path fill="#F7565D" d="M4.057,24.54c0.397,0.284,0.736,0.627,1.022,1.022C4.596,25.364,4.266,25.014,4.057,24.54z"/>
				<path fill="#F7565D" d="M7.614,27.542c-0.3-0.188-0.6-0.378-0.9-0.567c0.024-0.021,0.046-0.045,0.066-0.07
					c0.153,0.037,0.307,0.072,0.461,0.109c0.033,0.006,0.062,0.021,0.086,0.045c0.024,0.219,0.299,0.221,0.356,0.412
					C7.662,27.495,7.639,27.52,7.614,27.542z"/>
				<path fill="#F7565D" d="M4.061,4.198c0.001,0.077,0.002,0.154,0.004,0.231c-0.07,0.079-0.139,0.159-0.209,0.238
					C3.739,4.74,3.621,4.812,3.504,4.885c-0.025-0.021-0.048-0.044-0.069-0.07C3.641,4.607,3.721,4.271,4.061,4.198z"/>
				<path fill="#F7565D" d="M1.341,20.346c0.208,0.092,0.251,0.269,0.234,0.473C1.424,20.695,1.285,20.568,1.341,20.346z"/>
				<path fill="#F7565D" d="M6.434,26.689c0.043-0.047,0.087-0.09,0.131-0.135H6.562c0.073,0.116,0.146,0.232,0.219,0.35
					c-0.021,0.025-0.042,0.049-0.066,0.07C6.587,26.912,6.46,26.85,6.434,26.689z"/>
				<path fill="#F7565D" d="M1.911,21.49c0.219,0.088,0.244,0.27,0.231,0.472C1.974,21.85,1.878,21.701,1.911,21.49z"/>
				<path fill="#F7565D" d="M3.701,24.201c0.136,0.02,0.218,0.098,0.248,0.23C3.773,24.455,3.73,24.336,3.701,24.201z"/>
				<path fill="#F7565D" d="M5.187,25.67c0.124,0.029,0.208,0.1,0.231,0.23C5.259,25.906,5.161,25.852,5.187,25.67z"/>
				<path fill="#F7565D" d="M4.514,3.631c0.008,0.163-0.069,0.241-0.233,0.232C4.359,3.786,4.437,3.709,4.514,3.631z"/>
				<path fill="#F7565D" d="M29.604,9.062c-0.146-0.079-0.131-0.212-0.117-0.344C29.643,8.793,29.67,8.911,29.604,9.062z"/>
				<path fill="#F68A8E" d="M30.257,10.873c-0.12-0.092-0.112-0.218-0.093-0.347C30.249,10.626,30.271,10.744,30.257,10.873z"/>
				<path fill="#F68A8E" d="M30.354,11.326c-0.078-0.065-0.09-0.15-0.07-0.245C30.352,11.15,30.389,11.228,30.354,11.326z"/>
				<path fill="#F7565D" d="M1.572,20.811c0.104,0.045,0.125,0.131,0.116,0.232C1.548,21.018,1.54,20.924,1.572,20.811z"/>
				<path fill="#F7565D" d="M5.081,3.18c-0.049,0.119-0.15,0.126-0.257,0.118C4.895,3.228,4.945,3.109,5.081,3.18z"/>
				<path fill="#F7565D" d="M4.288,3.857c0.006,0.102-0.005,0.194-0.119,0.234C4.106,3.96,4.208,3.915,4.288,3.857z"/>
				<path fill="#F7565D" d="M29.488,8.722c-0.125-0.066-0.147-0.139-0.014-0.221C29.479,8.575,29.484,8.649,29.488,8.722z"/>
				<path fill="#F7565D" d="M29.714,9.287C29.6,9.247,29.591,9.156,29.6,9.056C29.756,9.074,29.729,9.184,29.714,9.287z"/>
				<path fill="#F7565D" d="M1.798,21.264c0.1,0.047,0.125,0.131,0.116,0.23C1.777,21.467,1.755,21.381,1.798,21.264z"/>
				<path fill="#F7565D" d="M1.686,21.037c0.101,0.047,0.123,0.132,0.116,0.23C1.652,21.246,1.657,21.148,1.686,21.037z"/>
				<path fill="#F7565D" d="M5.414,25.896c0.04,0.039,0.08,0.078,0.12,0.119C5.451,26.02,5.4,25.99,5.414,25.896z"/>
				<path fill="#F7565D" d="M5.074,25.557c0.04,0.039,0.079,0.078,0.119,0.118C5.091,25.697,5.039,25.672,5.074,25.557z"/>
				<path fill="#F7565D" d="M4.627,3.492c-0.04,0.05-0.079,0.099-0.119,0.149C4.548,3.591,4.588,3.542,4.627,3.492z"/>
				<path fill="#F7565D" d="M4.175,4.084c-0.039,0.04-0.078,0.079-0.117,0.119C4.03,4.096,4.069,4.057,4.175,4.084z"/>
				<path fill="#F7565D" d="M3.945,24.428c0.04,0.039,0.079,0.078,0.118,0.117C3.953,24.576,3.925,24.525,3.945,24.428z"/>
				<path fill="#FDFBFC" d="M3.856,4.667c0.069-0.079,0.139-0.159,0.208-0.238c0.544-0.299,0.918-0.777,1.3-1.246
					C5.462,3.079,5.56,2.974,5.657,2.869C5.882,2.846,6.06,2.764,6.101,2.513C6.141,2.48,6.18,2.448,6.22,2.416
					c0.163-0.008,0.308-0.042,0.333-0.241C6.589,2.165,6.62,2.147,6.645,2.12c0.156,0.044,0.226-0.028,0.239-0.176
					C6.917,1.925,6.95,1.906,6.983,1.888C7.139,1.94,7.208,1.865,7.226,1.719c0.037-0.01,0.069-0.027,0.097-0.053
					C7.476,1.717,7.548,1.644,7.573,1.5L7.571,1.501C8.268,1.262,8.938,0.968,9.52,0.505c0.095-0.033,0.19-0.066,0.285-0.098
					c0.583-0.087,1.146-0.233,1.644-0.57c0.061-0.011,0.123-0.023,0.184-0.035c0.104,0.113,0.171,0.078,0.214-0.054
					c0.073-0.012,0.145-0.023,0.217-0.035c0.168,0.097,0.301,0.065,0.396-0.107c0.063-0.007,0.126-0.014,0.189-0.021
					c0.167,0.11,0.32,0.128,0.438-0.07c0.079,0,0.157,0,0.236,0.001c0.711-0.025,1.422-0.073,2.133-0.072
					c6.083,0.009,11.632,3.843,13.81,9.519c0.476,1.236,0.789,2.506,0.918,3.822c0.012,0.129-0.006,0.27,0.139,0.345
					c0.002,0.069,0.006,0.138,0.009,0.207c-0.085,0.689-0.076,1.378-0.007,2.067c-0.002,0.073-0.004,0.146-0.006,0.22
					c-0.127,0.058-0.123,0.174-0.133,0.286c-0.211,2.201-0.918,4.236-2.037,6.139c-0.32,0.543-0.775,1-1.006,1.6
					c-0.023,0.021-0.039,0.047-0.047,0.08c-0.273,0.113-0.48,0.283-0.52,0.601c-0.044,0.045-0.09,0.091-0.133,0.137
					c-0.405,0.255-0.733,0.585-0.989,0.989c-0.045,0.044-0.093,0.087-0.138,0.132c-0.315,0.038-0.485,0.246-0.602,0.519
					c-0.033,0.006-0.061,0.021-0.082,0.049c-0.631,0.387-1.253,0.791-1.895,1.16c-1.86,1.066-3.858,1.688-5.998,1.899
					c-0.766,0.076-1.532,0.005-2.291,0.123c-0.077,0-0.155,0-0.232,0c-0.24-0.239-0.521-0.151-0.796-0.096
					c-0.073-0.009-0.145-0.017-0.217-0.024c-0.056-0.126-0.173-0.121-0.283-0.14c-1.68-0.259-3.253-0.825-4.752-1.618
					c-0.273-0.145-0.491-0.417-0.842-0.4c-0.024-0.021-0.053-0.037-0.086-0.043c-0.145-0.275-0.376-0.42-0.68-0.459h0.003
					c-0.074-0.315-0.382-0.402-0.59-0.572c-2.983-2.437-4.771-5.571-5.389-9.353c-0.41-2.509-0.144-4.979,0.721-7.376
					c0.077-0.212,0.181-0.415,0.145-0.65c0.026-0.025,0.036-0.055,0.029-0.09c0.2-0.106,0.321-0.25,0.248-0.491
					c0.104-0.216,0.207-0.433,0.311-0.649c0.28-0.151,0.381-0.404,0.398-0.705c0.025-0.025,0.042-0.056,0.05-0.09
					c0.143-0.026,0.22-0.093,0.161-0.249C2.71,6.23,2.772,6.129,2.834,6.027C3.025,5.99,3.063,5.848,3.069,5.684
					C3.1,5.643,3.131,5.602,3.162,5.561c0.202-0.022,0.233-0.168,0.242-0.332c0.033-0.04,0.065-0.08,0.098-0.119
					C3.752,5.069,3.835,4.893,3.856,4.667z M1.912,19.354c0.008,0.056,0.007,0.114,0.026,0.166
					c3.332,8.723,14.111,11.983,21.73,6.562c2.4-1.709,4.162-3.926,5.148-6.727c0.031-0.045,0.074-0.088,0.091-0.138
					c1.101-3.161,1.104-6.333,0.081-9.516c-0.107-0.332-0.279-0.411-0.609-0.411C19.705,9.3,11.03,9.301,2.355,9.289
					C1.982,9.29,1.838,9.421,1.727,9.752c-0.66,1.956-0.854,3.967-0.673,6.009C1.163,16.992,1.38,18.215,1.912,19.354z"/>
				<path fill="#F68A8E" d="M27.143,23.648c0.229-0.601,0.686-1.058,1.006-1.601c1.119-1.901,1.826-3.938,2.037-6.139
					c0.01-0.112,0.006-0.229,0.133-0.286c0.188,0.646-0.062,1.259-0.186,1.866c-0.438,2.139-1.326,4.086-2.605,5.856
					C27.43,23.482,27.332,23.626,27.143,23.648z"/>
				<path fill="#F68A8E" d="M30.323,15.405c-0.069-0.689-0.078-1.378,0.007-2.067C30.588,14.027,30.598,14.716,30.323,15.405z"/>
				<path fill="#F68A8E" d="M26.576,24.328c0.037-0.316,0.244-0.486,0.52-0.602C27.074,24.059,26.855,24.221,26.576,24.328z"/>
				<path fill="#F68A8E" d="M9.521,0.506c-0.583,0.463-1.252,0.756-1.95,0.995C8.134,0.999,8.801,0.702,9.521,0.506z"/>
				<path fill="#F68A8E" d="M11.449-0.162c-0.498,0.337-1.06,0.482-1.644,0.57C10.301,0.066,10.862-0.087,11.449-0.162z"/>
				<path fill="#F68A8E" d="M13.086-0.484c-0.118,0.198-0.271,0.18-0.438,0.07C12.771-0.59,12.923-0.569,13.086-0.484z"/>
				<path fill="#F68A8E" d="M6.101,2.513C6.06,2.764,5.882,2.846,5.658,2.869C5.73,2.75,5.802,2.632,5.875,2.514
					C5.95,2.514,6.025,2.513,6.101,2.513z"/>
				<path fill="#F68A8E" d="M12.459-0.394c-0.095,0.173-0.227,0.204-0.396,0.107C12.158-0.46,12.305-0.442,12.459-0.394z"/>
				<path fill="#F68A8E" d="M6.554,2.175C6.528,2.374,6.383,2.408,6.22,2.416C6.264,2.242,6.379,2.168,6.554,2.175z"/>
				<path fill="#F68A8E" d="M11.847-0.251c-0.042,0.132-0.109,0.167-0.214,0.054C11.68-0.311,11.75-0.336,11.847-0.251z"/>
				<path fill="#F68A8E" d="M7.573,1.5c-0.025,0.144-0.097,0.216-0.25,0.166C7.356,1.535,7.443,1.485,7.573,1.5z"/>
				<path fill="#F68A8E" d="M7.226,1.719C7.208,1.865,7.139,1.94,6.983,1.888C7.016,1.762,7.099,1.71,7.226,1.719z"/>
				<path fill="#F68A8E" d="M6.884,1.944C6.871,2.092,6.801,2.165,6.645,2.12C6.674,1.992,6.757,1.937,6.884,1.944z"/>
				<path fill="#F68A8E" d="M7.327,27.059c0.351-0.018,0.569,0.256,0.842,0.399c1.5,0.793,3.073,1.358,4.752,1.618
					c0.11,0.018,0.228,0.014,0.283,0.14c-0.746,0.132-1.416-0.198-2.108-0.364c-1.205-0.289-2.285-0.896-3.413-1.381
					C7.626,27.279,7.351,27.277,7.327,27.059z"/>
				<path fill="#F68A8E" d="M13.421,29.24c0.276-0.057,0.556-0.145,0.796,0.096C13.94,29.41,13.659,29.502,13.421,29.24z"/>
				<path fill="#F68A8E" d="M2.437,6.671C2.42,6.972,2.319,7.225,2.038,7.375c0.073-0.228,0.146-0.457,0.22-0.685
					C2.318,6.684,2.377,6.678,2.437,6.671z"/>
				<path fill="#F68A8E" d="M1.728,8.025C1.801,8.266,1.68,8.41,1.481,8.514C1.451,8.294,1.551,8.14,1.728,8.025z"/>
				<path fill="#F68A8E" d="M24.716,26.104c0.115-0.271,0.285-0.479,0.603-0.518C25.208,25.865,25.05,26.086,24.716,26.104z"/>
				<path fill="#F68A8E" d="M3.069,5.684C3.063,5.848,3.025,5.99,2.834,6.027c-0.003-0.08-0.007-0.16-0.01-0.24
					C2.906,5.753,2.987,5.719,3.069,5.684z"/>
				<path fill="#F68A8E" d="M2.648,6.332c0.059,0.156-0.019,0.223-0.161,0.249C2.474,6.455,2.522,6.368,2.648,6.332z"/>
				<path fill="#F68A8E" d="M3.856,4.667C3.835,4.893,3.752,5.069,3.501,5.11c0.001-0.075,0.001-0.15,0.002-0.225
					C3.621,4.812,3.739,4.74,3.856,4.667z"/>
				<path fill="#F68A8E" d="M3.404,5.229c-0.009,0.163-0.04,0.309-0.242,0.332C3.159,5.389,3.232,5.274,3.404,5.229z"/>
				<path fill="#F68A8E" d="M6.562,26.557c0.303,0.037,0.535,0.183,0.68,0.457c-0.154-0.037-0.308-0.072-0.461-0.109
					C6.708,26.788,6.635,26.672,6.562,26.557z"/>
				<path fill="#011FA6" d="M1.912,19.354c-0.532-1.139-0.749-2.36-0.858-3.592c-0.181-2.042,0.013-4.053,0.673-6.009
					C1.838,9.421,1.982,9.29,2.356,9.291c8.675,0.012,17.35,0.011,26.024,0.002c0.33,0,0.502,0.079,0.608,0.411
					c1.025,3.183,1.021,6.354-0.08,9.517c-0.018,0.049-0.061,0.092-0.092,0.137C19.85,19.354,10.881,19.354,1.912,19.354z"/>
				<path fill="#C40100" d="M1.912,19.354c8.969,0,17.938,0,26.904,0.002c-0.985,2.802-2.748,5.019-5.147,6.728
					C16.05,31.503,5.27,28.241,1.938,19.52C1.919,19.468,1.92,19.408,1.912,19.354z"/>
			</g>
		</g>
	</g>
</g>
</svg>
