<?xml version="1.0" encoding="utf-8"?>
<!-- Generator: Adobe Illustrator 16.0.0, SVG Export Plug-In . SVG Version: 6.00 Build 0)  -->
<!DOCTYPE svg PUBLIC "-//W3C//DTD SVG 1.1//EN" "http://www.w3.org/Graphics/SVG/1.1/DTD/svg11.dtd">
<svg version="1.1" id="Layer_1" xmlns="http://www.w3.org/2000/svg" xmlns:xlink="http://www.w3.org/1999/xlink" x="0px" y="0px"
	 width="30px" height="30px" viewBox="0 0 30 30" enable-background="new 0 0 30 30" xml:space="preserve">
<g id="Layer_2">
	<g>
		<g>
			<defs>
				<circle id="SVGID_1_" cx="15.052" cy="14.948" r="14.115"/>
			</defs>
			<clipPath id="SVGID_2_">
				<use xlink:href="#SVGID_1_"  overflow="visible"/>
			</clipPath>
			<g clip-path="url(#SVGID_2_)">
				<path fill="#F7565D" d="M16.334-0.781c0.703,0.154,1.414,0.287,2.111,0.467C20.33,0.171,22.059,1,23.645,2.124
					c0.174,0.124,0.408,0.213,0.418,0.487c-0.137-0.033-0.272-0.065-0.41-0.097c-0.036-0.033-0.075-0.064-0.112-0.097
					c-0.029-0.199-0.151-0.263-0.34-0.233V2.183c-0.039-0.184-0.154-0.256-0.339-0.225l0.023-0.017l-0.023,0.015
					c-0.032-0.201-0.163-0.254-0.346-0.223c-0.145-0.079-0.287-0.158-0.432-0.236c-0.055-0.182-0.174-0.254-0.359-0.215
					c-0.141-0.069-0.279-0.139-0.418-0.208C21.197,0.87,21.027,0.8,20.805,0.847c-0.166-0.069-0.334-0.138-0.502-0.207
					c-0.049-0.151-0.146-0.189-0.291-0.126c-0.359-0.117-0.719-0.233-1.078-0.351c-0.199-0.216-0.44-0.293-0.729-0.211
					c-0.058-0.007-0.115-0.014-0.172-0.021c-0.062-0.134-0.16-0.148-0.281-0.09c-0.058-0.003-0.112-0.007-0.17-0.011
					c-0.095-0.187-0.24-0.163-0.396-0.099c-0.095-0.006-0.188-0.011-0.281-0.017c-0.133-0.22-0.32-0.156-0.508-0.1
					c-0.17-0.005-0.34-0.01-0.511-0.016c-0.723-0.32-1.482-0.08-2.223-0.142c-0.143-0.012-0.303-0.021-0.381,0.153
					c-0.094,0.003-0.189,0.007-0.283,0.01C12.778-0.439,12.55-0.537,12.38-0.28c-0.059,0.003-0.115,0.007-0.172,0.011
					c-0.98-0.068-1.859,0.34-2.754,0.628C8.111,0.793,6.906,1.513,5.729,2.276c-0.045-0.042-0.09-0.085-0.137-0.128
					c1.91-1.377,4.029-2.264,6.338-2.712c0.303-0.059,0.633-0.016,0.902-0.216C14-0.781,15.166-0.781,16.334-0.781z"/>
				<path fill="#C40100" d="M23.539,2.417c0.037,0.032,0.076,0.064,0.113,0.096c0.121,0.243,0.322,0.38,0.582,0.442
					c0.094,0.009,0.164-0.018,0.18-0.124c0.072,0.074,0.146,0.149,0.219,0.224c-0.035,0.404,0.299,0.58,0.527,0.8
					c1.656,1.595,2.877,3.467,3.664,5.625c-0.068,0.137,0.01,0.256,0.051,0.378c0.656,2.027,0.928,4.09,0.689,6.223
					c-0.34,3.037-1.465,5.726-3.414,8.083c-0.478,0.578-1.088,1.031-1.492,1.673c-0.094,0.062-0.193,0.113-0.279,0.187
					c-1.635,1.381-3.488,2.358-5.539,2.969c-0.107-0.057-0.191-0.043-0.24,0.08c-0.07,0.014-0.141,0.027-0.211,0.041
					c-0.104-0.062-0.188-0.051-0.242,0.07c-0.069,0.012-0.141,0.024-0.211,0.037c-0.453-0.045-0.885,0.092-1.317,0.172
					c-0.89,0.164-1.789,0.024-2.674,0.164c-0.064-0.002-0.125-0.006-0.188-0.008c-0.35-0.066-0.691-0.21-1.057-0.104
					c-0.062-0.01-0.127-0.018-0.189-0.024c-0.334-0.157-0.688-0.217-1.055-0.194c-0.062-0.015-0.127-0.025-0.189-0.039
					c-0.045-0.008-0.09-0.019-0.133-0.026c-0.107-0.021-0.217-0.044-0.324-0.063c-0.086-0.231-0.316-0.174-0.48-0.229
					c-5.533-1.88-8.986-5.64-10.301-11.353c-0.129-0.562-0.088-1.149-0.318-1.688c0.002-0.869,0.004-1.737,0.006-2.605
					c0.213-0.218,0.1-0.5,0.146-0.751C1.02,6.198,4.609,2.075,10.713,0.155c0.494-0.156,1.043-0.119,1.494-0.423
					c0.057-0.004,0.113-0.008,0.172-0.011c0.225,0.088,0.439,0.1,0.619-0.101c0.094-0.003,0.189-0.007,0.283-0.01
					c0.869,0.073,1.736,0.078,2.604-0.012c0.17,0.005,0.34,0.011,0.51,0.015c0.14,0.189,0.312,0.198,0.508,0.101
					c0.095,0.005,0.188,0.011,0.281,0.016c0.103,0.154,0.23,0.2,0.396,0.099c0.057,0.003,0.113,0.007,0.17,0.011
					c0.068,0.11,0.145,0.195,0.281,0.09c0.057,0.007,0.115,0.014,0.172,0.021c0.203,0.211,0.459,0.24,0.73,0.211
					c0.358,0.117,0.719,0.234,1.077,0.351c0.066,0.114,0.15,0.187,0.291,0.126c0.169,0.069,0.337,0.138,0.505,0.207
					c0.127,0.161,0.264,0.304,0.5,0.227c0.139,0.07,0.276,0.14,0.418,0.208c0.055,0.181,0.2,0.208,0.358,0.215
					c0.146,0.079,0.287,0.157,0.433,0.236c0.049,0.176,0.188,0.215,0.346,0.223l0.022-0.015l-0.022,0.017
					c0.045,0.178,0.184,0.215,0.338,0.225v0.001C23.244,2.364,23.385,2.4,23.539,2.417z M29.158,14.523
					C29.113,6.759,23.074,0.332,14.814,0.152C7.043-0.017,0.447,6.425,0.264,14.139c-0.189,7.902,6.047,14.495,13.859,14.789
					C22.176,29.23,29.055,22.801,29.158,14.523z"/>
				<path fill="#F68A8E" d="M24.658,25.838c0.404-0.641,1.016-1.095,1.492-1.673c1.949-2.358,3.074-5.046,3.414-8.083
					c0.237-2.133-0.033-4.196-0.689-6.223c-0.041-0.122-0.119-0.241-0.051-0.378C28.977,9.5,28.99,9.733,29.172,9.71
					c0.76,2.073,0.871,4.229,0.672,6.39c-0.295,3.19-1.529,6.018-3.611,8.461c-0.412,0.479-0.807,0.985-1.362,1.32
					C24.799,25.865,24.729,25.852,24.658,25.838z"/>
				<path fill="#F68A8E" d="M-0.291,15.829c0.23,0.538,0.189,1.126,0.318,1.687c1.314,5.713,4.768,9.474,10.301,11.354
					c0.164,0.056,0.395-0.003,0.48,0.229c-0.043,0.131-0.133,0.068-0.221,0.068c-0.529,0.002-0.969-0.373-1.502-0.352
					c-0.162-0.045-0.4,0.049-0.434-0.234c-0.238-0.178-0.477-0.357-0.799-0.328l0.008,0.006c-0.078-0.229-0.305-0.256-0.479-0.354
					c-2.623-1.473-4.66-3.522-6.111-6.163c-0.697-1.267-1.102-2.638-1.547-3.999c-0.039-0.166-0.266-0.247-0.205-0.458
					c0.254-0.019,0.125-0.179,0.141-0.313C-0.297,16.589-0.625,16.191-0.291,15.829z"/>
				<path fill="#F7565D" d="M9.086,28.814c0.533-0.021,0.973,0.354,1.502,0.352c0.088,0,0.178,0.062,0.221-0.068
					c0.107,0.021,0.217,0.043,0.324,0.063c0.018,0.05,0.033,0.099,0.051,0.149c0.027-0.041,0.055-0.082,0.082-0.123
					c0.062,0.014,0.127,0.024,0.189,0.037c0.303,0.327,0.66,0.356,1.055,0.196c0.062,0.009,0.127,0.017,0.189,0.022
					c0.34,0.152,0.67,0.421,1.057,0.104c0.062,0.002,0.123,0.005,0.188,0.007c0.051,0.121,0.154,0.146,0.271,0.15
					c1.111,0.045,2.209-0.08,3.301-0.258c0.146-0.022,0.346-0.035,0.42-0.229c0.07-0.012,0.142-0.024,0.211-0.036
					c0.125,0.127,0.189,0.047,0.242-0.07c0.07-0.014,0.141-0.027,0.211-0.041c0.131,0.125,0.189,0.037,0.24-0.08
					c2.051-0.609,3.904-1.588,5.539-2.969c0.086-0.072,0.186-0.125,0.279-0.187c0.07,0.015,0.141,0.026,0.211,0.042
					c-3.309,3.057-7.236,4.296-11.691,3.975c-1.223-0.09-2.41-0.363-3.568-0.759C9.426,29.033,9.191,29.037,9.086,28.814z"/>
				<path fill="#EC1D25" d="M-0.275,17.742c0.445,1.361,0.85,2.732,1.547,3.999c1.451,2.641,3.488,4.69,6.111,6.163
					c0.174,0.098,0.4,0.125,0.479,0.354c-0.211,0.09-0.355-0.074-0.506-0.156c-3.598-1.975-6.092-4.885-7.385-8.793
					C-0.193,18.811-0.34,18.287-0.275,17.742z"/>
				<path fill="#EC1D25" d="M5.592,2.148c0.047,0.043,0.092,0.086,0.137,0.128C4.621,3.139,3.602,4.093,2.73,5.197
					C1.402,6.882,0.434,8.743-0.057,10.84c-0.045-0.046-0.09-0.091-0.137-0.137c0-0.753,0.318-1.417,0.604-2.084
					C1.537,5.984,3.264,3.824,5.592,2.148z"/>
				<path fill="#F7565D" d="M29.172,9.709C28.99,9.733,28.977,9.5,28.824,9.48c-0.787-2.158-2.008-4.031-3.664-5.625
					c-0.229-0.22-0.562-0.396-0.527-0.8c0.279-0.046,0.391,0.194,0.543,0.338C27.047,5.157,28.385,7.26,29.172,9.709z"/>
				<path fill="#F7565D" d="M-0.193,10.703c0.047,0.045,0.092,0.091,0.137,0.137c-0.104,0.489-0.273,0.976-0.287,1.466
					c-0.008,0.293-0.312,0.643,0.059,0.917c-0.002,0.868-0.004,1.736-0.006,2.605c-0.334,0.363-0.006,0.76-0.049,1.141
					c-0.016,0.137,0.113,0.297-0.141,0.314c-0.355-1.987-0.32-3.968,0.096-5.942C-0.338,11.125-0.258,10.916-0.193,10.703z"/>
				<path fill="#EC1D25" d="M7.854,28.252c0.322-0.029,0.561,0.15,0.799,0.328C8.332,28.602,8.041,28.551,7.854,28.252z"/>
				<path fill="#F68A8E" d="M24.234,2.956c-0.26-0.062-0.461-0.2-0.582-0.442c0.137,0.032,0.272,0.065,0.41,0.098
					c0.062,0.046,0.127,0.093,0.188,0.139C24.246,2.819,24.24,2.887,24.234,2.956z"/>
				<path fill="#F7565D" d="M24.234,2.956c0.006-0.068,0.012-0.137,0.018-0.206c0.055,0.027,0.107,0.054,0.162,0.082
					C24.398,2.938,24.328,2.965,24.234,2.956z"/>
				<path fill="#F68A8E" d="M-0.285,13.224c-0.371-0.274-0.066-0.624-0.059-0.917c0.014-0.491,0.184-0.978,0.287-1.466
					c0.49-2.097,1.459-3.958,2.787-5.643C3.601,4.094,4.621,3.14,5.728,2.277c1.178-0.764,2.383-1.483,3.725-1.916
					c0.895-0.289,1.773-0.696,2.754-0.628c-0.451,0.304-1,0.267-1.494,0.423C4.609,2.075,1.02,6.198-0.139,12.473
					C-0.186,12.723-0.072,13.006-0.285,13.224z"/>
				<path fill="#F68A8E" d="M15.885-0.401c-0.867,0.089-1.734,0.085-2.604,0.012c0.078-0.175,0.238-0.166,0.381-0.153
					C14.402-0.481,15.162-0.722,15.885-0.401z"/>
				<path fill="#F68A8E" d="M18.934,0.163c-0.271,0.029-0.526,0-0.729-0.211C18.492-0.131,18.734-0.054,18.934,0.163z"/>
				<path fill="#F68A8E" d="M12.998-0.379c-0.18,0.2-0.395,0.189-0.619,0.101C12.549-0.535,12.777-0.437,12.998-0.379z"/>
				<path fill="#F68A8E" d="M16.902-0.286c-0.195,0.098-0.369,0.088-0.508-0.101C16.582-0.442,16.77-0.506,16.902-0.286z"/>
				<path fill="#F68A8E" d="M21.307,1.074c-0.236,0.077-0.373-0.066-0.5-0.227C21.027,0.8,21.197,0.87,21.307,1.074z"/>
				<path fill="#F68A8E" d="M17.58-0.17c-0.166,0.101-0.295,0.055-0.396-0.099C17.34-0.333,17.486-0.357,17.58-0.17z"/>
				<path fill="#F68A8E" d="M22.084,1.498c-0.158-0.007-0.305-0.035-0.359-0.215C21.91,1.243,22.029,1.315,22.084,1.498z"/>
				<path fill="#F68A8E" d="M22.861,1.957c-0.158-0.007-0.297-0.047-0.346-0.223C22.697,1.703,22.828,1.755,22.861,1.957z"/>
				<path fill="#F68A8E" d="M23.199,2.183c-0.154-0.01-0.293-0.047-0.338-0.225C23.045,1.926,23.16,1.999,23.199,2.183z"/>
				<path fill="#F68A8E" d="M23.539,2.417c-0.154-0.017-0.295-0.053-0.34-0.233C23.387,2.154,23.51,2.218,23.539,2.417z"/>
				<path fill="#F68A8E" d="M18.031-0.07c-0.137,0.105-0.213,0.02-0.281-0.09C17.871-0.218,17.971-0.204,18.031-0.07z"/>
				<path fill="#F68A8E" d="M20.303,0.64c-0.141,0.06-0.225-0.012-0.291-0.126C20.156,0.451,20.254,0.488,20.303,0.64z"/>
				<path fill="#C40100" d="M29.158,14.523C29.055,22.8,22.176,29.23,14.123,28.927C6.311,28.634,0.074,22.041,0.264,14.139
					C0.447,6.425,7.043-0.017,14.814,0.152C23.074,0.332,29.113,6.759,29.158,14.523z M10.611,5.016
					c0.504-0.216,0.854-0.032,1.113,0.483c-0.08-0.645,0.213-0.948,0.859-1.049c-0.857,0.049-0.787-0.529-0.838-1.064
					c-0.254,0.634-0.676,0.6-1.207,0.37c0.488,0.439,0.338,0.831,0.027,1.219c-0.023,0.02-0.047,0.039-0.07,0.059
					C10.543,5.084,10.578,5.062,10.611,5.016z M13.398,11.865c0.012,0.007,0.023,0.013,0.037,0.021
					c-0.016-0.004-0.031-0.008-0.045-0.012c-0.119-0.504-0.16-0.979,0.564-1.243c-0.791,0.255-0.992-0.184-1.135-0.766
					c-0.092,0.66-0.5,0.798-1.072,0.75c0.523,0.308,0.693,0.694,0.389,1.312C12.609,11.284,13.004,11.617,13.398,11.865z
					 M4.166,11.674c0.518-0.373,1.047-0.73,1.549-1.123c0.264-0.206,0.459-0.228,0.73-0.012c0.516,0.409,1.059,0.782,1.59,1.169
					c0.045,0.032,0.096,0.071,0.131-0.003c0.008-0.016-0.033-0.055-0.053-0.084c-0.17-0.595-0.309-1.201-0.518-1.782
					c-0.143-0.395-0.053-0.61,0.287-0.832C8.416,8.661,8.914,8.261,9.543,7.8c-0.83,0-1.488-0.025-2.145,0.009
					c-0.375,0.02-0.525-0.125-0.625-0.466C6.582,6.688,6.346,6.045,6.088,5.272c-0.242,0.76-0.467,1.395-0.643,2.042
					c-0.1,0.366-0.254,0.521-0.66,0.496C4.131,7.77,3.473,7.8,2.816,7.8C3.344,8.293,3.869,8.691,4.42,9.047
					c0.303,0.194,0.385,0.379,0.25,0.727c-0.229,0.594-0.402,1.209-0.6,1.816c-0.006,0.046-0.012,0.091-0.02,0.137
					C4.09,11.709,4.127,11.692,4.166,11.674z M12.756,6.227c0.422,0.789-0.23,0.889-0.832,1.199c0.822-0.022,1.002,0.374,1.02,0.954
					c0.262-0.588,0.67-0.7,1.273-0.477c-0.57-0.372-0.523-0.786-0.172-1.266C13.465,6.979,13.125,6.724,12.756,6.227z M9.779,14.594
					c0.867-0.17,0.867-0.17,1.428,0.486c-0.244-0.767,0.145-1.001,0.721-1.138c-0.637-0.08-0.926-0.372-0.791-1.045
					c-0.283,0.665-0.732,0.59-1.244,0.383C10.279,13.72,10.348,14.124,9.779,14.594z"/>
				<path fill="#F68A8E" d="M17.936,29.221c-0.074,0.193-0.274,0.206-0.42,0.229c-1.092,0.178-2.188,0.303-3.301,0.258
					c-0.117-0.005-0.221-0.028-0.271-0.149c0.885-0.14,1.785,0,2.674-0.164C17.051,29.312,17.482,29.177,17.936,29.221z"/>
				<path fill="#F68A8E" d="M13.756,29.55c-0.387,0.315-0.717,0.048-1.057-0.104C13.064,29.34,13.406,29.482,13.756,29.55z"/>
				<path fill="#F68A8E" d="M12.51,29.422c-0.395,0.16-0.752,0.131-1.055-0.195C11.822,29.205,12.176,29.264,12.51,29.422z"/>
				<path fill="#F68A8E" d="M18.84,28.992c-0.051,0.117-0.109,0.206-0.24,0.08C18.648,28.949,18.732,28.938,18.84,28.992z"/>
				<path fill="#F68A8E" d="M18.389,29.113c-0.053,0.117-0.117,0.197-0.242,0.07C18.199,29.062,18.283,29.053,18.389,29.113z"/>
				<path fill="#F68A8E" d="M11.266,29.188c-0.027,0.041-0.055,0.082-0.082,0.123c-0.018-0.052-0.033-0.101-0.051-0.149
					C11.176,29.17,11.221,29.18,11.266,29.188z"/>
				<path fill="#FDDC18" d="M8.035,11.709c-0.531-0.388-1.074-0.761-1.59-1.17c-0.271-0.215-0.467-0.194-0.73,0.012
					c-0.502,0.393-1.031,0.75-1.549,1.123c-0.033-0.028-0.064-0.057-0.096-0.084c0.197-0.607,0.371-1.222,0.6-1.816
					c0.135-0.348,0.053-0.533-0.25-0.727C3.869,8.691,3.344,8.293,2.816,7.8c0.656,0,1.314-0.03,1.969,0.011
					c0.406,0.025,0.561-0.13,0.66-0.496c0.176-0.647,0.4-1.282,0.643-2.042c0.258,0.772,0.494,1.416,0.686,2.071
					c0.1,0.341,0.25,0.485,0.625,0.466C8.055,7.775,8.713,7.8,9.543,7.8c-0.629,0.461-1.127,0.861-1.66,1.208
					C7.543,9.23,7.453,9.445,7.596,9.84c0.209,0.581,0.348,1.187,0.518,1.782C8.086,11.65,8.061,11.679,8.035,11.709z"/>
				<path fill="#FDDC18" d="M12.756,6.227c0.369,0.497,0.709,0.752,1.289,0.41c-0.352,0.48-0.398,0.895,0.172,1.266
					c-0.604-0.223-1.012-0.111-1.273,0.477c-0.018-0.58-0.197-0.977-1.02-0.954C12.525,7.115,13.178,7.015,12.756,6.227z"/>
				<path fill="#FDDC18" d="M13.398,11.865c-0.395-0.249-0.789-0.582-1.262,0.062c0.305-0.618,0.135-1.004-0.389-1.312
					c0.572,0.048,0.98-0.09,1.072-0.75c0.143,0.582,0.344,1.021,1.135,0.766c-0.725,0.263-0.684,0.738-0.564,1.243L13.398,11.865z"
					/>
				<path fill="#FDDC18" d="M10.566,4.974c0.311-0.388,0.461-0.78-0.027-1.219c0.531,0.23,0.953,0.265,1.207-0.37
					c0.051,0.535-0.02,1.113,0.838,1.064c-0.646,0.101-0.939,0.405-0.859,1.049c-0.26-0.515-0.609-0.699-1.113-0.483
					C10.596,5.001,10.582,4.988,10.566,4.974z"/>
				<path fill="#FDDC18" d="M9.779,14.594c0.568-0.47,0.5-0.875,0.113-1.312c0.512,0.207,0.961,0.282,1.244-0.383
					c-0.135,0.673,0.154,0.965,0.791,1.045c-0.576,0.136-0.965,0.371-0.721,1.138C10.646,14.424,10.646,14.424,9.779,14.594z"/>
				<path fill="#FDDC18" d="M4.166,11.674c-0.039,0.018-0.076,0.035-0.115,0.052c0.008-0.045,0.014-0.091,0.02-0.137
					C4.102,11.618,4.133,11.646,4.166,11.674z"/>
				<path fill="#FDDC18" d="M8.113,11.621c0.02,0.029,0.061,0.068,0.053,0.084c-0.035,0.074-0.086,0.035-0.131,0.003
					C8.061,11.679,8.086,11.65,8.113,11.621z"/>
				<path fill="#FDDC18" d="M13.391,11.874c0.014,0.003,0.029,0.008,0.045,0.012c-0.014-0.007-0.025-0.014-0.037-0.021
					L13.391,11.874z"/>
				<path fill="#FDDC18" d="M10.611,5.016c-0.033,0.047-0.068,0.068-0.115,0.017c0.023-0.02,0.047-0.039,0.07-0.059
					C10.582,4.988,10.596,5.001,10.611,5.016z"/>
			</g>
		</g>
	</g>
</g>
</svg>
